<svg xmlns="http://www.w3.org/2000/svg" xmlns:xlink="http://www.w3.org/1999/xlink" viewBox="77 46.33 337.17 379.01"><defs><clipPath id="freepik--clip-path--inject-109"><path d="M183.84,408.51,173,414.77a3.24,3.24,0,0,1-2.94,0l-13.23-7.54a.89.89,0,0,1,0-1.69l10.84-6.26a3.24,3.24,0,0,1,2.94,0c3.58,2.07,9.64,5.46,13.22,7.54A.89.89,0,0,1,183.84,408.51Z" style="fill:#8E54E9"/></clipPath></defs><g id="freepik--Device--inject-109"><g id="freepik--device--inject-109"><g id="freepik--Mobile--inject-109"><path d="M411.86,347.2a1.22,1.22,0,0,0-.16-.26,1.83,1.83,0,0,0-.13-.16.9.9,0,0,0-.16-.19l-.17-.16a3.73,3.73,0,0,0-.65-.46L194,220.9a8,8,0,0,0-7.18,0L80.58,282.21l-.43.27-.14.12a2.64,2.64,0,0,0-.6.67,1.47,1.47,0,0,0-.22.46,1.42,1.42,0,0,0,0,.22,1.47,1.47,0,0,0,0,.36,2.11,2.11,0,0,0,0,.25,2.86,2.86,0,0,0,.07.28,2.18,2.18,0,0,0,.11.27,3.13,3.13,0,0,0,1.28,1.24L297.21,411.43a6.53,6.53,0,0,0,2.13.72,8.81,8.81,0,0,0,1.46.13,8.66,8.66,0,0,0,1.44-.12,3.55,3.55,0,0,0,.47-.09,6.13,6.13,0,0,0,1.29-.44c.14-.06.26-.13.39-.2l106.2-61.32C412,349.32,412.38,348.2,411.86,347.2Zm-23.33-4.44-6.79,3.93-90.49,52.2a5.49,5.49,0,0,1-.73.36,6.07,6.07,0,0,1-4.66,0,5.49,5.49,0,0,1-.73-.36L113.32,299.7,105,294.91a3.18,3.18,0,0,1-.78-.62c-.86-.94-.59-2.14.78-2.94l97.24-56.14a6.12,6.12,0,0,1,3.77-1.05,3.47,3.47,0,0,1,.93.25,3,3,0,0,1,.48.23L388.53,339.2A2.06,2.06,0,0,1,388.53,342.76Z" style="fill:#455a64"/><path d="M80.16,282.49A8.05,8.05,0,0,0,77,288.44v4.74a7.93,7.93,0,0,0,3.59,6.23L297.18,424.47a6.81,6.81,0,0,0,2.64.81c.32,0,.63.05,1,.06h0V412.28h0a11.65,11.65,0,0,1-1.46-.12,6.61,6.61,0,0,1-2.14-.74L80.58,286.35C78.75,285.3,78.6,283.63,80.16,282.49Z" style="fill:#37474f"/><path d="M354.49,372.67a14.45,14.45,0,0,0-12.82,0,5.17,5.17,0,0,0-1.92,1.75c-1.15,2,1,3.5,1.92,4.06a14.45,14.45,0,0,0,12.82,0,5.42,5.42,0,0,0,1.92-1.75C357.56,374.73,355.44,373.23,354.49,372.67Z" style="fill:#8E54E9"/><path d="M142.37,257.18a1.07,1.07,0,0,0,0-2,3.88,3.88,0,0,0-3.51,0,1.07,1.07,0,0,0,0,2A3.88,3.88,0,0,0,142.37,257.18Z" style="fill:#263238"/><path d="M136.86,266.78a1,1,0,0,0,0-1.8,3.49,3.49,0,0,0-3.12,0,1,1,0,0,0,0,1.8A3.43,3.43,0,0,0,136.86,266.78Z" style="fill:#263238"/><path d="M142.13,263.81l17.44-10.07c1-.55,1-1.42.1-1.94a3.7,3.7,0,0,0-3.35.07l-17.44,10.06c-.95.56-1,1.42-.1,1.94A3.7,3.7,0,0,0,142.13,263.81Z" style="fill:#263238"/><path d="M411.07,346.29c1.48,1.15,1.32,2.78-.48,3.82L304.38,411.43a7.22,7.22,0,0,1-3.59.85v13.05a7.29,7.29,0,0,0,3.58-.86l106.21-61.31a7.91,7.91,0,0,0,3.59-6.22l0-4.75A8.05,8.05,0,0,0,411.07,346.29Z" style="fill:#263238"/><path d="M131.24,319.27a4,4,0,0,1,1.86,3.08,1.14,1.14,0,0,1-.52,1.08c-.22.13-1.06.63-1.3.76a1.37,1.37,0,0,1-1.34-.15l-24.15-14a4,4,0,0,1-1.85-3.08,1.2,1.2,0,0,1,.47-1.06l1.34-.78a1.37,1.37,0,0,1,1.34.15Z" style="fill:#455a64"/><path d="M129.94,320l-24.15-13.94c-1-.59-1.85-.17-1.85.94a4,4,0,0,0,1.85,3.08l24.15,14c1,.59,1.86.17,1.86-.94A4,4,0,0,0,129.94,320Z" style="fill:#263238"/><path d="M98.91,300.6a4,4,0,0,1,1.86,3.09,1.17,1.17,0,0,1-.51,1.08c-.23.12-1.07.63-1.3.76a1.37,1.37,0,0,1-1.34-.16L86.23,298.8a4,4,0,0,1-1.85-3.08,1.15,1.15,0,0,1,.47-1.06c.22-.15,1.1-.65,1.34-.78a1.34,1.34,0,0,1,1.34.15Z" style="fill:#455a64"/><path d="M97.62,301.35l-11.39-6.57c-1-.59-1.85-.17-1.85.94a4,4,0,0,0,1.85,3.08l11.39,6.57c1,.59,1.85.17,1.85-.94A4,4,0,0,0,97.62,301.35Z" style="fill:#263238"/></g><g id="freepik--Window--inject-109"><path d="M388.53,342.71l-6.79,3.92-90.49,52.21a7.05,7.05,0,0,1-.73.36,6.07,6.07,0,0,1-4.66,0,7.05,7.05,0,0,1-.73-.36L113.32,299.65l-8.31-4.8a2.94,2.94,0,0,1-.78-.61c-.86-.94-.59-2.15.78-2.95l97.24-56.13a6.12,6.12,0,0,1,3.77-1,3.47,3.47,0,0,1,.93.25,3,3,0,0,1,.48.23l181.1,104.56A2.06,2.06,0,0,1,388.53,342.71Z" style="fill:#8E54E9"/><path d="M388.53,342.71l-6.79,3.92-90.49,52.21a7.05,7.05,0,0,1-.73.36,6.07,6.07,0,0,1-4.66,0,7.05,7.05,0,0,1-.73-.36L113.32,299.65l-8.31-4.8a2.94,2.94,0,0,1-.78-.61c-.86-.94-.59-2.15.78-2.95l97.24-56.13a6.12,6.12,0,0,1,3.77-1,3.47,3.47,0,0,1,.93.25,3,3,0,0,1,.48.23l181.1,104.56A2.06,2.06,0,0,1,388.53,342.71Z" style="fill:#fff;opacity:0.8"/><path d="M125.54,287.51a.48.48,0,0,1-.14-.05l-.47-.28-1.15.67a.18.18,0,0,1-.2,0l-.17-.09-.08-.06a.43.43,0,0,1,0-.07l-.48-1.69a.23.23,0,0,1,0-.07.17.17,0,0,1,.06-.06l.16-.09a.28.28,0,0,1,.15,0,.37.37,0,0,1,.15.05l1.66,1,.26-.14a.18.18,0,0,1,.13,0,.3.3,0,0,1,.15.05l.11.06c.05,0,.08.06.08.08s0,.05-.07.08l-.25.15.48.27a.19.19,0,0,1,.08.08s0,.05-.08.08l-.19.12A.37.37,0,0,1,125.54,287.51Zm-1-.6-1.18-.69.35,1.17Z" style="fill:#455a64"/><path d="M126.62,286.55a3.2,3.2,0,0,1-1.44-.44c-.47-.28-.73-.55-.76-.83s.16-.54.56-.78a3.43,3.43,0,0,1,.52-.23,2.78,2.78,0,0,1,.53-.11s.06,0,.08,0,0,0,0,0l.1.19s0,0,0,0l-.07,0a1.94,1.94,0,0,0-.75.24c-.27.16-.4.34-.38.54s.22.39.59.6a2.33,2.33,0,0,0,1,.35,1.65,1.65,0,0,0,.89-.21l.26-.18a.73.73,0,0,0,.15-.17l-.78-.45-.48.27a.19.19,0,0,1-.14,0,.3.3,0,0,1-.14-.05l-.11-.06s-.08-.06-.08-.08,0-.05.07-.08l.76-.44a.34.34,0,0,1,.16,0,.29.29,0,0,1,.17.06l1.11.64a.18.18,0,0,1,.08.06s0,0,0,.06a1.29,1.29,0,0,1-.66.66A2.41,2.41,0,0,1,126.62,286.55Z" style="fill:#455a64"/><path d="M136.13,280.85c.37.22.37.56,0,.77a1.42,1.42,0,0,1-1.33,0c-.37-.21-.37-.55,0-.77A1.48,1.48,0,0,1,136.13,280.85Z" style="fill:#455a64"/><path d="M133.71,280.22c-.67.39-.88.95-.62,1.44a.43.43,0,0,0,.4.15h0c.22,0,.38-.15.31-.27-.19-.35,0-.74.43-1a2.65,2.65,0,0,1,1.75-.25c.22,0,.44,0,.47-.18h0c0-.11-.09-.2-.26-.24A4,4,0,0,0,133.71,280.22Z" style="fill:#455a64"/><path d="M132.64,279.61c-1,.57-1.36,1.38-1.07,2.13,0,.11.21.18.4.17h0c.22,0,.36-.14.31-.26-.23-.61.06-1.27.87-1.74a5.08,5.08,0,0,1,3-.51c.22,0,.43,0,.45-.18h0c0-.11-.11-.21-.3-.23A6.08,6.08,0,0,0,132.64,279.61Z" style="fill:#455a64"/><path d="M152.31,270.09a.21.21,0,0,1-.11,0s0,0,0-.07l.2-1s0-.05,0-.07l.06-.06.35-.2a.2.2,0,0,1,.11,0,.21.21,0,0,1,.12,0l2.86,1.65a.06.06,0,0,1,0,.06.07.07,0,0,1,0,.07l-.36.21a.24.24,0,0,1-.12,0,.21.21,0,0,1-.12,0l-2.18-1.26L153,270s0,0-.06.06a.27.27,0,0,1-.13,0Z" style="fill:#455a64"/><path d="M154.55,268.8a.21.21,0,0,1-.12,0,.09.09,0,0,1,0-.07l.21-1a.19.19,0,0,1,0-.07l.05-.06.35-.2a.21.21,0,0,1,.12,0,.24.24,0,0,1,.12,0l2.85,1.65s0,0,0,.07a.07.07,0,0,1,0,.06l-.36.21a.21.21,0,0,1-.12,0l-.12,0-2.18-1.26-.13.65a.14.14,0,0,1-.07.06.22.22,0,0,1-.12,0Z" style="fill:#455a64"/><path d="M157.35,267a.27.27,0,0,1,.12,0,.21.21,0,0,1,.12,0l.44.25a.06.06,0,0,1,0,.06.08.08,0,0,1,0,.07l-.41.24-.12,0a.21.21,0,0,1-.12,0l-.44-.25a.08.08,0,0,1,0-.07.09.09,0,0,1,0-.07Zm1.55.89a.26.26,0,0,1,.24,0l.43.25s.05,0,.05.07a.1.1,0,0,1-.05.07l-.41.23a.25.25,0,0,1-.24,0l-.43-.25s-.05,0-.05-.07a.07.07,0,0,1,.05-.06Z" style="fill:#455a64"/><path d="M161.93,267a.26.26,0,0,1-.24,0l-.53-.3-1.37.79-.12,0a.22.22,0,0,1-.12,0l-.31-.18c-.05,0-.07-.05-.08-.08a.17.17,0,0,1,0-.1l-.34-1.75a.15.15,0,0,1,.07-.17l.34-.2.12,0,.11,0,1.77,1,.38-.22.12,0,.12,0,.31.19a.07.07,0,0,1,.05.06s0,.05-.05.07l-.38.22.54.31s.05,0,0,.07a.08.08,0,0,1,0,.07Zm-1.33-.62-.94-.55.19,1Z" style="fill:#455a64"/><path d="M160.73,264.22a.1.1,0,0,1,0-.07s0,0,0-.07l1.66-1a.25.25,0,0,1,.24,0l.31.18s.05,0,.05.07,0,.05-.05.07l-1.24.71.52.36a.73.73,0,0,1,.18-.17l.18-.12a2.47,2.47,0,0,1,.53-.22,2.13,2.13,0,0,1,.56-.1,2.09,2.09,0,0,1,.56,0,2,2,0,0,1,.53.2,1,1,0,0,1,.39.34.45.45,0,0,1,.08.33.53.53,0,0,1-.17.32,2.19,2.19,0,0,1-.4.3,3.33,3.33,0,0,1-.59.26,2.91,2.91,0,0,1-.55.1,2.67,2.67,0,0,1-.5,0,1.65,1.65,0,0,1-.41-.14s-.05,0-.05-.07,0-.05.05-.07l.36-.21.11,0,.12,0a1.23,1.23,0,0,0,.25.05l.24,0,.22-.07.2-.1c.17-.1.26-.2.27-.32s-.06-.21-.22-.3a.81.81,0,0,0-.48-.1,1.16,1.16,0,0,0-.55.15,1.46,1.46,0,0,0-.19.13.58.58,0,0,0-.08.1.2.2,0,0,1,0,.08.19.19,0,0,1-.08.07l-.41.24-.12,0-.11,0Z" style="fill:#455a64"/><polygon points="113.2 295.04 112.28 294.51 113.5 293.8 114.42 294.33 113.2 295.04" style="fill:#455a64"/><polygon points="115.04 293.98 113.2 292.92 114.42 292.21 116.26 293.27 115.04 293.98" style="fill:#455a64"/><polygon points="116.88 292.92 114.12 291.32 115.34 290.62 118.11 292.21 116.88 292.92" style="fill:#455a64"/><polygon points="118.72 291.86 115.04 289.73 116.27 289.02 119.94 291.15 118.72 291.86" style="fill:#455a64"/><path d="M201.9,240.38a1.37,1.37,0,0,0-.72.11l-4.59,2.64c-.3.17-.22.49.17.72l1.68,1a2,2,0,0,0,.81.24,1.43,1.43,0,0,0,.36,0,1,1,0,0,0,.36-.1l4.59-2.64c.29-.18.22-.49-.18-.72l-1.67-1A2,2,0,0,0,201.9,240.38Zm-2.7,4.5a.78.78,0,0,1-.34-.12l-1.68-1c-.29-.17-.35-.42-.13-.55l4.59-2.64a.53.53,0,0,1,.19-.06h.11a.81.81,0,0,1,.35.12l1.67,1c.29.17.35.42.14.54l-4.59,2.65A.64.64,0,0,1,199.2,244.88Z" style="fill:#455a64"/><path d="M198.21,242.92l2,1.14-.72.42a.44.44,0,0,1-.25,0l-1.47-.85c-.21-.12-.26-.31-.1-.41Z" style="fill:#455a64"/><polygon points="198.55 242.73 199.41 242.23 201.39 243.37 200.52 243.87 198.55 242.73" style="fill:#455a64"/><polygon points="199.75 242.04 200.6 241.54 202.59 242.69 201.73 243.19 199.75 242.04" style="fill:#455a64"/><path d="M201.93,240.93l1.43.83c.26.15.21.37-.15.57l-.29.17-2-1.15.69-.39A.41.41,0,0,1,201.93,240.93Z" style="fill:#455a64"/><path d="M202.89,240.52a1.23,1.23,0,0,1,.85.23l.31.18c.34.2.53.42.4.5l-.21.14-1.58-.91Z" style="fill:#455a64"/><polygon points="190.21 248.1 193.77 245.01 195.65 247.68 193.19 247.01 190.21 248.1" style="fill:#455a64"/></g><g id="freepik--Button--inject-109"><path d="M266,378.05v.88a4.82,4.82,0,0,0,2.19,3.79l17.16,9.9a4.83,4.83,0,0,0,4.38,0l84.57-48.85a4.85,4.85,0,0,0,2.19-3.8v-.87a4.85,4.85,0,0,0-2.19-3.8l-17.16-9.9a4.83,4.83,0,0,0-4.38,0l-84.57,48.86A4.85,4.85,0,0,0,266,378.05Z" style="fill:#8E54E9"/><path d="M374.55,335.5c.91.69.81,1.7-.29,2.33l-84.57,48.86a4.61,4.61,0,0,1-2.19.53v5.92a4.44,4.44,0,0,0,2.2-.52l84.56-48.85a4.88,4.88,0,0,0,2.19-3.8v-.87A4.87,4.87,0,0,0,374.55,335.5Z" style="opacity:0.15"/><path d="M267.82,374.49a4.9,4.9,0,0,0-1.86,3.56v.88a4.81,4.81,0,0,0,2.2,3.79l17.15,9.9a4.38,4.38,0,0,0,2.19.52v-5.92a4.58,4.58,0,0,1-2.19-.53l-17.16-9.9C267.06,376.17,267,375.19,267.82,374.49Z" style="opacity:0.30000000000000004"/><path d="M293.21,368.25a.88.88,0,0,1,.44-.12,2.06,2.06,0,0,1,.39.05l9,2.52.2.07a.16.16,0,0,1,.09.14s0,.09-.09.13l-1.34.77a.79.79,0,0,1-.39.12.8.8,0,0,1-.29,0l-1.18-.34-2.82,1.63.59.68a.24.24,0,0,1,.06.17c0,.07-.07.14-.21.22l-1.34.77a.41.41,0,0,1-.23.06.45.45,0,0,1-.24-.06.28.28,0,0,1-.11-.11l-4.38-5.2a.39.39,0,0,1-.08-.22c0-.09.07-.17.21-.25Zm2.92,3.67,1.72-1-3.41-1Z" style="fill:#455a64"/><path d="M300,364.33a6.68,6.68,0,0,1,1.56-.65,7.85,7.85,0,0,1,1.65-.25,6.31,6.31,0,0,1,1.63.15,6,6,0,0,1,1.48.52l.41.23.36.21.35.2.38.23a3,3,0,0,1,.93.86,1.52,1.52,0,0,1,.26.92,1.79,1.79,0,0,1-.42.95,3.89,3.89,0,0,1-1.11.89l-2.86,1.65a.52.52,0,0,1-.29.07.49.49,0,0,1-.28-.07l-6.86-3.95c-.08-.05-.12-.1-.12-.17a.18.18,0,0,1,.12-.16Zm4.31.88a2.63,2.63,0,0,0-2.66.13l-1.08.63,4,2.33,1.13-.66c.89-.51.95-1,.17-1.51l-.41-.25-.38-.22-.37-.21Z" style="fill:#455a64"/><path d="M307.67,359.9a6.68,6.68,0,0,1,1.56-.65,7.84,7.84,0,0,1,1.66-.25,6.74,6.74,0,0,1,1.62.15,5.76,5.76,0,0,1,1.48.52l.42.23.35.21.35.2.39.23a3.08,3.08,0,0,1,.92.86,1.46,1.46,0,0,1,.26.92,1.69,1.69,0,0,1-.41.95,4,4,0,0,1-1.11.89l-2.87,1.65a.51.51,0,0,1-.28.07.52.52,0,0,1-.29-.07l-6.86-3.95a.22.22,0,0,1-.12-.17.19.19,0,0,1,.12-.16Zm4.31.88a2.63,2.63,0,0,0-2.66.13l-1.08.63,4,2.33,1.14-.66c.89-.51.94-1,.17-1.51l-.41-.25c-.13-.07-.26-.14-.38-.22l-.38-.21Z" style="fill:#455a64"/><path d="M319.7,353a.51.51,0,0,1,.28-.07.52.52,0,0,1,.29.07l1.13.65a.18.18,0,0,1,.11.16.19.19,0,0,1-.11.17L319.53,355l5.44,3.14c.08,0,.12.1.12.17a.19.19,0,0,1-.12.16l-1.39.8a.49.49,0,0,1-.28.07.52.52,0,0,1-.29-.07l-5.44-3.14-1.87,1.08a.65.65,0,0,1-.29.07.58.58,0,0,1-.28-.07l-1.13-.65c-.08-.05-.12-.1-.12-.17a.19.19,0,0,1,.12-.16Z" style="fill:#455a64"/><path d="M323.34,354.06a3,3,0,0,1-.86-.8,1.4,1.4,0,0,1-.27-.9,1.83,1.83,0,0,1,.41-.95,4.28,4.28,0,0,1,1.15-.93,6.75,6.75,0,0,1,1.61-.66,7.3,7.3,0,0,1,1.64-.24,6.17,6.17,0,0,1,1.56.16,5.77,5.77,0,0,1,1.38.49l1,.54.91.55a3,3,0,0,1,.86.8,1.4,1.4,0,0,1,.27.9,1.65,1.65,0,0,1-.41,1,3.89,3.89,0,0,1-1.15.92,6.59,6.59,0,0,1-1.61.68,7.2,7.2,0,0,1-1.64.23,6.17,6.17,0,0,1-1.56-.16,5.93,5.93,0,0,1-1.38-.49c-.31-.16-.62-.34-1-.53Zm6.49-1.63-.4-.26-.46-.28-.49-.27-.43-.22a2.54,2.54,0,0,0-.6-.22,2.74,2.74,0,0,0-.64-.08,2.63,2.63,0,0,0-.67.09,2.94,2.94,0,0,0-.67.27,1.49,1.49,0,0,0-.47.39.64.64,0,0,0-.15.39.62.62,0,0,0,.13.37,1.43,1.43,0,0,0,.38.34,3.59,3.59,0,0,0,.38.25c.15.09.3.19.47.28l.48.27a4.83,4.83,0,0,0,.45.23,2.91,2.91,0,0,0,1.25.3,2.46,2.46,0,0,0,1.33-.37c.44-.25.64-.5.62-.76A1,1,0,0,0,329.83,352.43Z" style="fill:#455a64"/><path d="M335.21,347.26l.37.23.5.29.51.3.41.21a2.49,2.49,0,0,0,.56.21,2.59,2.59,0,0,0,.63.1,3.14,3.14,0,0,0,.67-.08,2.48,2.48,0,0,0,.71-.29,1.73,1.73,0,0,0,.5-.39.87.87,0,0,0,.18-.34.47.47,0,0,0,0-.29,1,1,0,0,0-.16-.23.59.59,0,0,1-.12-.21s.06-.11.18-.18l1.39-.8a.55.55,0,0,1,.46,0,1.93,1.93,0,0,1,.76.74,1.29,1.29,0,0,1,.13.88,2.21,2.21,0,0,1-.49.93,4.06,4.06,0,0,1-1.1.87,6.42,6.42,0,0,1-1.59.65,6.7,6.7,0,0,1-1.64.24,6.2,6.2,0,0,1-1.57-.16,5.16,5.16,0,0,1-1.37-.49c-.31-.15-.62-.33-1-.52s-.64-.38-.93-.57a2.74,2.74,0,0,1-.86-.78,1.5,1.5,0,0,1-.26-.91,1.73,1.73,0,0,1,.4-.95,3.83,3.83,0,0,1,1.14-.92,6.51,6.51,0,0,1,1.51-.63,8.3,8.3,0,0,1,1.6-.29,6.44,6.44,0,0,1,1.53.08,3.94,3.94,0,0,1,1.28.43.17.17,0,0,1,.1.14.14.14,0,0,1-.1.13l-1.39.81a.62.62,0,0,1-.31.1,2.36,2.36,0,0,1-.35-.07,2.15,2.15,0,0,0-.4-.09,2,2,0,0,0-.5,0,3.47,3.47,0,0,0-.59.1,3,3,0,0,0-.68.3,1.46,1.46,0,0,0-.5.41.62.62,0,0,0-.14.38.64.64,0,0,0,.16.37A2.37,2.37,0,0,0,335.21,347.26Z" style="fill:#455a64"/><path d="M341.93,340.12a.88.88,0,0,1,.44-.12,2.06,2.06,0,0,1,.39.05l9,2.52.2.07c.07,0,.1.08.1.14s0,.09-.1.13l-1.33.77a.86.86,0,0,1-.4.12,1,1,0,0,1-.28,0l-1.18-.34-2.83,1.63.59.68a.24.24,0,0,1,.06.17c0,.07-.07.14-.21.22l-1.34.78a.55.55,0,0,1-.46,0,.34.34,0,0,1-.12-.12l-4.37-5.2a.33.33,0,0,1-.08-.22c0-.09.06-.17.2-.26Zm2.92,3.67,1.72-1-3.41-1Z" style="fill:#455a64"/><path d="M348.79,336.16a7.85,7.85,0,0,1,1.4-.63,5.87,5.87,0,0,1,1.38-.29,4.78,4.78,0,0,1,1.36.1,4.48,4.48,0,0,1,1.28.5,2.16,2.16,0,0,1,1,1,1,1,0,0,1-.13,1l3.84.7a.37.37,0,0,1,.15.05c.07,0,.1.08.1.14s0,.09-.1.13l-1.44.83a.66.66,0,0,1-.4.12l-.33,0-3.45-.63-1,.56,2.27,1.31c.08,0,.12.1.12.17a.19.19,0,0,1-.12.16l-1.39.8a.51.51,0,0,1-.28.07.52.52,0,0,1-.29-.07l-6.86-3.95a.19.19,0,0,1-.11-.17.2.2,0,0,1,.11-.17Zm2,2.55L352,338a1.33,1.33,0,0,0,.57-.52c.08-.18,0-.36-.32-.53a1.36,1.36,0,0,0-.91-.18,2.48,2.48,0,0,0-.91.32l-1.2.7Z" style="fill:#455a64"/><path d="M358.39,330.62a.64.64,0,0,1,.58,0l1.12.65a.19.19,0,0,1,.12.16c0,.07,0,.12-.12.17l-1.87,1.08,5.45,3.14a.19.19,0,0,1,.11.17.18.18,0,0,1-.11.16l-1.39.81a.73.73,0,0,1-.58,0l-5.44-3.15-1.87,1.08a.61.61,0,0,1-.28.07.62.62,0,0,1-.29-.07l-1.13-.65a.21.21,0,0,1-.11-.17.19.19,0,0,1,.11-.16Z" style="fill:#455a64"/><path d="M280,374c-2.69,1.55-2.69,4.06,0,5.6a10.72,10.72,0,0,0,9.71,0c2.68-1.54,2.68-4.05,0-5.6A10.72,10.72,0,0,0,280,374Zm8,1.83-1.8,1,1.8,1a.36.36,0,0,1,0,.69,1.31,1.31,0,0,1-1.19,0l-1.81-1-1.8,1a1.31,1.31,0,0,1-1.19,0,.36.36,0,0,1,0-.69l1.8-1-1.8-1a.36.36,0,0,1,0-.69,1.31,1.31,0,0,1,1.19,0l1.8,1,1.81-1a1.31,1.31,0,0,1,1.19,0A.36.36,0,0,1,287.92,375.86Z" style="fill:#455a64"/></g></g></g><g id="freepik--Cart--inject-109"><g id="freepik--cart--inject-109"><path d="M298.2,308.63a14.86,14.86,0,0,0-6.66-11.7c-1.94-1.14-3.69-1.19-4.93-.38h0l-4.55,2.56,9.55,16.47,4.51-2.56h0C297.38,312.33,298.18,310.82,298.2,308.63Z" style="fill:#37474f"/><path d="M286.81,299.61a14.91,14.91,0,0,1,6.66,11.7c0,4.3-3.06,6-6.76,3.85a14.91,14.91,0,0,1-6.66-11.7C280.08,299.16,283.11,297.44,286.81,299.61Z" style="fill:#455a64"/><path d="M284.49,306.06c0-1.68,1-2.45,2.29-1.71a5.43,5.43,0,0,1,2.25,4.37c0,1.68-1,2.44-2.29,1.71A5.48,5.48,0,0,1,284.49,306.06Z" style="fill:#263238"/><path d="M293.47,311.31a12.35,12.35,0,0,0-.92-4.5L281,300.1a5.78,5.78,0,0,0-.94,3.36c0,.05,0,.1,0,.16l13.4,7.78S293.47,311.34,293.47,311.31Z" style="opacity:0.15"/><path d="M250.32,345.22a14.41,14.41,0,0,1-7.12-1.28l-63-36.31c-3.81-1.92-8.09-6.9-8.36-11.62l-1.93-44.91,3.51-.2,1.94,44.92c.18,3.2,3.53,7.22,6.41,8.66l63.05,36.32a12.11,12.11,0,0,0,10.58-.61l42-24.22c1-.66,1.59-1.45,1.55-2.12s-.67-1.33-1.74-1.87L229.72,272.8c-3.8-1.91-8.06-6.9-8.33-11.62l-.94-24.91,3.51-.19.94,24.9c.18,3.22,3.53,7.23,6.4,8.67l67.49,39.19c2.25,1.13,3.55,2.84,3.67,4.81s-1,3.88-3.13,5.26l-42,24.22A14.57,14.57,0,0,1,250.32,345.22Z" style="fill:#455a64"/><path d="M239,344.21a14.86,14.86,0,0,0-6.66-11.7c-1.94-1.14-3.69-1.2-4.92-.38h0l-4.56,2.56,9.55,16.47,4.51-2.56v0C238.16,347.91,239,346.4,239,344.21Z" style="fill:#37474f"/><path d="M227.59,335.19a14.86,14.86,0,0,1,6.66,11.71c0,4.29-3.05,6-6.76,3.84a14.88,14.88,0,0,1-6.65-11.7C220.87,334.75,223.89,333,227.59,335.19Z" style="fill:#455a64"/><path d="M225.27,341.64c0-1.68,1-2.45,2.29-1.71a5.41,5.41,0,0,1,2.25,4.37c0,1.67-1,2.44-2.28,1.7A5.44,5.44,0,0,1,225.27,341.64Z" style="fill:#263238"/><path d="M192.42,317.36a14.86,14.86,0,0,0-6.63-11.71c-1.95-1.14-3.69-1.2-4.93-.39h0l-4.56,2.55,9.52,16.49,4.52-2.56h0C191.6,321.06,192.4,319.55,192.42,317.36Z" style="fill:#37474f"/><path d="M181.05,308.33A14.88,14.88,0,0,1,187.69,320c0,4.29-3.07,6-6.77,3.83a14.86,14.86,0,0,1-6.63-11.71C174.32,307.86,177.35,306.15,181.05,308.33Z" style="fill:#455a64"/><path d="M178.72,314.76c0-1.67,1-2.44,2.29-1.7a5.45,5.45,0,0,1,2.25,4.37c0,1.68-1,2.44-2.3,1.71A5.49,5.49,0,0,1,178.72,314.76Z" style="fill:#263238"/><path d="M162.38,196.68a11.71,11.71,0,0,1,4.49-12.46l41.91-23.69c3.81-2.5,8-.76,9.32,3.59l2.91,9.43-2.88,1.68L215,165.7a3.17,3.17,0,0,0-5-1.75L169.19,187a7.69,7.69,0,0,0-2.93,8l2.46,9.05-3.43,2Z" style="fill:#455a64"/><polygon points="227.18 242.12 170.88 274.63 253.16 322.13 309.46 289.62 227.18 242.12" style="fill:#8E54E9"/><polygon points="227.18 242.12 170.88 274.63 253.16 322.13 309.46 289.62 227.18 242.12" style="opacity:0.5"/><polygon points="165.29 206.11 221.01 173.56 227.18 242.12 170.88 274.63 165.29 206.11" style="fill:#8E54E9"/><polygon points="165.29 206.11 221.01 173.56 227.18 242.12 170.88 274.63 165.29 206.11" style="opacity:0.35000000000000003"/><path d="M221,173.56l6.17,68.56,82.28,47.5,13-57.51Zm28.77,65.92a4.73,4.73,0,0,1-5.9-3.06l-13.6-35.29A4.44,4.44,0,1,1,238.5,198l13.6,35.29A4.72,4.72,0,0,1,249.78,239.48Zm25.69,12.08a4.71,4.71,0,0,1-5.9-3.05L256,213.22a4.44,4.44,0,1,1,8.22-3.17l13.6,35.29A4.71,4.71,0,0,1,275.47,251.56Zm25.69,12.09a4.71,4.71,0,0,1-5.9-3l-13.59-35.29a4.43,4.43,0,1,1,8.21-3.17l13.6,35.29A4.71,4.71,0,0,1,301.16,263.65Z" style="fill:#8E54E9"/><path d="M221,173.56l6.17,68.56,82.28,47.5,13-57.51Zm28.77,65.92a4.73,4.73,0,0,1-5.9-3.06l-13.6-35.29A4.44,4.44,0,1,1,238.5,198l13.6,35.29A4.72,4.72,0,0,1,249.78,239.48Zm25.69,12.08a4.71,4.71,0,0,1-5.9-3.05L256,213.22a4.44,4.44,0,1,1,8.22-3.17l13.6,35.29A4.71,4.71,0,0,1,275.47,251.56Zm25.69,12.09a4.71,4.71,0,0,1-5.9-3l-13.59-35.29a4.43,4.43,0,1,1,8.21-3.17l13.6,35.29A4.71,4.71,0,0,1,301.16,263.65Z" style="opacity:0.23"/><path d="M165.29,206.11l5.59,68.52,82.28,47.5,13-57.5Zm32.48,67.45a4.73,4.73,0,0,1-5.9-3.06l-13.59-35.29a4.43,4.43,0,1,1,8.21-3.16l13.6,35.28A4.72,4.72,0,0,1,197.77,273.56Zm25.69,12.08a4.71,4.71,0,0,1-5.9-3.05L204,247.3a4.44,4.44,0,1,1,8.22-3.17l13.59,35.29A4.71,4.71,0,0,1,223.46,285.64Zm25.69,12.09a4.7,4.7,0,0,1-5.89-3.05l-13.6-35.29a4.44,4.44,0,1,1,8.22-3.17l13.59,35.29A4.71,4.71,0,0,1,249.15,297.73Z" style="fill:#8E54E9"/><g style="opacity:0.15"><path d="M165.29,206.11l5.59,68.52,82.28,47.5,13-57.5Zm32.48,67.45a4.73,4.73,0,0,1-5.9-3.06l-13.59-35.29a4.43,4.43,0,1,1,8.21-3.16l13.6,35.28A4.72,4.72,0,0,1,197.77,273.56Zm25.69,12.08a4.71,4.71,0,0,1-5.9-3.05L204,247.3a4.44,4.44,0,1,1,8.22-3.17l13.59,35.29A4.71,4.71,0,0,1,223.46,285.64Zm25.69,12.09a4.7,4.7,0,0,1-5.89-3.05l-13.6-35.29a4.44,4.44,0,1,1,8.22-3.17l13.59,35.29A4.71,4.71,0,0,1,249.15,297.73Z"/></g><polygon points="266.15 264.63 322.45 232.12 309.46 289.63 253.16 322.13 266.15 264.63" style="fill:#8E54E9"/><polygon points="266.15 264.63 322.45 232.12 309.46 289.63 253.16 322.13 266.15 264.63" style="opacity:0.4"/></g></g><g id="freepik--Arrow--inject-109"><g id="freepik--arrow--inject-109"><polygon points="286.43 140.48 279.93 144.29 279.95 124.6 276.01 122.33 258.17 132.63 258.14 156.92 247.74 162.81 271.02 177.91 290.37 142.75 286.43 140.48" style="fill:#37474f"/><polygon points="262.11 134.9 262.08 159.19 251.68 165.09 271.02 177.91 290.37 142.75 279.92 148.89 279.95 124.6 262.11 134.9" style="fill:#455a64"/><polygon points="258.17 132.63 262.11 134.9 262.08 159.19 258.14 156.92 258.17 132.63" style="fill:#263238"/></g></g><g id="freepik--Bag--inject-109"><g id="freepik--bag--inject-109"><polygon points="177.57 155.77 233.95 123.22 229.25 55.4 177.57 85.24 177.57 155.77" style="fill:#8E54E9"/><polygon points="177.57 155.77 233.95 123.22 229.25 55.4 177.57 85.24 177.57 155.77" style="fill:#fff;opacity:0.6000000000000001"/><polygon points="177.57 85.24 177.57 79.81 163.47 77.1 215.15 47.26 219.85 55.4 229.25 55.4 177.57 85.24" style="fill:#8E54E9"/><polygon points="177.57 85.24 177.57 79.81 163.47 77.1 215.15 47.26 219.85 55.4 229.25 55.4 177.57 85.24" style="fill:#fff;opacity:0.30000000000000004"/><polygon points="215.15 47.26 215.15 63.54 219.85 60.83 219.85 55.4 215.15 47.26" style="fill:#8E54E9"/><polygon points="215.15 47.26 215.15 63.54 219.85 60.83 219.85 55.4 215.15 47.26" style="opacity:0.1"/><polygon points="229.25 55.4 219.85 55.4 219.85 60.83 229.25 55.4" style="fill:#8E54E9"/><polygon points="229.25 55.4 219.85 55.4 219.85 60.83 229.25 55.4" style="opacity:0.2"/><polygon points="163.47 77.1 158.77 144.92 177.57 155.77 177.57 85.24 177.57 79.81 163.47 77.1" style="fill:#8E54E9"/><polygon points="163.47 77.1 158.77 144.92 177.57 155.77 177.57 85.24 177.57 79.81 163.47 77.1" style="opacity:0.1"/><polygon points="177.57 79.81 168.17 150.34 177.57 155.77 177.57 79.81" style="fill:#8E54E9"/><polygon points="177.57 79.81 168.17 150.34 177.57 155.77 177.57 79.81" style="opacity:0.2"/><polygon points="177.57 155.77 168.95 144.46 158.77 144.92 177.57 155.77" style="fill:#8E54E9"/><path d="M178.71,76.38c0,.92.64,1.3,1.44.84a3.22,3.22,0,0,0,1.45-2.51c0-.92-.65-1.3-1.45-.84A3.21,3.21,0,0,0,178.71,76.38Z" style="fill:#37474f"/><path d="M197.94,65.53c0,.92.65,1.3,1.45.83a3.19,3.19,0,0,0,1.45-2.5c0-.92-.65-1.3-1.45-.84A3.21,3.21,0,0,0,197.94,65.53Z" style="fill:#37474f"/><path d="M180.15,75.33a.49.49,0,0,1-.48-.48V63c0-5.17,4.42-11.92,9.86-15.06,3-1.75,5.9-2.09,7.89-.94,1.59.91,2.46,2.69,2.46,5V64a.49.49,0,0,1-.49.48.48.48,0,0,1-.48-.48V52c0-2-.69-3.44-2-4.18-1.68-1-4.21-.63-6.92.94-5.17,3-9.38,9.36-9.38,14.22V74.85A.49.49,0,0,1,180.15,75.33Z" style="fill:#37474f"/><path d="M193,84.52c0,.92.65,1.29,1.45.83a3.19,3.19,0,0,0,1.45-2.5c0-.92-.65-1.3-1.45-.84A3.21,3.21,0,0,0,193,84.52Z" style="fill:#455a64"/><path d="M212.26,73.67c0,.92.65,1.29,1.45.83a3.19,3.19,0,0,0,1.45-2.5c0-.93-.65-1.3-1.45-.84A3.19,3.19,0,0,0,212.26,73.67Z" style="fill:#455a64"/><path d="M194.47,83.47A.48.48,0,0,1,194,83V71.13c0-5.16,4.42-11.91,9.86-15,3-1.75,5.9-2.09,7.89-.94,1.58.91,2.45,2.69,2.45,5v12a.48.48,0,0,1-.48.49.49.49,0,0,1-.49-.49v-12c0-2-.68-3.43-2-4.17-1.68-1-4.2-.63-6.92.94-5.17,3-9.37,9.36-9.37,14.21V83A.49.49,0,0,1,194.47,83.47Z" style="fill:#455a64"/></g></g></svg>