<svg width="80" height="80" viewBox="0 0 80 80" fill="none" xmlns="http://www.w3.org/2000/svg">
<mask id="mask0_897_4244" style="mask-type:alpha" maskUnits="userSpaceOnUse" x="0" y="0" width="80" height="80">
<path d="M3.16551 20.534C5.83214 11.837 12.7388 5.07857 21.5131 2.58025C33.596 -0.860084 46.404 -0.860084 58.4869 2.58025C67.2612 5.07857 74.1679 11.837 76.8345 20.534L77.0696 21.3009C80.8058 33.4863 80.9727 46.4815 77.5507 58.7582C75.0299 67.8021 67.9387 74.8688 58.8635 77.381L58.4619 77.4922C46.3827 80.8359 33.6173 80.8359 21.5381 77.4922L21.1365 77.381C12.0613 74.8688 4.97014 67.8021 2.44925 58.7582C-0.972729 46.4815 -0.805813 33.4863 2.93037 21.3009L3.16551 20.534Z" fill="#E4E9ED"/>
</mask>
<g mask="url(#mask0_897_4244)">
<path d="M3.16551 20.534C5.83214 11.837 12.7388 5.07857 21.5131 2.58025C33.596 -0.860084 46.404 -0.860084 58.4869 2.58025C67.2612 5.07857 74.1679 11.837 76.8345 20.534L77.0696 21.3009C80.8058 33.4863 80.9727 46.4815 77.5507 58.7582C75.0299 67.8021 67.9387 74.8688 58.8635 77.381L58.4619 77.4922C46.3827 80.8359 33.6173 80.8359 21.5381 77.4922L21.1365 77.381C12.0613 74.8688 4.97014 67.8021 2.44925 58.7582C-0.972729 46.4815 -0.805813 33.4863 2.93037 21.3009L3.16551 20.534Z" fill="#E4E9ED"/>
<path d="M20 57.6667C16.6667 61 13.6667 64.3333 12 72.3333L11.5 74L25.5 79.3333L35 80.5H44.5L56.5 78.5L63 76.5L71.5 72L70.6667 70L66.3333 63L61 56.6667L55 53.3333L55.3333 52.3333L54.6667 51.3333L27.6667 51L27.3333 51.6667L25.3333 51.3333L21.6667 52.6667C20.6667 54 19.3333 55.6667 20 57.6667Z" fill="#FFFEFB"/>
<path d="M34.4016 54.629C32.5916 53.5873 30.7298 52.6342 29.2006 51.1788L29.1932 51.1862C28.905 51.9102 28.351 51.6369 27.8412 51.5408L28.4618 52.1245C29.0011 52.3461 29.4665 52.686 29.9172 53.0554C30.9441 53.8902 32.0597 54.5847 33.323 55.0131C33.5372 55.0501 34.4451 55.3629 34.6667 55.3333C34.8957 55.2668 34.3277 54.8432 34.4016 54.629Z" fill="#141414"/>
<path d="M25.7356 51.1197C26.1568 51.9841 25.3589 52.2131 24.9304 52.6047C24.0364 53.4321 21.8866 53.6759 20.8966 53.0923C20.9335 53.011 20.9926 52.9445 21.0591 52.8854C21.4654 52.5973 21.2512 52.2058 21.2069 51.8585C21.1625 51.4891 21.0222 51.1345 21.0813 50.7577C21.1108 50.4844 21.2881 50.2701 21.3842 50.0263C21.3177 48.7852 20.6971 47.7582 20.1578 46.6944C20.0765 46.5319 19.9879 46.3767 19.8844 46.2363C19.419 45.7487 19.2195 45.1208 18.9462 44.5297C18.2443 43.0669 17.6385 41.582 17.5573 39.9271C17.8084 39.1661 17.3947 38.3239 17.8084 37.5777C18.0301 37.4004 18.3182 37.3709 18.5546 37.2231C18.8354 37.0236 19.1161 36.4843 19.4338 37.1862C19.4559 37.2748 19.4707 37.3561 19.4707 37.4448C19.419 37.7033 19.5077 37.9545 19.5003 38.2131C19.4855 38.5529 19.3156 38.6785 18.9905 38.5234C18.8354 38.4643 18.7024 38.5012 18.5842 38.6047C18.466 38.7303 18.4512 38.8854 18.429 39.0405C18.429 39.0701 18.429 39.107 18.429 39.1366C18.4438 39.2474 18.4734 39.2548 18.5177 39.144C18.7024 38.9888 18.9092 38.9814 19.1235 39.0405C20.0765 39.7646 20.2095 40.3777 19.6185 41.316C19.4929 41.4933 19.1604 41.6632 19.4264 41.8923C19.5815 42.0252 19.685 41.715 19.7958 41.5894C19.8771 41.4785 19.9731 41.4047 20.1061 41.3825C20.4533 41.5672 20.505 41.9514 20.6602 42.2617C20.6823 42.5646 20.4829 42.7493 20.2908 42.934C20.1873 43.1039 19.877 43.2295 20.0396 43.4585C20.1504 43.621 20.3794 43.4216 20.5567 43.4068C20.7488 43.3772 20.9335 43.3772 21.1182 43.4437C21.2586 43.5028 21.3546 43.6063 21.4063 43.7466C21.4433 43.9461 21.4063 44.116 21.2438 44.249C21.1256 44.345 20.9852 44.4263 20.8818 44.5519C20.8449 44.5962 20.8153 44.6184 20.8227 44.6258C20.9187 44.744 20.9261 44.5741 20.9852 44.5667C21.4063 44.1234 21.8053 44.3672 22.1968 44.611C22.3889 44.7588 22.5145 44.9582 22.618 45.1799C23.0834 46.3398 23.6966 47.448 23.6892 48.7482C23.6892 49.1989 24.0586 49.3688 24.3984 49.5683C25.0042 49.9229 25.5805 50.3366 25.7356 51.0902V51.1197Z" fill="#141414"/>
<path d="M27.8475 51.5335C27.5594 51.1198 26.9684 50.381 26.6729 49.982C25.9193 49.0438 25.2913 48.0169 24.9663 46.8348C24.9441 46.687 24.9515 46.5393 24.9663 46.3989C25.1731 45.7857 24.9441 45.1799 24.848 44.5889C24.6634 43.4511 24.4713 42.3134 24.3013 41.1683C24.2644 40.9393 24.1979 40.7176 24.0723 40.5403C22.7203 38.6564 23.1488 36.6395 23.6069 34.6152C23.8728 33.4405 24.5082 32.5097 25.5056 31.83C26.237 31.3498 26.3847 30.6479 26.2739 29.8427C26.2148 29.6432 26.0744 29.4733 26.0449 29.259C26.0818 28.7492 26.732 28.8305 26.8576 28.4094C26.9462 28.2025 27.0349 27.9957 27.1309 27.7888C27.2861 27.3751 27.4338 26.9614 27.8623 26.7323C28.3056 26.4959 28.5863 26.5477 28.6159 27.1165C28.2686 28.5572 27.6333 29.9091 27.1826 31.3128C26.0671 34.763 25.5351 38.3166 25.4169 41.9292C25.4169 42.2691 25.3726 42.6089 25.4834 42.9414C25.513 43.03 25.5277 43.1261 25.5425 43.2221C25.6016 43.6358 25.5351 44.0569 25.6607 44.4633C25.6903 44.5519 25.7124 44.6406 25.7272 44.7366C25.7863 45.5198 25.971 46.2807 26.2591 47.0121C26.8206 48.7039 27.9731 49.9599 29.2734 51.105C29.1256 51.9029 28.953 52.0066 28 51.6667C27.9778 51.6224 27.8475 51.5335 27.8475 51.5335Z" fill="#141414"/>
<path d="M18.783 28.9634L18.4284 29.3402L18.421 29.355C17.7117 30.2858 16.8843 31.1576 16.7956 32.4209C16.4927 32.9824 16.7883 33.47 17.0173 33.9576C17.1288 35.6026 17.2338 37.2542 17.3383 38.9L17.3571 39.1956L17.6009 39.5724C17.4901 39.7867 17.4753 39.964 17.793 39.9788C18.1107 39.2178 17.5123 38.3534 18.0516 37.6146C18.2437 37.3782 18.4431 37.1418 18.7682 37.4447C18.9751 37.4078 18.9677 36.7355 19.3519 37.2526C19.8542 36.6025 19.4774 35.8194 19.6695 35.1249C19.7286 34.3122 20.593 34.0315 20.8442 33.3075C21.2875 32.022 22.1223 31.0246 23.4374 30.5149C23.888 30.3302 24.3017 30.0864 24.745 29.8943C25.0184 29.7539 25.3139 29.7539 25.602 29.6948C25.6833 29.6653 25.7645 29.6357 25.8384 29.5988C25.9492 29.5323 26.0527 29.451 26.1118 29.3328C26.2004 28.7861 27.0353 29.1777 27.0722 28.5645C26.6437 28.3871 26.2743 28.5866 25.8975 28.7492C25.6316 28.9191 25.3213 28.9191 25.0257 28.9782C24.9445 28.993 24.8558 29.0225 24.7746 29.0521C23.9914 29.2663 23.2748 29.6726 22.5139 29.9386C21.8859 30.1676 21.4426 30.6331 21.0363 31.1355C20.6965 31.5566 20.3935 32.0146 20.098 32.4727C19.7656 32.9824 18.9972 33.0489 18.3102 32.6426C17.6896 32.2806 17.9999 31.8225 18.2289 31.4014C18.65 30.6257 19.2484 30.0125 19.9503 29.4806C21.8342 28.0399 24.021 27.6779 26.3039 27.641C26.688 27.6336 26.9835 27.7961 27.2864 27.9808C27.5081 27.8331 27.4194 27.5671 27.5081 27.375C27.6854 26.9835 28.0696 26.8505 28.4316 27.0204C29.0965 26.8505 29.0448 26.193 29.2664 25.7423C30.4558 23.3486 32.1403 21.509 34.7408 20.6225C35.2506 20.4452 35.4944 20.4821 35.6052 21.0731C35.6643 21.4204 35.5683 21.9671 36.1888 22.004C36.573 21.642 36.0041 20.9106 36.7134 20.6816C36.8833 20.2679 37.164 20.0315 37.6295 19.9576C38.9298 19.7655 40.23 19.7359 41.5377 19.7655C42.173 19.7803 42.439 20.0906 42.4464 20.7185C42.4612 21.3169 42.3577 21.9228 42.4612 22.5286C43.0891 22.8536 43.0817 22.3291 43.1261 21.9892C43.2073 21.3243 43.2147 20.6446 43.163 19.9797C43.1261 19.5069 43.4511 19.6621 43.6063 19.5882C43.2221 19.832 43.2073 20.1866 43.3994 20.5929C44.1984 20.0285 44.9902 20.3514 45.7458 20.6596L45.7635 20.6668C49.7308 22.2848 52.782 25.0774 55.486 28.3133L57 47.3333L51 54C50.9704 53.8079 47.2414 55.449 46.9385 55.5672C46.6709 55.6825 46.4403 55.7002 46.0224 55.7814C45.6045 55.8627 45.2688 55.8627 44.796 55.9587C41.2425 56.2616 37.7849 55.774 34.4161 54.6363C34.2905 54.7619 34.1353 55.0426 34.0097 55.1682C36 56.6666 45.3333 58.6666 51.3333 54.6666C54.8085 52.3498 57 50 58 47.3333C58.5659 45.8477 59.243 43.6305 59.6 41.9858C59.6436 41.7847 59.7779 41.6175 59.9469 41.5002C63.4017 39.1037 61.0833 27.0031 57.1339 27.8423C56.8479 27.9031 56.5337 27.852 56.3347 27.6379C55.498 26.7376 54.0718 25.2718 53.41 24.5972C52.0876 23.2452 50.5952 22.1148 49.0438 21.051C48.6818 20.9328 48.3715 20.7333 48.1203 20.4452C45.4385 19.1449 42.6237 18.4874 39.6316 18.709C38.058 18.8198 36.477 18.9085 34.9698 19.4478C34.63 19.5365 34.268 19.5808 33.9503 19.7285C31.3646 20.9402 29.3477 22.7354 28.269 25.4468C27.9957 26.1412 27.7371 26.7175 26.7988 26.6362C23.8363 26.3776 21.1323 27.0721 18.783 28.9634Z" fill="#141414"/>
<path d="M19.3511 37.2379C19.4471 36.4622 19.1516 35.6569 19.5358 34.9108C19.5875 34.9329 19.6318 34.9477 19.6835 34.9699C19.9643 35.1989 20.0308 35.5313 19.9717 35.8416C19.654 37.6369 20.2302 39.2992 20.6809 40.9836C20.9321 41.5746 21.1463 42.1804 21.4197 42.7641C21.5674 43.0818 21.7448 43.4068 21.5527 43.7688C21.4788 43.8575 21.3901 43.8649 21.2941 43.7984C21.2276 43.7319 21.1685 43.6728 21.102 43.6063C20.6292 43.2738 20.7105 42.7124 20.5258 42.2543C20.4002 41.9958 20.2672 41.7372 20.1416 41.4786C19.7796 40.1488 19.2994 38.8411 19.3659 37.4226C19.3659 37.3562 19.3659 37.2971 19.3659 37.2306L19.3511 37.2379Z" fill="#141414"/>
<path d="M19.351 37.4299C19.6096 38.7819 19.8682 40.1339 20.1268 41.4859C20.0529 41.5672 19.979 41.6484 19.9125 41.7297C19.5948 41.7075 19.4323 41.5154 19.3584 41.2273C19.9938 40.5181 19.8608 39.8753 18.9225 39.1439C18.7009 38.841 18.7378 38.5381 18.9078 38.2352C18.9964 38.0505 19.4101 38.8632 19.2993 38.117C19.2624 37.8732 19.0703 37.6368 19.3584 37.4299H19.351Z" fill="#141414"/>
<path d="M24.3005 50.7725C23.8794 51.3044 23.2736 51.3635 22.7121 51.5187C22.4462 51.5925 22.1876 51.3783 22.0989 51.1788C21.9438 50.839 22.3427 50.8242 22.5201 50.6838C23.1259 50.2036 23.68 50.9203 24.3005 50.7725Z" fill="#FFFEFB"/>
<path d="M19.3517 41.2273C19.7654 41.1386 19.6989 41.5893 19.9058 41.7296C19.9206 42.1064 19.6694 42.2985 19.3739 42.4241C19.2261 42.4906 19.1966 42.3207 19.1301 42.2172C18.8715 41.8109 19.0414 41.508 19.3443 41.2273H19.3517Z" fill="#FFFEFB"/>
<path d="M20.4747 43.5988C20.2088 43.6136 20.1275 44.3154 19.7581 43.8352C19.3961 43.3698 19.8542 43.1112 20.1275 42.8304C20.6668 42.8969 20.7777 43.1555 20.4747 43.5988Z" fill="#FFFEFB"/>
<path d="M20.4755 43.5989C20.5568 43.2517 20.4312 43.0005 20.1283 42.8306C20.2465 42.6385 20.542 42.5572 20.5125 42.2617C20.904 42.6237 20.9557 43.1409 21.0887 43.6137C20.8819 43.6137 20.675 43.6063 20.4755 43.5989Z" fill="#141414"/>
<path d="M21.0734 51.3413C21.162 51.1419 21.0512 50.8833 21.2728 50.7281C21.3615 51.2822 21.4132 51.8511 21.5536 52.3978C21.6792 52.8854 21.5019 53.0479 21.0586 53.0627C21.0808 53.011 21.0955 52.9593 21.0955 52.9002C21.6866 52.3756 21.1694 51.8585 21.0734 51.3413Z" fill="#141414"/>
<path d="M21.2877 43.8057C21.3689 43.7983 21.4502 43.7909 21.5315 43.7835C21.6127 43.754 21.6866 43.7614 21.7531 43.8131C21.8639 43.9313 21.96 44.0643 22.0486 44.2046C22.1447 44.3893 22.2629 44.574 22.0634 44.7735C21.7383 44.6331 21.4206 44.3228 21.103 44.7735C20.933 44.6036 20.933 44.4115 21.0586 44.212C21.236 44.1307 21.2877 43.983 21.2951 43.8057H21.2877Z" fill="#141414"/>
<path d="M21.0504 44.212C21.0651 44.3967 21.0799 44.5814 21.0947 44.7735C20.8361 44.8548 20.8509 45.3276 20.4741 45.2168C20.4076 45.1946 20.3116 45.0543 20.3264 44.9952C20.4224 44.611 20.6366 44.3155 21.0504 44.212Z" fill="#FFFEFB"/>
<path d="M18.9016 38.2427C18.9976 38.5456 19.1084 38.8411 18.9163 39.1514C18.7464 39.2105 18.5839 39.2622 18.414 39.3213C18.1997 38.9741 18.244 38.6638 18.5617 38.4052C18.6134 38.2205 18.7686 38.2501 18.909 38.2427H18.9016Z" fill="#FFFEFB"/>
<path d="M18.0503 37.5999C17.9838 37.2601 18.0059 36.9719 18.4418 36.935C18.8408 36.9054 18.7964 37.1714 18.7669 37.43C18.5305 37.5039 18.3236 37.696 18.0503 37.5999Z" fill="#FFFEFB"/>
<path d="M21.1995 46.5171C20.9483 45.9926 21.2142 45.734 21.5836 45.4755C21.8274 45.9926 21.5762 46.2438 21.1995 46.5171Z" fill="#FFFEFB"/>
<path d="M19.337 40.1857C19.2262 40.4073 19.0858 40.6216 18.8124 40.6437C18.6795 40.6511 18.5908 40.5034 18.6425 40.3704C18.7238 40.1561 18.8789 39.9788 19.1153 39.9345C19.2557 39.905 19.337 40.0306 19.3444 40.1857H19.337Z" fill="#FFFEFB"/>
<path d="M23.6001 52.3017C23.3785 52.612 23.0904 52.5972 22.6914 52.4716C22.9795 52.1761 23.2677 52.1096 23.6075 52.1613C23.674 52.1983 23.6962 52.2278 23.6666 52.2574C23.6444 52.2869 23.6223 52.3017 23.6001 52.3017Z" fill="#FFFEFB"/>
<path d="M18.5537 38.3977C18.4651 38.7006 18.1695 38.9666 18.4059 39.3138C18.0513 39.0183 18.103 38.7302 18.5537 38.3977Z" fill="#141414"/>
<path d="M23.599 52.3018C23.6138 52.2574 23.6138 52.2057 23.599 52.1614C23.7615 52.0801 23.9167 51.9693 24.094 51.9176C24.1974 51.888 24.323 51.9398 24.5003 51.9619C24.2048 52.2279 23.9315 52.3461 23.599 52.3092V52.3018Z" fill="#FFFEFB"/>
<path d="M22.5731 49.7603C22.2555 49.5756 22.2998 49.3614 22.4697 49.088C22.8022 49.2727 22.6544 49.5091 22.5731 49.7603Z" fill="#FFFEFB"/>
<path d="M28.4316 27.0056C29.2516 24.9149 30.4115 23.0827 32.2068 21.6642C33.0638 20.9919 34.0021 20.5708 35.0216 20.2457C35.5166 20.0906 35.716 20.1792 35.7899 20.7112C35.849 21.147 35.886 21.6051 36.1519 21.9893C36.7282 22.9349 36.6248 23.2969 35.6422 23.6146C34.9108 23.851 34.172 24.0727 33.5145 24.4864C32.9234 24.8632 32.458 25.3138 32.2659 26.0083C32.1994 26.2521 32.1403 26.5328 31.9408 26.6954C31.1503 27.3455 30.5815 28.0326 30.9804 29.1629C31.0912 29.4658 30.7514 29.7392 30.515 29.9534C30.1825 30.2563 29.791 30.4927 29.5028 30.8399C27.3086 33.5513 26.1857 36.6395 26.3925 40.1191C26.5181 42.2247 27.3308 44.1751 28.0253 46.1477C29.8648 51.3783 33.9873 53.506 39.0849 54.3334C42.2617 54.8432 45.2095 54.1635 48.0169 52.6933C50.1446 51.5334 52.0876 50.1519 53.7573 48.364C55.3309 46.6796 56.3135 44.7366 56.7272 42.5202C57.2074 39.8975 57.4512 37.26 57.1483 34.5782C56.8158 31.6674 55.5599 29.3845 52.9742 27.9217C52.2649 27.5154 51.7625 27.0278 51.6591 26.156C51.5852 25.5355 51.0829 25.2547 50.4918 25.1956C50.0633 25.1587 49.6718 25.0774 49.391 24.708C48.8148 23.9471 48.0021 23.5924 47.1008 23.3856C46.2586 23.1935 45.4163 22.9792 44.5593 22.8389C43.2369 22.6172 42.9118 21.9449 43.5177 20.6668C43.5546 19.8985 43.8649 19.7877 44.6111 20.0019C47.4628 20.8146 49.8269 22.403 51.9916 24.3608C53.6021 25.8236 55.2718 27.2347 56.4391 29.1112C57.4907 30.8018 57.9757 31.394 58.3525 32.6943C59.4755 36.4917 59.276 40.3038 58.1974 44.0864C57.924 45.0395 57.5325 45.963 57.2517 46.916C55.9736 49.8268 53.9641 52.1171 51.2897 53.8237C49.9894 54.7841 48.5045 55.3234 46.9678 55.7445C46.628 55.8258 46.2955 55.9144 45.9557 55.9883C45.5419 56.0326 45.1282 56.04 44.7219 56.173C41.22 56.535 37.8216 56.0548 34.5044 54.9392C33.2559 54.0601 31.7709 53.5799 30.5741 52.6047C30.0495 52.1762 29.5324 51.7772 29.2073 51.1714C27.7519 50.1297 26.7102 48.7851 26.1413 47.0859C25.8532 46.2659 25.6685 45.4163 25.5651 44.5445V44.5593C25.2696 44.1382 25.602 43.6136 25.3582 43.1851C25.3952 43.126 25.3878 43.0669 25.3287 43.0226C25.1514 42.7049 25.3508 42.3281 25.1735 42.003C25.0701 39.2178 25.6907 36.5212 26.1635 33.8099C26.5477 31.6305 27.5303 29.6136 28.2691 27.5302C28.3355 27.3529 28.3799 27.1682 28.4316 26.9835V27.0056Z" fill="#FFFEFB"/>
<path d="M22.5801 30.0717C21.5014 30.6479 20.8587 31.6157 20.2676 32.6353C19.8761 33.3076 19.0634 33.3741 18.007 32.82C17.246 32.4136 17.6893 31.8743 17.9331 31.4384C19.2038 29.1777 21.2724 28.0769 23.7326 27.6115C24.7373 27.4194 25.7642 27.3973 26.7985 27.412C27.2344 27.412 27.3748 27.5672 27.2861 27.9735C27.1458 28.1434 27.0645 28.3281 27.0719 28.5572C26.7542 28.897 26.2666 28.7123 25.912 28.9339C25.6165 29.163 25.2249 28.9118 24.922 29.1112H24.9368C24.1093 29.3329 23.3188 29.6506 22.5727 30.0717H22.5801Z" fill="#FFFEFB"/>
<path d="M24.1906 34.9181C24.3236 34.1054 24.693 33.4183 25.3505 32.879C25.055 34.8738 25.0476 36.9054 24.3901 38.8337C24.2645 38.8632 24.161 38.8263 24.0872 38.7155C23.8951 37.792 23.9985 36.8611 24.0872 35.9376C24.1315 35.5978 23.9911 35.2431 24.1906 34.9181Z" fill="#FFFEFB"/>
<path d="M24.1974 38.7597C23.695 37.9692 24.1161 37.0974 23.9757 36.2774C23.9905 36.1665 24.0053 36.0557 24.0127 35.9449C24.0201 35.8636 24.0644 35.8267 24.1457 35.8489C24.1604 36.8167 24.1752 37.7919 24.19 38.7597H24.1974Z" fill="#FFFEFB"/>
<path d="M26.497 29.7095C26.2385 29.643 25.9799 29.5839 25.7213 29.5174C25.8026 29.3623 25.9503 29.3327 26.1055 29.3253C26.2902 29.3992 26.4158 29.5248 26.4897 29.7095H26.497Z" fill="#141414"/>
<path d="M29.3919 30.6774C29.5914 30.4779 29.7687 30.2563 29.9829 30.0716C30.4779 29.6505 31.0099 29.355 30.5888 28.4684C30.2859 27.8404 30.8104 27.2716 31.3719 26.88C31.5713 26.7396 31.8964 26.7396 31.9334 26.422C32.1919 24.5233 33.6843 23.9249 35.1988 23.4964C36.1149 23.2452 36.5212 22.9275 36.1444 21.9892C36.2774 21.4425 35.908 20.918 35.9967 20.3713C36.4252 20.3122 36.2922 20.7776 36.5582 20.8146C36.9423 20.8589 36.9423 21.1913 37.031 21.4499C37.4447 22.6615 37.4447 22.6911 38.7228 22.4547C39.7128 22.2774 40.6954 22.27 41.6927 22.2921C41.9809 22.2921 42.2764 22.3069 42.4906 22.5433C42.5793 22.5212 42.7418 22.5138 42.7566 22.4694C43.0226 21.4351 42.9265 20.4008 42.8896 19.3444C43.0891 19.3813 43.4732 19.4552 43.9387 19.5364C43.3772 19.8024 43.4585 20.2457 43.5102 20.6742C43.5619 22.4251 43.5619 22.4103 45.3571 22.7502C46.2067 22.9127 47.0416 23.1344 47.8764 23.3708C48.2384 23.4742 48.6521 23.6072 48.9033 23.8657C49.5239 24.4937 50.1002 25.033 51.0901 25.0774C51.7255 25.1069 51.9693 25.7571 52.0062 26.3776C52.0358 26.8209 52.1318 27.1829 52.5751 27.4045C55.944 29.1038 57.3477 31.9777 57.4733 35.6273C57.5693 38.3091 57.4216 40.9613 56.7493 43.5619C55.8775 46.916 53.6094 49.2505 50.9276 51.2305C50.0558 51.8732 49.0585 52.3387 48.1128 52.8854C48.0389 52.9593 47.8912 53.011 47.8616 52.9593C47.278 51.9397 46.8421 52.8115 46.3619 53.0701C45.6896 53.3139 44.9656 53.3434 44.3081 53.6168C43.9756 53.7054 43.6358 53.7645 43.3107 53.8606C43.2147 53.8827 43.1112 53.8975 43.0078 53.9049C42.6532 53.9197 42.2912 53.9197 41.9365 53.9197C39.5059 53.6537 37.0975 53.336 34.9033 52.0949C30.8104 49.7898 28.727 46.2584 28.1729 41.6779C27.87 39.1882 27.9513 36.7354 28.5645 34.3048C28.9486 32.7608 29.7096 31.4457 31.0542 30.5222C31.1502 30.441 31.2906 30.4114 31.3275 30.2711C31.2758 30.3375 31.202 30.3893 31.1281 30.4484C30.6848 30.6478 30.441 31.165 29.9091 31.2167C29.5988 31.1724 29.3328 31.0837 29.3993 30.6774H29.3919Z" fill="#141414"/>
<path d="M42.4974 22.5507C41.0272 22.4399 39.557 22.5507 38.1311 22.8462C37.3406 23.0161 37.0377 22.8462 36.9269 22.0853C36.8604 21.6568 36.6905 21.2357 36.5649 20.8146C36.3654 20.0019 36.7127 19.7064 37.5179 19.6473C39.0177 19.5365 40.5174 19.4626 42.0246 19.5365C42.6378 19.566 42.9185 19.795 42.7781 20.4156C42.6156 21.1175 42.9407 21.8858 42.4974 22.5507Z" fill="#FFFEFB"/>
<path d="M60.0824 40.326C59.8756 40.4516 59.883 40.7988 59.4471 40.8874C59.8608 36.5655 59.5948 32.4135 57.0312 28.7418C57.8218 28.1803 58.7634 29.3342 59 29.6667C59.6667 31 60.0381 31.6821 60.341 33.0858C60.7104 34.8146 60.9247 36.5581 60.7178 38.3312C60.6365 39.0405 60.4001 39.6906 60.0898 40.326H60.0824Z" fill="#FFFEFB"/>
<path d="M23.4078 30.2859C23.4078 30.3598 23.4078 30.4263 23.4151 30.5001C23.2378 31.1503 22.4621 31.2168 22.174 31.7635C21.3539 32.687 21.0806 33.9724 20.0906 34.7777C19.9502 34.8959 19.7951 34.992 19.603 34.955L19.5365 34.9107C19.5587 34.7556 19.5365 34.5191 19.6178 34.4527C20.6964 33.6622 20.822 32.2437 21.7233 31.335C22.2109 30.84 22.7872 30.5445 23.4078 30.2933V30.2859Z" fill="#141414"/>
<path d="M18.3031 33.736C18.6578 33.736 18.9754 33.8468 19.005 34.2236C19.0272 34.5043 18.7464 34.5486 18.5174 34.5191C18.2366 34.4821 17.9337 34.4083 17.8746 34.0684C17.8229 33.7434 18.0741 33.736 18.3031 33.736Z" fill="#FFFEFB"/>
<path d="M18.8263 35.6494C18.9001 36.0926 18.5677 36.1 18.2943 36.1739C17.9176 36.27 17.9545 35.9892 17.9545 35.775C17.9545 35.5459 17.8585 35.1987 18.3091 35.2874C18.5381 35.3317 18.878 35.2283 18.8263 35.6494Z" fill="#FFFEFB"/>
<path d="M22.5814 30.0716C23.2537 29.4732 24.0516 29.1776 24.9455 29.1038C24.1994 29.5323 23.4089 29.8425 22.5814 30.0716Z" fill="#141414"/>
<path d="M25.7262 29.5175C25.4529 29.8352 25.0835 29.6653 24.7584 29.7096C25.0318 29.3919 25.4012 29.5618 25.7262 29.5175Z" fill="#141414"/>
<path d="M24.9297 29.1112C25.2326 28.9043 25.5724 28.9117 25.9197 28.9339C25.6389 29.2663 25.2695 29.1038 24.9297 29.1112Z" fill="#141414"/>
<path d="M43.0813 53.6611C43.1552 53.6611 43.2291 53.6611 43.3029 53.6611C43.6502 53.7276 43.9678 53.4912 44.3151 53.5355C44.98 53.2326 45.7483 53.2474 46.3985 52.8854C46.694 52.1983 47.418 52.25 47.8391 51.9102C48.275 52.2426 47.0929 52.7672 48.1198 52.8854C46.2433 54.097 44.1304 54.6658 41.9436 54.7545C37.7546 54.9244 33.9942 53.7276 30.7435 50.9719C28.8448 49.3613 28.0987 47.1524 27.286 44.9656C26.067 41.6853 25.5055 38.3534 26.8797 34.9328C27.5076 33.374 28.1726 31.8742 29.3989 30.6774C29.5098 30.9359 29.7018 31.0615 29.9826 31.0615C30.086 31.394 29.857 31.6009 29.6945 31.8373C27.2195 35.413 26.4512 39.2547 27.9066 43.4436C28.5346 45.2611 29.0148 47.1819 30.1673 48.7334C32.0734 51.2896 34.8069 52.6046 37.8433 53.373C38.6855 53.5872 39.5499 53.6389 40.4217 53.6906C41.3156 53.9197 42.2021 53.9049 43.0961 53.6685L43.0813 53.6611Z" fill="#141414"/>
<path d="M50.8398 33.9576C52.8567 36.2257 53.2778 40.8727 51.4457 43.9461C49.9237 46.5097 48.328 49.1989 45.1881 50.1814C49.4361 45.9334 50.8177 39.9271 50.8398 33.9576Z" fill="#FFFEFB"/>
<path d="M40.3624 53.868C36.4025 53.8015 33.0041 52.3313 30.374 49.4131C28.7339 47.5957 28.2093 45.1577 27.4779 42.8674C26.0668 38.4569 27.2784 34.6004 29.975 31.0616C30.337 30.7882 30.699 30.5223 31.061 30.2489C31.2827 30.1898 31.3639 30.2785 31.327 30.5001C29.1402 32.2141 28.5196 34.6152 28.3497 37.2157C28.128 40.5476 28.2906 43.8352 29.9824 46.8347C32.2283 50.8168 35.708 52.9445 40.2146 53.4543C40.7909 53.5208 41.3598 53.602 41.9286 53.6833C41.4632 54.2152 40.8869 53.8828 40.355 53.868H40.3624Z" fill="#FFFEFB"/>
<path d="M56.0555 42.0621C56.351 37.7255 55.2724 33.7877 52.5389 30.3893C51.1869 28.7048 49.6207 27.2199 47.36 26.8062C47.5151 26.2964 47.8919 26.5993 48.18 26.5845C52.1621 27.3085 56.5431 30.0716 56.6613 35.1766C56.7131 37.4964 56.6983 39.7867 56.2328 42.0695C56.1737 42.1656 56.1146 42.1656 56.0555 42.0695V42.0621Z" fill="#FFFEFB"/>
<path d="M32.4879 40.2521C32.547 39.7202 32.7243 39.1956 33.4778 39.1809C34.2536 39.1661 34.9997 39.9935 35.0145 40.8505C35.0293 41.4268 34.7633 41.7666 34.1797 41.7962C33.2562 41.8479 32.51 41.2051 32.4805 40.2595L32.4879 40.2521Z" fill="#FFFEFB"/>
<path d="M38.3688 27.0499C36.1599 27.6927 34.0469 28.5423 32.1999 30.0051C31.9044 29.4436 32.3034 29.318 32.5767 29.1333C34.2538 27.9882 36.0934 27.242 38.0807 26.8357C38.1694 26.9096 38.3171 26.9244 38.3614 27.0573L38.3688 27.0499Z" fill="#FFFEFB"/>
<path d="M35.1313 46.2289C34.5181 46.2289 34.1709 46.0812 34.193 45.468C34.2152 44.8622 34.3999 44.3672 35.087 44.3598C35.7519 44.3524 35.8848 44.9213 35.9513 45.4237C36.0548 46.1181 35.4933 46.1329 35.1313 46.2289Z" fill="#FFFEFB"/>
<path d="M38.3686 27.05C38.2726 26.9761 38.1765 26.9022 38.0879 26.8284C39.4694 26.5033 40.8583 26.193 42.2842 26.2299C42.299 26.326 42.3212 26.422 42.3359 26.5181C41.0135 26.6954 39.6911 26.8653 38.3686 27.0426V27.05Z" fill="#FFFEFB"/>
<path d="M45.6227 26.5919C44.7509 26.5402 43.8718 26.4811 43 26.4293C44.2264 26.1486 45.4454 26.1486 46.657 26.385C46.3541 26.6805 45.9404 26.385 45.6227 26.5845V26.5919Z" fill="#FFFEFB"/>
<path d="M32.2884 28.1064C32.3106 28.5497 31.9633 28.6531 31.69 28.7417C31.4092 28.8304 31.3354 28.557 31.3206 28.3354C31.2984 27.9365 31.5053 27.6188 31.8599 27.5523C32.2441 27.4784 32.1628 27.9143 32.2884 28.1064Z" fill="#FFFEFB"/>
<path d="M45.623 26.5919C45.926 26.3038 46.3175 26.4885 46.6573 26.3925C47.1671 26.4294 47.699 26.3038 48.1866 26.5845C47.9281 26.7101 47.5808 26.5033 47.3666 26.8062C46.7829 26.7397 46.2067 26.6658 45.623 26.5993V26.5919Z" fill="#FFFEFB"/>
<path d="M46.3917 52.8781C45.7859 53.4321 44.9807 53.4248 44.2566 53.6538C44.1532 53.5799 44.1532 53.506 44.2566 53.4321C44.9068 53.0184 45.6677 53.0406 46.3844 52.8781H46.3917Z" fill="#141414"/>
<path d="M56.0553 42.0621C56.1144 42.0621 56.1735 42.0621 56.2326 42.0621C56.2547 42.8969 55.9814 43.6431 55.4642 44.3228C55.6637 43.5692 55.8558 42.8083 56.0553 42.0547V42.0621Z" fill="#FFFEFB"/>
<path d="M40.3627 53.868C40.8724 53.6981 41.4413 54.001 41.9363 53.6833C42.3205 53.6833 42.6972 53.6686 43.0814 53.6686C42.2022 54.134 41.2862 54.0749 40.3627 53.8754V53.868Z" fill="#FFFEFB"/>
<path d="M51.2014 26.2668C51.1792 26.4811 51.0019 26.4811 50.8615 26.422C50.6177 26.3185 50.2409 26.3407 50.2262 25.9639C50.2188 25.7275 50.4035 25.6315 50.6251 25.698C50.8985 25.7792 51.1644 25.8974 51.2014 26.2668Z" fill="#FFFEFB"/>
<path d="M31.3343 30.5001C31.2457 30.4189 31.157 30.3302 31.0684 30.2489C31.2531 29.9682 31.5486 29.8648 31.7333 30.1381C31.8441 30.308 31.5338 30.4336 31.3343 30.4927V30.5001Z" fill="#FFFEFB"/>
<path d="M27.6665 51C26.9807 51.3858 28.1163 53.0026 28.511 53.3096C28.896 53.609 29.2123 53.9361 29.6557 54.1578C29.9237 54.2918 30.2439 54.4385 30.4811 54.6229C30.6516 54.7556 30.9676 54.7945 31.0967 54.9558C31.2312 55.1239 31.6051 55.179 31.7944 55.2842C32.0909 55.4489 32.4044 55.5828 32.7019 55.7721C33.8666 56.5133 35.3368 56.6351 36.5963 57.1949C37.5883 57.6358 38.7488 57.7877 39.8431 57.7877C42.1881 57.7877 44.615 58.2756 46.9023 57.6874C47.1702 57.6185 47.434 57.5421 47.6821 57.4594C48.1582 57.3007 48.8467 57.1106 49.3334 57C49.7516 56.905 52.2868 55.2111 52.6668 55C52.89 54.876 53.5277 54.4724 54.0001 54C54.127 53.8731 55.0406 53.2523 55.3334 52.6667C55.5875 52.1584 55.0882 51.9603 55.0882 51.3807" stroke="#141414" stroke-width="0.666667" stroke-linecap="round"/>
<path d="M27.4557 51.6666C27.4557 51.8639 27.4037 52.6429 27.4562 52.8264C27.5136 53.0274 27.6583 53.3816 27.7919 53.5449C28.1147 53.9395 28.3384 54.3924 28.6816 54.7736C29.2768 55.435 30.1111 56.0414 30.8773 56.4792C31.4849 56.8264 32.0259 57.2585 32.7037 57.4931C33.2116 57.6689 33.8388 57.9353 34.2883 58.235C34.5033 58.3783 34.745 58.5005 34.9998 58.6086M48.8255 58.7991C48.4917 58.9994 48.0209 59.0516 47.6471 59.1684C46.5961 59.4968 45.5194 59.6216 44.4274 59.6216C43.7672 59.6216 43.1069 59.6216 42.4466 59.6216C41.5613 59.6216 40.7021 59.5008 39.8212 59.5008C38.7829 59.5008 37.7773 59.5447 36.7794 59.212C36.2259 59.0275 35.5791 58.8543 34.9998 58.6086M48.8255 58.7991C49.2143 58.5658 49.6524 58.4435 50.0275 58.2048C50.3038 58.029 50.6158 57.9334 50.8936 57.7482C51.2594 57.5044 51.5192 57.1616 51.8606 56.9022C52.4372 56.4639 52.8625 55.8253 53.415 55.3578C53.9041 54.944 54.2688 54.4469 54.7143 54.0015C54.8594 53.8563 54.9664 53.6927 55.0634 53.518C55.1539 53.3552 55.3331 52.8561 55.3331 52.6666M48.8255 58.7991L48.3331 57.4931M34.9998 58.6086L35.3331 56.9022" stroke="#141414" stroke-width="0.666667" stroke-linecap="round"/>
<path d="M28.108 53.5238C27.8601 53.5238 27.5341 53.6192 27.3185 53.7424C26.9109 53.9754 26.0164 54.0606 25.5331 54.1554C24.0243 54.4512 22.4007 55.5422 21.2698 56.536C18.6272 58.8583 16.2788 61.9224 14.6563 65.0321C13.7693 66.7322 13.0128 68.6519 12.4761 70.4917C12.2984 71.101 12.1441 71.715 12.0167 72.3333" stroke="#141414" stroke-width="0.666667" stroke-linecap="round"/>
<path d="M55.0697 53.5848C57.4299 54.7649 60.4397 55.6708 62.1377 57.8993C63.0754 59.1302 64.2355 60.2712 65.2363 61.4608C66.0042 62.3737 66.4825 63.4532 67.2131 64.3868C68.2236 65.678 69.0397 67.0254 69.8332 68.4581C70.0825 68.9084 70.3515 69.4408 70.5913 70.0001" stroke="#141414" stroke-width="0.666667" stroke-linecap="round"/>
<path d="M19.7216 57.4197C19.7216 56.4344 19.7296 55.5206 20.1582 54.613C20.3316 54.2456 21.4986 52.6666 22.0002 52.6666" stroke="#141414" stroke-linecap="round"/>
<path d="M25 51.3334C25.2194 51.3334 26.7806 51.6667 27 51.6667" stroke="#141414" stroke-linecap="round"/>
<path d="M18.0001 60.3333C18.9044 60.3764 20.075 61.0845 20.948 61.284C22.31 61.5953 23.1335 61.3344 24.4684 60.6833C25.8612 60.0039 27.0009 58.9389 28.2213 58.0091C28.7568 57.6011 30.2814 56.6666 31.0001 56.6666" stroke="#141414" stroke-width="0.666667" stroke-linecap="round"/>
<path d="M52.2245 57.1888C53.6861 58.6504 55.7412 59.6335 57.5147 60.6188C58.1466 60.9698 59.3398 60.8191 60.0404 60.7932C60.8963 60.7615 62.3024 60.0168 62.9213 59.398" stroke="#141414" stroke-width="0.666667" stroke-linecap="round"/>
<path d="M24.8411 77.4136C24.8411 76.7187 24.8021 76.0123 24.8468 75.3189C24.891 74.634 25.176 73.9625 25.2749 73.2812C25.4788 71.8767 25.6486 70.3239 26.1253 68.989C26.5291 67.8586 27.1033 67.1963 28.4141 66.9114C32.0838 66.1136 35.8237 66.0096 39.5671 66.0096C42.5819 66.0096 45.5868 65.8041 48.5967 65.8041C49.5965 65.8041 50.5475 65.8187 51.5305 66.0324C52.2656 66.1922 52.9592 66.6284 53.7166 66.723C54.3641 66.804 54.9163 67.2304 55.5145 67.4479C56.31 67.7372 56.3809 68.566 56.5647 69.3086C56.8558 70.4844 56.839 71.761 57.1812 72.9159C57.3379 73.445 57.2647 74.0559 57.4152 74.5826C57.6424 75.3779 57.7177 76.2604 57.7177 77.1054" stroke="#141414" stroke-width="0.666667" stroke-linecap="round"/>
<path d="M28.8022 70.0163C28.618 70.3848 28.7451 71.0606 28.7451 71.4547C28.9904 71.9452 30.5732 71.8657 31.0625 71.8657C32.3216 71.8657 33.626 71.6602 34.9038 71.6602C36.1783 71.6602 37.5709 71.6017 38.7908 71.2264C39.3769 71.046 39.2246 70.1793 39.2246 69.7081C39.2246 68.8843 38.0172 69.1944 37.4209 69.1944C36.0968 69.1944 34.795 69.2972 33.4712 69.2972C32.2313 69.2972 31.0343 69.3738 29.8182 69.6054C29.3844 69.688 29.0095 69.6018 28.8022 70.0163Z" fill="#DC0157" stroke="#141414" stroke-width="0.666667" stroke-linecap="round"/>
<path d="M28.7452 75.3588C28.0597 75.3588 28.1288 76.4623 28.1288 76.8999V77.4136C28.349 77.8541 30.5647 77.4136 31.0055 77.4136C32.5381 77.4136 34.0663 77.353 35.5831 77.1282C36.1531 77.0438 38.557 77.4718 38.9164 76.8428C39.1505 76.4332 39.2209 75.6761 39.1162 75.2047C38.9574 74.4902 37.8885 74.7424 37.3753 74.7424C35.5705 74.7424 33.7803 75.024 31.9872 75.1476C30.9017 75.2225 29.8385 75.3588 28.7452 75.3588Z" fill="#DC0157" stroke="#141414" stroke-width="0.666667" stroke-linecap="round"/>
<path d="M43.4369 69.7595C43.4369 70.9843 44.5871 71.2493 45.5944 71.2493C46.377 71.2493 46.4163 70.3938 46.4163 69.8109C46.4163 69.1404 45.6363 68.6808 45.0294 68.6808C44.376 68.6808 43.4369 69.0119 43.4369 69.7595Z" fill="#0A7EF3" stroke="#141414" stroke-width="0.666667" stroke-linecap="round"/>
<path d="M43.905 76.5404C44.2368 76.9669 44.5808 76.8999 45.0808 76.8999L45.5945 76.7972C46.9778 76.7972 46.5467 74.4342 45.3319 74.4342C44.5108 74.4342 43.6425 74.6414 43.6425 75.6157C43.6425 75.9541 43.6876 76.2609 43.905 76.5404Z" fill="#0A7EF3" stroke="#141414" stroke-width="0.666667" stroke-linecap="round"/>
<path d="M49.4986 69.9136V78.441L49.5 80L53.1972 79.5V77.9273C53.1972 76.5364 53.0178 75.1979 52.9918 73.8177C52.9677 72.5435 52.8888 71.1455 52.6607 69.8908C52.536 69.205 52.6691 68.578 51.8845 68.578C51.1953 68.578 50.4947 68.5398 49.8068 68.578C49.321 68.605 49.4986 69.5829 49.4986 69.9136Z" fill="#0A7EF3" stroke="#141414" stroke-width="0.666667" stroke-linecap="round"/>
</g>
</svg>
