<svg xmlns="http://www.w3.org/2000/svg" viewBox="0 0 500 500"><g id="freepik--background-simple--inject-111"><path d="M484.13,252.08C478.94,296,458.9,347,418.86,370.48c-60.49,35.44-55.43,89.95-173.5,113.64A243,243,0,0,1,193,489.07a202.65,202.65,0,0,1-25.7-2.1c-75-11-125.54-63.12-144.07-126.09-24.38-82.81,24.31-137,56.58-169.68S135.72,56.76,251.61,32.55a235.45,235.45,0,0,1,53.8-5.11c41.24,1,86.21,14.55,117.33,42.81q3.51,3.18,6.82,6.59C472.82,121.24,491.2,192.23,484.13,252.08Z" style="fill:#8E54E9"></path><path d="M484.13,252.08C478.94,296,458.9,347,418.86,370.48c-60.49,35.44-55.43,89.95-173.5,113.64A243,243,0,0,1,193,489.07a202.65,202.65,0,0,1-25.7-2.1c-75-11-125.54-63.12-144.07-126.09-24.38-82.81,24.31-137,56.58-169.68S135.72,56.76,251.61,32.55a235.45,235.45,0,0,1,53.8-5.11c41.24,1,86.21,14.55,117.33,42.81q3.51,3.18,6.82,6.59C472.82,121.24,491.2,192.23,484.13,252.08Z" style="fill:#fff;opacity:0.7000000000000001"></path></g><g id="freepik--Plants--inject-111"><path d="M411.42,459.83a.54.54,0,0,1-.54-.5,68.73,68.73,0,0,1,28.45-60.7.54.54,0,0,1,.63.88,67.63,67.63,0,0,0-28,59.74.54.54,0,0,1-.5.58Z" style="fill:#263238"></path><path d="M422.69,439.56c-6.32-2-11.13,7.58-10.92,7.76-.16,1.12-.29,2.26-.38,3.4.64-1.38,3.84-3.33,8.76-4.18C425,445.53,428.78,441.21,422.69,439.56Z" style="fill:#263238"></path><path d="M404.19,434.73c-6.27-1.71-5.33,7.2-.7,9.63,4.46,2.53,7.29,4.93,7.8,6.35,0-1.14.07-2.29.15-3.43C411.19,447.35,410.07,436.56,404.19,434.73Z" style="fill:#263238"></path><path d="M426,430.3c-5.91-3-12.22,5.5-12.05,5.7-.34,1.07-.65,2.15-.94,3.24.86-1.23,4.34-2.57,9.33-2.55C427.25,436.53,431.7,433,426,430.3Z" style="fill:#263238"></path><path d="M408.54,422.43c-5.89-2.73-6.44,6.14-2.28,9.28,4,3.23,6.36,6,6.63,7.51.21-1.11.45-2.21.71-3.3C413.35,436,414,425.24,408.54,422.43Z" style="fill:#263238"></path><path d="M430.72,421.76c-5.32-3.93-13,3.35-12.81,3.57-.51,1-1,2-1.46,3,1.06-1.06,4.71-1.78,9.61-.92C431,428.11,435.93,425.33,430.72,421.76Z" style="fill:#263238"></path><path d="M414.86,411.09c-5.35-3.68-7.36,5-3.78,8.74,3.38,3.83,5.26,7,5.28,8.47.4-1,.81-2.08,1.26-3.11C417.36,425.19,419.8,414.78,414.86,411.09Z" style="fill:#263238"></path><path d="M436.85,414.12c-4.59-4.76-13.34,1.16-13.24,1.39-.66.89-1.31,1.8-1.94,2.72,1.22-.86,4.94-1,9.63.71C436,420.43,441.38,418.52,436.85,414.12Z" style="fill:#263238"></path><path d="M423,400.94c-4.67-4.52-8.11,3.67-5.21,8,2.7,4.35,4,7.78,3.8,9.24.56-1,1.15-1.92,1.76-2.85C423.09,415.29,427.24,405.41,423,400.94Z" style="fill:#263238"></path><path d="M444.24,407.57c-3.73-5.46-13.42-1.05-13.35-.8-.81.77-1.6,1.55-2.37,2.36,1.34-.65,5-.13,9.38,2.29C442.29,413.68,448,412.67,444.24,407.57Z" style="fill:#263238"></path><path d="M432.82,392.24c-3.85-5.24-8.69,2.3-6.55,7.06,1.91,4.75,2.65,8.36,2.18,9.77.71-.86,1.45-1.71,2.21-2.53C430.4,406.46,436.23,397.37,432.82,392.24Z" style="fill:#263238"></path><path d="M435.55,402.2c-.18,0,5.2-8.07,9.71-10.84s7.53-.26,7.55,2-3.05,4.15-5.94,5.14C444,399.26,435.53,402,435.55,402.2Z" style="fill:#263238"></path><path d="M435.55,402.56h-.05a.37.37,0,0,1-.31-.29v0a.25.25,0,0,1,.09-.27c.72-1.64,5.92-8.53,9.79-10.92,2.15-1.41,4.36-1.69,6.06-.78a3.68,3.68,0,0,1,2,3.1c.08,3.09-4.71,5-6.18,5.48-2.85.73-10.51,3.27-11.2,3.62A.36.36,0,0,1,435.55,402.56Zm13.4-12.1a6.38,6.38,0,0,0-3.49,1.2c-3.56,2.19-7.61,7.64-9,9.78.71-.26,1.83-.63,3.58-1.21,2.25-.74,5.22-1.67,6.79-2.07,2.76-1,5.71-2.71,5.66-4.78a3,3,0,0,0-1.66-2.48A3.93,3.93,0,0,0,449,390.46Z" style="fill:#263238"></path><path d="M86,459.83a.53.53,0,0,0,.53-.5,68.7,68.7,0,0,0-28.44-60.7.54.54,0,0,0-.76.13.53.53,0,0,0,.13.75,67.65,67.65,0,0,1,28,59.74.53.53,0,0,0,.49.58Z" style="fill:#263238"></path><path d="M74.75,439.56c6.33-2,11.14,7.58,10.93,7.76.15,1.12.28,2.26.38,3.4-.65-1.38-3.85-3.33-8.76-4.18C72.45,445.53,68.66,441.21,74.75,439.56Z" style="fill:#263238"></path><path d="M93.25,434.73c6.27-1.71,5.34,7.2.7,9.63-4.46,2.53-7.28,4.93-7.8,6.35,0-1.14-.07-2.29-.15-3.43C86.25,447.35,87.38,436.56,93.25,434.73Z" style="fill:#263238"></path><path d="M71.48,430.3c5.9-3,12.22,5.5,12,5.7.34,1.07.66,2.15,1,3.24-.87-1.23-4.35-2.57-9.33-2.55C70.2,436.53,65.75,433,71.48,430.3Z" style="fill:#263238"></path><path d="M88.9,422.43c5.9-2.73,6.45,6.14,2.29,9.28-4,3.23-6.36,6-6.63,7.51q-.32-1.67-.72-3.3C84.09,436,83.42,425.24,88.9,422.43Z" style="fill:#263238"></path><path d="M66.72,421.76c5.32-3.93,13,3.35,12.81,3.57.51,1,1,2,1.46,3-1-1.06-4.7-1.78-9.61-.92C66.49,428.11,61.52,425.33,66.72,421.76Z" style="fill:#263238"></path><path d="M82.58,411.09c5.36-3.68,7.37,5,3.79,8.74-3.38,3.83-5.27,7-5.29,8.47-.39-1-.81-2.08-1.25-3.11C80.08,425.19,77.65,414.78,82.58,411.09Z" style="fill:#263238"></path><path d="M60.59,414.12c4.6-4.76,13.35,1.16,13.24,1.39.67.89,1.32,1.8,1.94,2.72-1.22-.86-4.93-1-9.62.71C61.44,420.43,56.06,418.52,60.59,414.12Z" style="fill:#263238"></path><path d="M74.44,400.94c4.67-4.52,8.11,3.67,5.21,8-2.69,4.35-4,7.78-3.8,9.24-.56-1-1.14-1.92-1.75-2.85C74.36,415.29,70.2,405.41,74.44,400.94Z" style="fill:#263238"></path><path d="M53.2,407.57c3.74-5.46,13.42-1.05,13.35-.8.81.77,1.61,1.55,2.38,2.36-1.35-.65-5-.13-9.39,2.29C55.15,413.68,49.49,412.67,53.2,407.57Z" style="fill:#263238"></path><path d="M64.63,392.24c3.84-5.24,8.68,2.3,6.55,7.06-1.92,4.75-2.65,8.36-2.18,9.77-.72-.86-1.46-1.71-2.22-2.53C67,406.46,61.22,397.37,64.63,392.24Z" style="fill:#263238"></path><path d="M61.9,402.2c.17,0-5.2-8.07-9.72-10.84-4.35-2.86-7.53-.26-7.55,2s3.06,4.15,5.94,5.14C53.5,399.26,61.91,402,61.9,402.2Z" style="fill:#263238"></path><path d="M61.9,402.56h0a.37.37,0,0,0,.31-.29v0a.25.25,0,0,0-.08-.27c-.72-1.64-5.92-8.53-9.8-10.92-2.14-1.41-4.36-1.69-6.06-.78a3.68,3.68,0,0,0-2,3.1c-.08,3.09,4.71,5,6.18,5.48,2.86.73,10.52,3.27,11.2,3.62A.38.38,0,0,0,61.9,402.56Zm-13.4-12.1a6.38,6.38,0,0,1,3.48,1.2c3.56,2.19,7.62,7.64,9.05,9.78-.71-.26-1.83-.63-3.58-1.21-2.25-.74-5.22-1.67-6.79-2.07-2.76-1-5.72-2.71-5.67-4.78a3,3,0,0,1,1.66-2.48A4,4,0,0,1,48.5,390.46Z" style="fill:#263238"></path><path d="M392.44,459.83a.38.38,0,0,0,.38-.35,48.64,48.64,0,0,0-20.13-42.94.38.38,0,1,0-.44.62,47.85,47.85,0,0,1,19.8,42.26.39.39,0,0,0,.36.41Z" style="fill:#263238"></path><path d="M384.46,445.49c4.48-1.39,7.88,5.36,7.73,5.49.11.8.2,1.6.27,2.41-.46-1-2.72-2.36-6.2-3S380.15,446.66,384.46,445.49Z" style="fill:#263238"></path><path d="M397.55,442.07c4.43-1.2,3.77,5.1.5,6.82s-5.16,3.48-5.52,4.49c0-.81,0-1.62-.11-2.42C392.6,451,393.39,443.37,397.55,442.07Z" style="fill:#263238"></path><path d="M382.15,438.94c4.17-2.11,8.64,3.9,8.52,4,.24.75.46,1.52.66,2.29-.61-.87-3.07-1.82-6.59-1.81S378.09,440.82,382.15,438.94Z" style="fill:#263238"></path><path d="M394.47,433.38c4.17-1.93,4.56,4.34,1.62,6.56s-4.5,4.27-4.69,5.31q-.22-1.17-.51-2.34C391.07,442.94,390.59,435.36,394.47,433.38Z" style="fill:#263238"></path><path d="M378.78,432.9c3.77-2.78,9.16,2.37,9.06,2.53.36.7.71,1.41,1,2.12-.75-.74-3.33-1.25-6.8-.65S375.1,435.43,378.78,432.9Z" style="fill:#263238"></path><path d="M390,425.35c3.79-2.6,5.21,3.51,2.68,6.18s-3.73,5-3.74,6c-.28-.74-.57-1.48-.89-2.2C388.23,435.33,386.51,428,390,425.35Z" style="fill:#263238"></path><path d="M374.44,427.5c3.26-3.37,9.44.82,9.37,1,.47.63.93,1.27,1.37,1.92-.86-.6-3.49-.68-6.8.5S371.24,430.61,374.44,427.5Z" style="fill:#263238"></path><path d="M384.24,418.17c3.3-3.19,5.74,2.6,3.69,5.66s-2.85,5.5-2.69,6.54c-.4-.68-.81-1.36-1.24-2C384.18,428.32,381.24,421.34,384.24,418.17Z" style="fill:#263238"></path><path d="M369.22,422.86c2.64-3.86,9.49-.74,9.44-.56.57.54,1.14,1.1,1.68,1.67-.95-.46-3.56-.1-6.64,1.62S366.59,426.47,369.22,422.86Z" style="fill:#263238"></path><path d="M377.3,412c2.72-3.71,6.14,1.63,4.63,5-1.35,3.36-1.87,5.91-1.54,6.9-.5-.61-1-1.2-1.57-1.79C379,422.08,374.89,415.65,377.3,412Z" style="fill:#263238"></path><path d="M375.37,419.07c.12,0-3.68-5.71-6.87-7.67s-5.33-.19-5.34,1.42,2.16,2.93,4.2,3.63C369.43,417,375.38,419,375.37,419.07Z" style="fill:#263238"></path><path d="M375.37,419.32h0a.26.26,0,0,0,.22-.2v0a.19.19,0,0,0-.06-.19c-.51-1.16-4.19-6-6.93-7.72a4.2,4.2,0,0,0-4.29-.56,2.65,2.65,0,0,0-1.44,2.2c-.06,2.18,3.33,3.52,4.37,3.87,2,.52,7.44,2.32,7.93,2.57A.24.24,0,0,0,375.37,419.32Zm-9.48-8.56a4.51,4.51,0,0,1,2.47.85c2.51,1.55,5.38,5.4,6.39,6.92-.5-.18-1.29-.45-2.53-.86-1.59-.52-3.69-1.18-4.8-1.46-1.95-.68-4.05-1.92-4-3.39a2.13,2.13,0,0,1,1.17-1.75A2.83,2.83,0,0,1,365.89,410.76Z" style="fill:#263238"></path><path d="M111.87,459.83a.39.39,0,0,1-.39-.35,48.64,48.64,0,0,1,20.13-42.94.38.38,0,0,1,.53.09.37.37,0,0,1-.09.53,47.85,47.85,0,0,0-19.8,42.26.38.38,0,0,1-.35.41Z" style="fill:#263238"></path><path d="M119.84,445.49c-4.47-1.39-7.88,5.36-7.73,5.49-.11.8-.2,1.6-.27,2.41.46-1,2.72-2.36,6.2-3S124.15,446.66,119.84,445.49Z" style="fill:#263238"></path><path d="M106.75,442.07c-4.43-1.2-3.77,5.1-.49,6.82s5.15,3.48,5.52,4.49c0-.81,0-1.62.1-2.42C111.71,451,110.91,443.37,106.75,442.07Z" style="fill:#263238"></path><path d="M122.16,438.94c-4.18-2.11-8.65,3.9-8.52,4-.25.75-.47,1.52-.67,2.29.61-.87,3.07-1.82,6.6-1.81S126.21,440.82,122.16,438.94Z" style="fill:#263238"></path><path d="M109.83,433.38c-4.17-1.93-4.56,4.34-1.61,6.56s4.5,4.27,4.68,5.31q.22-1.17.51-2.34C113.23,442.94,113.71,435.36,109.83,433.38Z" style="fill:#263238"></path><path d="M125.52,432.9c-3.76-2.78-9.16,2.37-9.06,2.53-.36.7-.71,1.41-1,2.12.74-.74,3.32-1.25,6.79-.65S129.2,435.43,125.52,432.9Z" style="fill:#263238"></path><path d="M114.3,425.35c-3.79-2.6-5.21,3.51-2.68,6.18s3.73,5,3.74,6c.28-.74.58-1.48.89-2.2C116.07,435.33,117.79,428,114.3,425.35Z" style="fill:#263238"></path><path d="M129.86,427.5c-3.25-3.37-9.44.82-9.37,1-.47.63-.93,1.27-1.37,1.92.86-.6,3.49-.68,6.81.5S133.06,430.61,129.86,427.5Z" style="fill:#263238"></path><path d="M120.06,418.17c-3.3-3.19-5.74,2.6-3.68,5.66,1.9,3.08,2.84,5.5,2.68,6.54.4-.68.81-1.36,1.24-2C120.12,428.32,123.06,421.34,120.06,418.17Z" style="fill:#263238"></path><path d="M135.08,422.86c-2.64-3.86-9.49-.74-9.44-.56-.57.54-1.13,1.1-1.68,1.67,1-.46,3.56-.1,6.64,1.62S137.71,426.47,135.08,422.86Z" style="fill:#263238"></path><path d="M127,412c-2.72-3.71-6.14,1.63-4.63,5,1.35,3.36,1.87,5.91,1.54,6.9.51-.61,1-1.2,1.57-1.79C125.3,422.08,129.41,415.65,127,412Z" style="fill:#263238"></path><path d="M128.94,419.07c-.13,0,3.67-5.71,6.87-7.67s5.32-.19,5.34,1.42-2.16,2.93-4.2,3.63C134.88,417,128.92,419,128.94,419.07Z" style="fill:#263238"></path><path d="M128.94,419.32h0a.28.28,0,0,1-.22-.2v0a.19.19,0,0,1,.06-.19c.51-1.16,4.19-6,6.93-7.72a4.21,4.21,0,0,1,4.29-.56,2.63,2.63,0,0,1,1.44,2.2c.06,2.18-3.33,3.52-4.37,3.87-2,.52-7.44,2.32-7.92,2.57A.27.27,0,0,1,128.94,419.32Zm9.47-8.56a4.45,4.45,0,0,0-2.46.85c-2.52,1.55-5.39,5.4-6.4,6.92.5-.18,1.29-.45,2.53-.86,1.6-.52,3.69-1.18,4.8-1.46,2-.68,4.05-1.92,4-3.39a2.13,2.13,0,0,0-1.17-1.75A2.83,2.83,0,0,0,138.41,410.76Z" style="fill:#263238"></path></g><g id="freepik--Bag--inject-111"><polygon points="358.53 459.83 147.64 459.83 163.45 250.9 342.72 250.9 358.53 459.83" style="fill:#fff;stroke:#263238;stroke-linecap:round;stroke-linejoin:round"></polygon><path d="M327.42,260c-2.88,42.79-35.06,76.51-74.33,76.51-38.49,0-70.17-32.38-74.14-73.95" style="fill:none;stroke:#263238;stroke-linecap:round;stroke-linejoin:round;stroke-width:2px"></path><path d="M182.55,262.56a3.6,3.6,0,1,0-3.6,3.6A3.6,3.6,0,0,0,182.55,262.56Z" style="fill:#263238"></path><path d="M331.07,262.56a3.59,3.59,0,1,0-3.59,3.6A3.59,3.59,0,0,0,331.07,262.56Z" style="fill:#263238"></path><path d="M188.53,389.85V351.72h9.93a27.29,27.29,0,0,1,4.63.38,10.6,10.6,0,0,1,3.89,1.44,7.24,7.24,0,0,1,2.66,3,11.74,11.74,0,0,1,1,5.15,9.84,9.84,0,0,1-.68,3.88A6.08,6.08,0,0,1,208,368.1a7,7,0,0,1-3,1.27,7.58,7.58,0,0,1,3.72,1.44,7.23,7.23,0,0,1,2.28,3.08,12.45,12.45,0,0,1,.78,4.66,15,15,0,0,1-.78,5.11,8.9,8.9,0,0,1-2.23,3.5,9.21,9.21,0,0,1-3.6,2,16.74,16.74,0,0,1-4.92.66ZM197,367h1.65a5.72,5.72,0,0,0,2.92-.59,3,3,0,0,0,1.34-1.71,9.48,9.48,0,0,0,.35-2.73,5.28,5.28,0,0,0-.54-2.52,3.54,3.54,0,0,0-1.6-1.53,6.09,6.09,0,0,0-2.66-.52H197Zm0,17h1.79q2.77,0,3.84-1.41a6.87,6.87,0,0,0,1.06-4.14,10.31,10.31,0,0,0-.47-3.44,3.44,3.44,0,0,0-1.56-1.86,6.15,6.15,0,0,0-2.92-.58H197Z" style="fill:#263238"></path><path d="M216.2,389.85V351.72h10.5a23.53,23.53,0,0,1,6.68.85,8.14,8.14,0,0,1,4.4,3,10.47,10.47,0,0,1,1.58,6.19A21.08,21.08,0,0,1,239,366a7.22,7.22,0,0,1-4.28,5.41l5.22,18.45h-8.71L227,372.76h-2.4v17.09Zm8.43-21.94H227a5.18,5.18,0,0,0,2.78-.63,3.37,3.37,0,0,0,1.38-1.84,9.08,9.08,0,0,0,.4-2.89,6.88,6.88,0,0,0-.89-3.81,3.64,3.64,0,0,0-3.29-1.37h-2.73Z" style="fill:#263238"></path><path d="M242.6,389.85l7.2-38.13h9.6l7.11,38.13h-7.76l-1.28-8.05h-5.6l-1.31,8.05Zm10-13.09h4l-2-14.87Z" style="fill:#263238"></path><path d="M270,389.85V351.72h5.93l7.82,18.36V351.72h7v38.13H285l-7.82-19.77v19.77Z" style="fill:#263238"></path><path d="M296.39,389.85V351.72H306a19.47,19.47,0,0,1,7.77,1.25,7.32,7.32,0,0,1,3.9,3.91,17.67,17.67,0,0,1,1.13,6.89v13.84a18.21,18.21,0,0,1-1.13,7,7.35,7.35,0,0,1-3.88,4,18.7,18.7,0,0,1-7.69,1.28Zm8.43-5.84h1.32a5.22,5.22,0,0,0,2.77-.56,2.49,2.49,0,0,0,1.06-1.7,15.76,15.76,0,0,0,.21-2.82V362.31a11.84,11.84,0,0,0-.25-2.73,2.31,2.31,0,0,0-1.11-1.5,6,6,0,0,0-2.73-.47h-1.27Z" style="fill:#263238"></path><path d="M178.29,439.5V401.38h8.43V433.8h8.75v5.7Z" style="fill:#263238"></path><path d="M209.45,440.06a13.11,13.11,0,0,1-6.78-1.5,8.52,8.52,0,0,1-3.58-4.33A18.89,18.89,0,0,1,198,427.5V413.33a18.62,18.62,0,0,1,1.08-6.73,8.39,8.39,0,0,1,3.58-4.26,13.32,13.32,0,0,1,6.78-1.48,13.58,13.58,0,0,1,6.85,1.48,8.38,8.38,0,0,1,3.6,4.26,18.62,18.62,0,0,1,1.08,6.73V427.5a18.89,18.89,0,0,1-1.08,6.73,8.5,8.5,0,0,1-3.6,4.33A13.36,13.36,0,0,1,209.45,440.06Zm0-6a2.52,2.52,0,0,0,1.93-.66,3.33,3.33,0,0,0,.8-1.7,12.26,12.26,0,0,0,.19-2.11V411.26a12.26,12.26,0,0,0-.19-2.14,3.31,3.31,0,0,0-.8-1.67,2.52,2.52,0,0,0-1.93-.66,2.39,2.39,0,0,0-1.84.66,3.39,3.39,0,0,0-.8,1.67,12.26,12.26,0,0,0-.19,2.14v18.36a13.35,13.35,0,0,0,.17,2.11,3.28,3.28,0,0,0,.75,1.7A2.44,2.44,0,0,0,209.45,434.09Z" style="fill:#263238"></path><path d="M230.16,439.5V423.92l-7.25-22.54h8l3.63,12.05,3.24-12.05h7.63l-7.11,22.54V439.5Z" style="fill:#263238"></path><path d="M244.84,439.5l7.2-38.12h9.6l7.11,38.12H261l-1.27-8.05h-5.6l-1.32,8.05Zm10-13.09h4.05l-2-14.87Z" style="fill:#263238"></path><path d="M272.23,439.5V401.38h8.42V433.8h8.76v5.7Z" style="fill:#263238"></path><path d="M293.88,439.5V407.64h-5.74v-6.26H308v6.26h-5.69V439.5Z" style="fill:#263238"></path><path d="M316.19,439.5V423.92l-7.25-22.54h7.95l3.62,12.05,3.25-12.05h7.63l-7.11,22.54V439.5Z" style="fill:#263238"></path></g><g id="freepik--Price--inject-111"><path d="M381.09,271.78l-11.73,21.61,29.39,48.41,37.07-22.5-29.39-48.41Zm6.57,10a3.1,3.1,0,1,1,1-4.26A3.09,3.09,0,0,1,387.66,281.76Z" style="fill:#8E54E9;stroke:#263238;stroke-linecap:round;stroke-linejoin:round"></path><path d="M418.66,296.16a19,19,0,1,0-6.39,26.14A19,19,0,0,0,418.66,296.16Z" style="fill:#263238"></path><path d="M410.65,319.9l-1.42-2.33a6.34,6.34,0,0,1-5.39.72,9.73,9.73,0,0,1-4.56-4l3.13-2.86a13,13,0,0,0,1.71,2.12,3.82,3.82,0,0,0,1.72,1.07,2.27,2.27,0,0,0,1.76-.33,1.91,1.91,0,0,0,1.07-1.47,2.92,2.92,0,0,0-.49-1.77,4.73,4.73,0,0,0-2.15-2,13.27,13.27,0,0,0-2.91-.81l-4.38-.77a12.1,12.1,0,0,1-2.24-.63,7.14,7.14,0,0,1-2-1.16,8,8,0,0,1-1.69-2,6.15,6.15,0,0,1-1-4.83,6.73,6.73,0,0,1,2.93-3.93l-1.36-2.25,1.19-.73,1.35,2.22a6.11,6.11,0,0,1,2.71-.79,5,5,0,0,1,2.31.51,7.42,7.42,0,0,1,2,1.41,13.51,13.51,0,0,1,1.65,2L401.5,300a15.39,15.39,0,0,0-1.38-1.77,3.07,3.07,0,0,0-1.43-1,1.94,1.94,0,0,0-1.61.39,2.13,2.13,0,0,0-1.06,1.48,2.59,2.59,0,0,0,.41,1.77,3.77,3.77,0,0,0,1.7,1.61,10.84,10.84,0,0,0,2.19.66l4.33.76a17.69,17.69,0,0,1,2.72.74,9.41,9.41,0,0,1,2.5,1.37,8.48,8.48,0,0,1,2.08,2.39,7,7,0,0,1,1,3,5.77,5.77,0,0,1-.53,2.93,6.62,6.62,0,0,1-2,2.45l1.43,2.36Z" style="fill:#fff"></path><path d="M385.48,276.92l-21.48-12a6.95,6.95,0,1,0-5.73,12.63L374,284.31l.22.07,1.36-2.57a1.84,1.84,0,0,0-.4-.26l-15.83-6.77a4,4,0,0,1-2.52-3.18,3.95,3.95,0,0,1,5.7-4l21.45,12a1.51,1.51,0,0,0,1.51,0,1.55,1.55,0,0,0,.53-.55A1.5,1.5,0,0,0,385.48,276.92Z" style="fill:#263238"></path><path d="M381.7,366v-12.6h3.7a3.58,3.58,0,0,1,1.84.42,2.5,2.5,0,0,1,1,1.22,4.88,4.88,0,0,1,.34,1.94,4,4,0,0,1-.42,2,2.51,2.51,0,0,1-1.18,1.1,4.22,4.22,0,0,1-1.78.34H384V366Zm2.3-7.22h.87a2.15,2.15,0,0,0,1-.18.94.94,0,0,0,.48-.57,3.42,3.42,0,0,0,.14-1.07,4.82,4.82,0,0,0-.11-1.11,1,1,0,0,0-.43-.63,2.14,2.14,0,0,0-1.05-.2H384Z" style="fill:#263238"></path><path d="M389.83,366v-12.6h3a6.78,6.78,0,0,1,2.16.3,2.44,2.44,0,0,1,1.33,1,3.69,3.69,0,0,1,.46,2,5.77,5.77,0,0,1-.14,1.37,2.57,2.57,0,0,1-.47,1,2.08,2.08,0,0,1-.93.66L397,366h-2.3l-1.53-5.77h-1.06V366Zm2.3-7.22h.72a2.47,2.47,0,0,0,1.07-.19,1.14,1.14,0,0,0,.56-.62,2.89,2.89,0,0,0,.17-1.1,2.32,2.32,0,0,0-.35-1.42A1.54,1.54,0,0,0,393,355h-.84Z" style="fill:#263238"></path><path d="M398.59,366v-12.6h2.27V366Z" style="fill:#263238"></path><path d="M406.2,366.2a3.78,3.78,0,0,1-2.17-.54,2.81,2.81,0,0,1-1.1-1.49,6.8,6.8,0,0,1-.31-2.17v-4.49a7.2,7.2,0,0,1,.31-2.25,2.67,2.67,0,0,1,1.1-1.46,4,4,0,0,1,2.17-.51,4,4,0,0,1,2,.44,2.39,2.39,0,0,1,1.05,1.27,5.35,5.35,0,0,1,.32,1.91V358H407.4v-1.09a7.06,7.06,0,0,0-.06-1,1.15,1.15,0,0,0-.29-.69,1.12,1.12,0,0,0-.84-.26,1.18,1.18,0,0,0-.86.27,1.32,1.32,0,0,0-.35.73,6.47,6.47,0,0,0-.08,1v5.47a5,5,0,0,0,.11,1.13,1.16,1.16,0,0,0,.4.67,1.23,1.23,0,0,0,.78.23,1,1,0,0,0,.82-.28,1.32,1.32,0,0,0,.3-.72,6.24,6.24,0,0,0,.07-1v-1.14h2.21v1a6.06,6.06,0,0,1-.3,2,2.59,2.59,0,0,1-1,1.35A3.74,3.74,0,0,1,406.2,366.2Z" style="fill:#263238"></path><path d="M411.21,366v-12.6h5.29v1.62h-3v3.62h2.35v1.6h-2.35v4.17h3V366Z" style="fill:#263238"></path></g><g id="freepik--Quality--inject-111"><polygon points="412.68 218.87 406.53 207.2 395.93 214.54 407.03 171.59 423.78 175.92 412.68 218.87" style="fill:#8E54E9;stroke:#263238;stroke-linecap:round;stroke-linejoin:round"></polygon><polygon points="422.56 218.87 428.7 207.2 439.31 214.54 428.2 171.59 411.45 175.92 422.56 218.87" style="fill:#8E54E9;stroke:#263238;stroke-linecap:round;stroke-linejoin:round"></polygon><polygon points="443.96 159.44 449.29 152.44 441.46 148.44 443.2 139.83 434.42 139.62 432.26 131.1 424.26 134.72 418.61 127.99 412.97 134.72 404.96 131.1 402.81 139.62 394.02 139.83 395.77 148.44 387.94 152.44 393.26 159.44 387.94 166.44 395.77 170.44 394.02 179.06 402.81 179.26 404.96 187.78 412.97 184.16 418.61 190.9 424.26 184.16 432.27 187.78 434.42 179.26 443.21 179.05 441.46 170.44 449.29 166.44 443.96 159.44" style="fill:#263238"></polygon><circle cx="418.61" cy="159.44" r="24.6" transform="matrix(0.99, -0.16, 0.16, 0.99, -20.02, 68.57)" style="fill:#fff;stroke:#263238;stroke-linecap:round;stroke-linejoin:round"></circle><circle cx="418.61" cy="159.44" r="17.47" transform="translate(-20.05 68.73) rotate(-9.17)" style="fill:#8E54E9;stroke:#263238;stroke-linecap:round;stroke-linejoin:round"></circle><path d="M400.39,247a3.67,3.67,0,0,1-.83-.56,9.81,9.81,0,0,1-.88-.84,7.55,7.55,0,0,1-.73-1l-.14,0h-.14a4,4,0,0,1-2.14-.5,2.79,2.79,0,0,1-1.13-1.43,6.38,6.38,0,0,1-.34-2.21v-4.71a6.22,6.22,0,0,1,.34-2.19,2.74,2.74,0,0,1,1.13-1.39,4.11,4.11,0,0,1,2.14-.48,4.17,4.17,0,0,1,2.16.48,2.64,2.64,0,0,1,1.13,1.39,6.21,6.21,0,0,1,.35,2.19v4.73a7.42,7.42,0,0,1-.17,1.63,3.77,3.77,0,0,1-.56,1.27,2.63,2.63,0,0,1-1,.83q.19.22.42.45c.14.16.29.3.43.44a3.35,3.35,0,0,0,.42.32Zm-2.72-4a1.29,1.29,0,0,0,.85-.24,1.22,1.22,0,0,0,.37-.69,4.07,4.07,0,0,0,.1-.95v-5.8a4,4,0,0,0-.1-.95,1.14,1.14,0,0,0-.37-.66,1.29,1.29,0,0,0-.85-.24,1.24,1.24,0,0,0-.84.24,1.14,1.14,0,0,0-.37.66,4.58,4.58,0,0,0-.09.95v5.8a4.72,4.72,0,0,0,.09.95,1.22,1.22,0,0,0,.37.69A1.24,1.24,0,0,0,397.67,243Z" style="fill:#263238"></path><path d="M406.47,244.69a4,4,0,0,1-2.18-.51,2.65,2.65,0,0,1-1.07-1.47,7.57,7.57,0,0,1-.3-2.27v-8.52h2.25v8.79a7.87,7.87,0,0,0,.07,1.11,1.55,1.55,0,0,0,.37.84,1.11,1.11,0,0,0,.86.32,1.1,1.1,0,0,0,.88-.32,1.71,1.71,0,0,0,.36-.84,6.59,6.59,0,0,0,.08-1.11v-8.79H410v8.52a7.57,7.57,0,0,1-.3,2.27,2.63,2.63,0,0,1-1.06,1.47A4,4,0,0,1,406.47,244.69Z" style="fill:#263238"></path><path d="M411.12,244.52l2.52-12.6h2.46l2.52,12.6h-2.13l-.5-2.91H413.8l-.51,2.91Zm2.91-4.37h1.71l-.85-5.29Z" style="fill:#263238"></path><path d="M419.82,244.52v-12.6h2.3v11h3.05v1.59Z" style="fill:#263238"></path><path d="M426.37,244.52v-12.6h2.27v12.6Z" style="fill:#263238"></path><path d="M431.85,244.52V233.61h-2v-1.69h6.28v1.69h-2v10.91Z" style="fill:#263238"></path><path d="M439,244.52v-4.81l-2.55-7.79h2.15l1.55,5,1.47-5h2.1l-2.52,7.79v4.81Z" style="fill:#263238"></path></g><g id="freepik--Support--inject-111"><path d="M328.39,54l-4-4.42-7.14,5.18,2.92,5.05a30.89,30.89,0,0,0-5.67,7.6l-5.82-1.24L306,74.52l5.31,2.37a32,32,0,0,0-.42,5.12,31.4,31.4,0,0,0,.31,4.36l-5.43,2.42,2.72,8.38,5.69-1.2a31.46,31.46,0,0,0,5.49,7.73l-3,5.15L323.8,114l3.9-4.33a31.23,31.23,0,0,0,9,3l.62,5.91h8.82l.61-5.78a31.26,31.26,0,0,0,9.06-2.82l4,4.41,7.14-5.18-2.92-5a31.18,31.18,0,0,0,5.68-7.6l5.81,1.23,2.72-8.38-5.31-2.37A32.06,32.06,0,0,0,373.3,82a31.4,31.4,0,0,0-.31-4.36l5.44-2.42-2.73-8.39L370,68.05a31.5,31.5,0,0,0-5.48-7.73l3-5.16L360.37,50l-3.9,4.33a30.93,30.93,0,0,0-9-3l-.62-5.92h-8.82l-.61,5.79a30.31,30.31,0,0,0-4.5,1m27.13,42a21.46,21.46,0,1,1,2.86-6.1" style="fill:none;stroke:#263238;stroke-miterlimit:10"></path><polygon points="335.92 92.5 339.24 98.86 332.33 124.6 340.58 134.56 348.93 124.8 343.39 98.86 347.59 93.61 340.63 84.47 335.92 92.5" style="fill:#8E54E9;stroke:#263238;stroke-linecap:round;stroke-linejoin:round"></polygon><polygon points="331.37 79.34 326.52 83.28 335.61 97.22 342.28 89.04 347.74 97.52 358.47 84.65 354.1 79.34 331.37 79.34" style="fill:#263238;stroke:#263238;stroke-linecap:round;stroke-linejoin:round"></polygon><polygon points="354.1 79.34 342.28 89.04 331.37 79.34 331.37 62.67 354.1 62.67 354.1 79.34" style="fill:#fff;stroke:#263238;stroke-linecap:round;stroke-linejoin:round"></polygon><path d="M328.15,40.86A14.81,14.81,0,0,1,343,26.06h3.18A14.81,14.81,0,0,1,361,40.86v11.2" style="fill:none;stroke:#263238;stroke-linecap:round;stroke-linejoin:round"></path><rect x="326.03" y="30.3" width="32.8" height="44.22" rx="12.85" style="fill:#fff;stroke:#263238;stroke-linecap:round;stroke-linejoin:round"></rect><path d="M358.83,55.7V45.11A14.81,14.81,0,0,0,344,30.3h-3.18a14.81,14.81,0,0,0-13.35,8.42h25.4s-2.73,3.34-1.51,6.67a11.83,11.83,0,0,0,3,4.85V55.7Z" style="fill:#263238;stroke:#263238;stroke-linecap:round;stroke-linejoin:round"></path><rect x="357.13" y="43.88" width="7.27" height="16.37" rx="3.16" style="fill:#8E54E9;stroke:#263238;stroke-linecap:round;stroke-linejoin:round"></rect><path d="M358.83,59.72a23.92,23.92,0,0,1-18.67,11.13" style="fill:none;stroke:#263238;stroke-linecap:round;stroke-linejoin:round"></path><circle cx="340.01" cy="71" r="1.97" style="fill:#8E54E9;stroke:#263238;stroke-linecap:round;stroke-linejoin:round"></circle><path d="M319,152a3.69,3.69,0,0,1-1.9-.44,2.71,2.71,0,0,1-1.15-1.3,5.54,5.54,0,0,1-.44-2.1l2-.39a6.84,6.84,0,0,0,.17,1.3,1.81,1.81,0,0,0,.46.86,1.09,1.09,0,0,0,.8.3.89.89,0,0,0,.79-.33,1.44,1.44,0,0,0,.23-.85,2.27,2.27,0,0,0-.37-1.35,5.43,5.43,0,0,0-1-1.06l-1.58-1.4a4.81,4.81,0,0,1-1.07-1.29,3.57,3.57,0,0,1-.39-1.75,3,3,0,0,1,.87-2.3,3.35,3.35,0,0,1,2.38-.81,3.59,3.59,0,0,1,1.48.27,2.53,2.53,0,0,1,.94.76,3.6,3.6,0,0,1,.52,1.1,7.55,7.55,0,0,1,.22,1.29l-2,.35a7.39,7.39,0,0,0-.14-1.06,1.33,1.33,0,0,0-.36-.73,1.13,1.13,0,0,0-1.54.07,1.27,1.27,0,0,0-.27.83,1.86,1.86,0,0,0,.27,1,3.85,3.85,0,0,0,.76.85l1.57,1.38a6.56,6.56,0,0,1,1.33,1.54,3.87,3.87,0,0,1,.55,2.12,3.24,3.24,0,0,1-.39,1.6,2.93,2.93,0,0,1-1.11,1.1A3.35,3.35,0,0,1,319,152Z" style="fill:#263238"></path><path d="M327,152a4,4,0,0,1-2.18-.51A2.62,2.62,0,0,1,323.7,150a7.57,7.57,0,0,1-.3-2.27v-8.53h2.24V148a7.62,7.62,0,0,0,.08,1.11,1.48,1.48,0,0,0,.37.84,1.34,1.34,0,0,0,1.74,0,1.71,1.71,0,0,0,.36-.84,7.62,7.62,0,0,0,.08-1.11v-8.79h2.23v8.53a7.57,7.57,0,0,1-.3,2.27,2.61,2.61,0,0,1-1.06,1.46A4,4,0,0,1,327,152Z" style="fill:#263238"></path><path d="M332.3,151.82v-12.6H336a3.58,3.58,0,0,1,1.84.42,2.5,2.5,0,0,1,1,1.22,5.11,5.11,0,0,1,.33,1.94,3.93,3.93,0,0,1-.42,2,2.45,2.45,0,0,1-1.17,1.1,4.25,4.25,0,0,1-1.78.34H334.6v5.6Zm2.3-7.21h.88a2.15,2.15,0,0,0,1-.18,1,1,0,0,0,.48-.58,3.42,3.42,0,0,0,.13-1.07,4.89,4.89,0,0,0-.1-1.11,1,1,0,0,0-.43-.63,2.19,2.19,0,0,0-1-.2h-.88Z" style="fill:#263238"></path><path d="M340.44,151.82v-12.6h3.7a3.62,3.62,0,0,1,1.85.42,2.55,2.55,0,0,1,1,1.22,5.11,5.11,0,0,1,.33,1.94,4,4,0,0,1-.42,2,2.49,2.49,0,0,1-1.17,1.1,4.28,4.28,0,0,1-1.78.34h-1.25v5.6Zm2.3-7.21h.87a2.2,2.2,0,0,0,1-.18,1,1,0,0,0,.48-.58,3.42,3.42,0,0,0,.13-1.07,4.89,4.89,0,0,0-.1-1.11,1,1,0,0,0-.44-.63,2.14,2.14,0,0,0-1.05-.2h-.87Z" style="fill:#263238"></path><path d="M352.06,152a4,4,0,0,1-2.13-.49,2.76,2.76,0,0,1-1.14-1.43,6.66,6.66,0,0,1-.34-2.21v-4.72a6.36,6.36,0,0,1,.34-2.18,2.73,2.73,0,0,1,1.14-1.4,4.1,4.1,0,0,1,2.13-.48,4.17,4.17,0,0,1,2.16.48,2.76,2.76,0,0,1,1.13,1.4,6.11,6.11,0,0,1,.35,2.18v4.73a6.29,6.29,0,0,1-.35,2.19,2.83,2.83,0,0,1-1.13,1.43A4,4,0,0,1,352.06,152Zm0-1.69a1.22,1.22,0,0,0,.85-.25,1.24,1.24,0,0,0,.36-.68,4.07,4.07,0,0,0,.1-1v-5.81a4,4,0,0,0-.1-1,1.19,1.19,0,0,0-.36-.66,1.27,1.27,0,0,0-.85-.24,1.08,1.08,0,0,0-1.2.9,4.58,4.58,0,0,0-.09,1v5.81a5.61,5.61,0,0,0,.08,1,1.19,1.19,0,0,0,.37.68A1.22,1.22,0,0,0,352.06,150.3Z" style="fill:#263238"></path><path d="M357.4,151.82v-12.6h3a6.47,6.47,0,0,1,2.15.31,2.45,2.45,0,0,1,1.34,1,3.78,3.78,0,0,1,.46,2,6.28,6.28,0,0,1-.14,1.37,2.77,2.77,0,0,1-.48,1,2.21,2.21,0,0,1-.92.66l1.75,6.2h-2.3l-1.52-5.77H359.7v5.77Zm2.3-7.21h.72a2.41,2.41,0,0,0,1.06-.2,1.16,1.16,0,0,0,.57-.62,3.1,3.1,0,0,0,.17-1.1,2.39,2.39,0,0,0-.35-1.42,1.55,1.55,0,0,0-1.33-.48h-.84Z" style="fill:#263238"></path><path d="M367.32,151.82v-10.9h-2v-1.7h6.28v1.7h-2v10.9Z" style="fill:#263238"></path></g><g id="freepik--Satisfaction--inject-111"><rect x="178.26" y="73.19" width="9.55" height="27.07" style="fill:#fff;stroke:#263238;stroke-linecap:round;stroke-linejoin:round"></rect><rect x="167.62" y="70.69" width="12.74" height="32.08" style="fill:#263238;stroke:#263238;stroke-linecap:round;stroke-linejoin:round"></rect><path d="M216.13,104H188.44a4.58,4.58,0,0,1-4.57-4.57l3.94-26.23a4.57,4.57,0,0,1,4.57-4.57h23.75a5.77,5.77,0,0,1,5.77,5.77V98.23A5.76,5.76,0,0,1,216.13,104Z" style="fill:#fff;stroke:#263238;stroke-linecap:round;stroke-linejoin:round"></path><path d="M185.73,89.1S184.4,70.75,191.05,66,202,55.33,202,51.34s6.65-3.19,6.38,3.45S203.55,69.42,203,71,208.6,83,202,91.23" style="fill:#fff;stroke:#263238;stroke-linecap:round;stroke-linejoin:round"></path><rect x="212.32" y="65.43" width="20.59" height="9.31" rx="2.97" style="fill:#fff;stroke:#263238;stroke-linecap:round;stroke-linejoin:round"></rect><rect x="209.93" y="75" width="20.59" height="9.31" rx="2.97" style="fill:#fff;stroke:#263238;stroke-linecap:round;stroke-linejoin:round"></rect><rect x="209.93" y="84.05" width="20.59" height="9.31" rx="2.97" style="fill:#fff;stroke:#263238;stroke-linecap:round;stroke-linejoin:round"></rect><rect x="208.94" y="93.22" width="17.02" height="7.69" rx="2.71" style="fill:#fff;stroke:#263238;stroke-linecap:round;stroke-linejoin:round"></rect><path d="M232.1,44a3.47,3.47,0,0,1,0,4.9l-.48.47-4.89,4.9-4.89-4.9-.48-.48a3.46,3.46,0,0,1,0-4.89h0a3.47,3.47,0,0,1,4.9,0l.47.48.48-.48a3.46,3.46,0,0,1,4.89,0Z" style="fill:#8E54E9;stroke:#263238;stroke-linecap:round;stroke-linejoin:round"></path><path d="M174.11,62.26a6.07,6.07,0,0,1,0,8.58l-.83.83-8.58,8.59-8.59-8.59-.83-.83a6.07,6.07,0,0,1,0-8.58h0a6.07,6.07,0,0,1,8.58,0l.84.83.83-.83a6.07,6.07,0,0,1,8.58,0Z" style="fill:#8E54E9;stroke:#263238;stroke-linecap:round;stroke-linejoin:round"></path><path d="M248.56,95.63a5,5,0,0,1,0,7.11l-.69.68-7.11,7.12-7.11-7.12-.69-.68a5,5,0,0,1,0-7.11h0a5,5,0,0,1,7.11,0l.69.69.69-.69a5,5,0,0,1,7.11,0Z" style="fill:#8E54E9;stroke:#263238;stroke-linecap:round;stroke-linejoin:round"></path><path d="M164.21,128.17a3.79,3.79,0,0,1-1.9-.44,2.81,2.81,0,0,1-1.15-1.3,5.54,5.54,0,0,1-.44-2.1l2-.39a5.9,5.9,0,0,0,.18,1.29,1.9,1.9,0,0,0,.45.86,1.09,1.09,0,0,0,.8.31.9.9,0,0,0,.79-.34,1.4,1.4,0,0,0,.24-.85,2.27,2.27,0,0,0-.38-1.35,6,6,0,0,0-1-1.06l-1.59-1.4a4.77,4.77,0,0,1-1.07-1.28,3.59,3.59,0,0,1-.39-1.75,3,3,0,0,1,.87-2.3,3.35,3.35,0,0,1,2.38-.81,3.59,3.59,0,0,1,1.48.27,2.34,2.34,0,0,1,.94.75,3.38,3.38,0,0,1,.52,1.1,6.66,6.66,0,0,1,.22,1.3l-2,.34a7.68,7.68,0,0,0-.13-1.06,1.52,1.52,0,0,0-.36-.73,1,1,0,0,0-.76-.26,1,1,0,0,0-.78.33,1.3,1.3,0,0,0-.28.83,1.92,1.92,0,0,0,.27,1.06,4.37,4.37,0,0,0,.76.84l1.57,1.39a6.32,6.32,0,0,1,1.33,1.53,3.9,3.9,0,0,1,.56,2.12,3.26,3.26,0,0,1-.4,1.61,2.84,2.84,0,0,1-1.11,1.09A3.25,3.25,0,0,1,164.21,128.17Z" style="fill:#263238"></path><path d="M168,128l2.52-12.6H173l2.52,12.6h-2.13l-.5-2.91h-2.2l-.51,2.91Zm2.91-4.37h1.71l-.86-5.29Z" style="fill:#263238"></path><path d="M177.45,128V117.09h-2V115.4h6.29v1.69h-2V128Z" style="fill:#263238"></path><path d="M182.94,128V115.4h2.27V128Z" style="fill:#263238"></path><path d="M190.33,128.17a3.79,3.79,0,0,1-1.9-.44,2.81,2.81,0,0,1-1.15-1.3,5.54,5.54,0,0,1-.44-2.1l2-.39a5.9,5.9,0,0,0,.18,1.29,1.9,1.9,0,0,0,.45.86,1.09,1.09,0,0,0,.8.31.9.9,0,0,0,.79-.34,1.4,1.4,0,0,0,.24-.85,2.27,2.27,0,0,0-.38-1.35,5.65,5.65,0,0,0-1-1.06l-1.59-1.4a4.73,4.73,0,0,1-1.06-1.28,3.48,3.48,0,0,1-.4-1.75,3,3,0,0,1,.87-2.3,3.35,3.35,0,0,1,2.38-.81,3.59,3.59,0,0,1,1.48.27,2.34,2.34,0,0,1,.94.75,3.38,3.38,0,0,1,.52,1.1,6.66,6.66,0,0,1,.22,1.3l-2,.34a7.68,7.68,0,0,0-.13-1.06,1.52,1.52,0,0,0-.36-.73,1,1,0,0,0-.76-.26,1,1,0,0,0-.78.33,1.29,1.29,0,0,0-.27.83,1.92,1.92,0,0,0,.26,1.06,4.37,4.37,0,0,0,.76.84l1.57,1.39a6.11,6.11,0,0,1,1.33,1.53,3.9,3.9,0,0,1,.56,2.12,3.26,3.26,0,0,1-.4,1.61,2.81,2.81,0,0,1-1.1,1.09A3.32,3.32,0,0,1,190.33,128.17Z" style="fill:#263238"></path><path d="M194.72,128V115.4h5.18V117H197v3.68h2.35v1.6H197V128Z" style="fill:#263238"></path><path d="M200.13,128l2.52-12.6h2.46l2.52,12.6H205.5l-.5-2.91h-2.19l-.52,2.91Zm2.91-4.37h1.71l-.86-5.29Z" style="fill:#263238"></path><path d="M212.14,128.17a3.71,3.71,0,0,1-2.17-.55,2.84,2.84,0,0,1-1.1-1.48,7.14,7.14,0,0,1-.31-2.17v-4.5a7.48,7.48,0,0,1,.31-2.24,2.72,2.72,0,0,1,1.1-1.46,4.93,4.93,0,0,1,4.22-.07,2.48,2.48,0,0,1,1.05,1.27,5.58,5.58,0,0,1,.31,1.91v1.06h-2.21v-1.09a7.06,7.06,0,0,0-.06-1,1.18,1.18,0,0,0-.29-.7,1.11,1.11,0,0,0-.83-.25,1.19,1.19,0,0,0-.87.27,1.29,1.29,0,0,0-.35.73,6.47,6.47,0,0,0-.08,1v5.47a5,5,0,0,0,.11,1.13,1.21,1.21,0,0,0,.4.67,1.24,1.24,0,0,0,.79.22,1,1,0,0,0,.81-.27,1.4,1.4,0,0,0,.31-.72,7.73,7.73,0,0,0,.06-1v-1.14h2.21v1a6.08,6.08,0,0,1-.3,2,2.63,2.63,0,0,1-1,1.35A3.74,3.74,0,0,1,212.14,128.17Z" style="fill:#263238"></path><path d="M218.41,128V117.09h-2V115.4h6.29v1.69h-2V128Z" style="fill:#263238"></path><path d="M223.9,128V115.4h2.27V128Z" style="fill:#263238"></path><path d="M231.54,128.17a4,4,0,0,1-2.13-.5,2.76,2.76,0,0,1-1.14-1.43,6.62,6.62,0,0,1-.34-2.21v-4.71a6.46,6.46,0,0,1,.34-2.19,2.67,2.67,0,0,1,1.14-1.39,4.1,4.1,0,0,1,2.13-.48,4.17,4.17,0,0,1,2.16.48,2.7,2.7,0,0,1,1.13,1.39,6.21,6.21,0,0,1,.35,2.19v4.73a6.19,6.19,0,0,1-.35,2.18,2.79,2.79,0,0,1-1.13,1.43A4,4,0,0,1,231.54,128.17Zm0-1.7a1,1,0,0,0,1.21-.93,4.07,4.07,0,0,0,.1-1v-5.8a4,4,0,0,0-.1-1,1.19,1.19,0,0,0-.36-.66,1.27,1.27,0,0,0-.85-.24,1.22,1.22,0,0,0-.82.24,1.15,1.15,0,0,0-.38.66,4.58,4.58,0,0,0-.09,1v5.8a5.61,5.61,0,0,0,.08,1,1.22,1.22,0,0,0,.37.69A1.28,1.28,0,0,0,231.54,126.47Z" style="fill:#263238"></path><path d="M236.88,128V115.4h1.6l3.06,7.18V115.4h1.9V128h-1.52l-3.08-7.53V128Z" style="fill:#263238"></path></g><g id="freepik--Reward--inject-111"><path d="M59.48,154.74s-1.15-4.49-9.11-8.81-8.72,8.16-5.32,10.86S59.48,154.74,59.48,154.74Z" style="fill:#8E54E9;stroke:#263238;stroke-linecap:round;stroke-linejoin:round"></path><path d="M59.48,154.74A94.72,94.72,0,0,1,43.37,148c-8-4.32-8.72,8.16-5.32,10.86S59.48,154.74,59.48,154.74Z" style="fill:#8E54E9;stroke:#263238;stroke-linecap:round;stroke-linejoin:round"></path><path d="M58.3,154.44s-8.54.93-11.8.29-6.2-.16-4.32.75,2.62.29,2.62.29" style="fill:none;stroke:#263238;stroke-linecap:round;stroke-linejoin:round"></path><path d="M62.89,153.73s-1.49-4.39,2.83-12.36,11.76,2.08,10.38,6.21S62.89,153.73,62.89,153.73Z" style="fill:#8E54E9;stroke:#263238;stroke-linecap:round;stroke-linejoin:round"></path><path d="M62.89,153.73a95,95,0,0,0,9.83-14.43c4.31-8,11.75,2.08,10.38,6.2S62.89,153.73,62.89,153.73Z" style="fill:#8E54E9;stroke:#263238;stroke-linecap:round;stroke-linejoin:round"></path><path d="M63.72,152.83s7.66-3.88,10-6.19,5.09-3.52,4-1.73-2,1.67-2,1.67" style="fill:none;stroke:#263238;stroke-linecap:round;stroke-linejoin:round"></path><ellipse cx="61.07" cy="154.35" rx="4.48" ry="4.29" transform="translate(-41.41 23.77) rotate(-16.54)" style="fill:#8E54E9;stroke:#263238;stroke-linecap:round;stroke-linejoin:round"></ellipse><rect x="36.23" y="153.45" width="64.8" height="53.56" transform="matrix(0.96, -0.28, 0.28, 0.96, -48.46, 26.99)" style="fill:#fff;stroke:#263238;stroke-linecap:round;stroke-linejoin:round"></rect><rect x="60.3" y="153.45" width="16.65" height="53.56" transform="matrix(0.96, -0.28, 0.28, 0.96, -48.46, 26.99)" style="fill:#8E54E9;stroke:#263238;stroke-linecap:round;stroke-linejoin:round"></rect><path d="M118.91,162.35s1.63-4.34-2.44-12.44-11.81,1.7-10.57,5.87S118.91,162.35,118.91,162.35Z" style="fill:#8E54E9;stroke:#263238;stroke-linecap:round;stroke-linejoin:round"></path><path d="M118.91,162.35a94.68,94.68,0,0,1-9.36-14.74c-4.06-8.1-11.82,1.7-10.58,5.87S118.91,162.35,118.91,162.35Z" style="fill:#8E54E9;stroke:#263238;stroke-linecap:round;stroke-linejoin:round"></path><path d="M118.11,161.42s-7.54-4.12-9.85-6.5-5-3.68-4-1.86,2,1.74,2,1.74" style="fill:none;stroke:#263238;stroke-linecap:round;stroke-linejoin:round"></path><path d="M122.28,163.47s1.29-4.45,9.39-8.51,8.46,8.43,5,11S122.28,163.47,122.28,163.47Z" style="fill:#8E54E9;stroke:#263238;stroke-linecap:round;stroke-linejoin:round"></path><path d="M122.28,163.47a94.77,94.77,0,0,0,16.32-6.21c8.1-4.06,8.45,8.43,5,11S122.28,163.47,122.28,163.47Z" style="fill:#8E54E9;stroke:#263238;stroke-linecap:round;stroke-linejoin:round"></path><path d="M123.48,163.21s8.5,1.2,11.78.67,6.2,0,4.29.89-2.63.2-2.63.2" style="fill:none;stroke:#263238;stroke-linecap:round;stroke-linejoin:round"></path><path d="M124.69,164.35a4.48,4.48,0,1,1-2.9-5.48A4.38,4.38,0,0,1,124.69,164.35Z" style="fill:#8E54E9;stroke:#263238;stroke-linecap:round;stroke-linejoin:round"></path><rect x="79.42" y="161.71" width="64.8" height="53.56" transform="translate(65.1 -25.63) rotate(18.37)" style="fill:#fff;stroke:#263238;stroke-linecap:round;stroke-linejoin:round"></rect><rect x="103.5" y="161.71" width="16.65" height="53.56" transform="matrix(0.95, 0.32, -0.32, 0.95, 65.1, -25.63)" style="fill:#8E54E9;stroke:#263238;stroke-linecap:round;stroke-linejoin:round"></rect><path d="M61.28,247v-12.6h3a6.39,6.39,0,0,1,2.15.31,2.42,2.42,0,0,1,1.34,1,3.69,3.69,0,0,1,.46,2,6.28,6.28,0,0,1-.14,1.37,2.68,2.68,0,0,1-.47,1,2.31,2.31,0,0,1-.93.66l1.76,6.2h-2.3l-1.53-5.77H63.58V247Zm2.3-7.21h.72a2.41,2.41,0,0,0,1.06-.2,1.12,1.12,0,0,0,.57-.62,2.89,2.89,0,0,0,.17-1.1,2.32,2.32,0,0,0-.35-1.42,1.54,1.54,0,0,0-1.33-.48h-.84Z" style="fill:#263238"></path><path d="M70,247v-12.6h5.29V236h-3v3.62h2.35v1.61H72.28v4.17h3V247Z" style="fill:#263238"></path><path d="M78,247l-1.79-12.6H78.1l1,8.17,1.31-8.14H82l1.34,8.14,1-8.17h1.9L84.52,247H82.66l-1.4-8.44L79.87,247Z" style="fill:#263238"></path><path d="M86.69,247l2.52-12.6h2.45L94.19,247H92.05l-.49-2.91h-2.2L88.85,247Zm2.91-4.37h1.71l-.86-5.29Z" style="fill:#263238"></path><path d="M95.38,247v-12.6h3a6.49,6.49,0,0,1,2.16.31,2.43,2.43,0,0,1,1.33,1,3.69,3.69,0,0,1,.46,2,5.72,5.72,0,0,1-.14,1.37,2.68,2.68,0,0,1-.47,1,2.24,2.24,0,0,1-.93.66l1.76,6.2h-2.3l-1.53-5.77h-1V247Zm2.31-7.21h.71a2.46,2.46,0,0,0,1.07-.2A1.14,1.14,0,0,0,100,239a2.87,2.87,0,0,0,.18-1.1,2.39,2.39,0,0,0-.35-1.42,1.57,1.57,0,0,0-1.33-.48h-.84Z" style="fill:#263238"></path><path d="M104.08,247v-12.6h3a5.55,5.55,0,0,1,2.4.42,2.42,2.42,0,0,1,1.23,1.29,5.63,5.63,0,0,1,.37,2.21V243a6,6,0,0,1-.37,2.28,2.54,2.54,0,0,1-1.21,1.35,5,5,0,0,1-2.33.44Zm2.3-1.6h.7a1.8,1.8,0,0,0,1.14-.28,1.23,1.23,0,0,0,.42-.82,9.45,9.45,0,0,0,.08-1.31v-4.82a5.74,5.74,0,0,0-.11-1.23,1.14,1.14,0,0,0-.45-.69,2.22,2.22,0,0,0-1.11-.21h-.67Z" style="fill:#263238"></path></g><g id="freepik--Trust--inject-111"><path d="M106.36,289.45s-2.45-2.08-7.92-2.27a56.88,56.88,0,0,0-10.19.76,46.24,46.24,0,0,1-4.91-.38c-.94-.19-6.79-3.59-6.79-3.59L62,309.83l46,28.93a4.61,4.61,0,0,0,5.58-.4,3.34,3.34,0,0,0,.32-.33,3.43,3.43,0,0,0,.4-4s4.46,2.6,7.11-.11a5.12,5.12,0,0,0,1.23-5.61s3.57,1.35,5.95-.56,1-5.79,1-5.79,3.73.39,4.92-1.67.24-4.85.24-4.85Z" style="fill:#fff;stroke:#263238;stroke-linecap:round;stroke-linejoin:round"></path><path d="M79.67,318.26l-5.3,5.48a4.43,4.43,0,0,1-6.27.12h0a4.44,4.44,0,0,1-.12-6.28l5.3-5.49a4.44,4.44,0,0,1,6.28-.11h0A4.45,4.45,0,0,1,79.67,318.26Z" style="fill:#fff;stroke:#263238;stroke-linecap:round;stroke-linejoin:round"></path><path d="M89.2,321.18l-7.84,8.13a4.45,4.45,0,0,1-6.28.11h0a4.45,4.45,0,0,1-.11-6.28L82.81,315a4.45,4.45,0,0,1,6.28-.11h0A4.45,4.45,0,0,1,89.2,321.18Z" style="fill:#fff;stroke:#263238;stroke-linecap:round;stroke-linejoin:round"></path><path d="M95.65,327.63l-7.84,8.12a4.44,4.44,0,0,1-6.28.12h0a4.45,4.45,0,0,1-.11-6.28l7.84-8.13a4.45,4.45,0,0,1,6.28-.11h0A4.45,4.45,0,0,1,95.65,327.63Z" style="fill:#fff;stroke:#263238;stroke-linecap:round;stroke-linejoin:round"></path><path d="M101.45,334.43l-4.09,4.25a4.45,4.45,0,0,1-6.28.11h0a4.45,4.45,0,0,1-.11-6.28l4.09-4.24a4.43,4.43,0,0,1,6.28-.11h0A4.42,4.42,0,0,1,101.45,334.43Z" style="fill:#fff;stroke:#263238;stroke-linecap:round;stroke-linejoin:round"></path><line x1="114.31" y1="334.06" x2="103.64" y2="325.78" style="fill:#fff;stroke:#263238;stroke-linecap:round;stroke-linejoin:round"></line><line x1="122.64" y1="328.45" x2="110.9" y2="319.22" style="fill:#fff;stroke:#263238;stroke-linecap:round;stroke-linejoin:round"></line><line x1="130.29" y1="322.58" x2="118.55" y2="313.35" style="fill:#fff;stroke:#263238;stroke-linecap:round;stroke-linejoin:round"></line><path d="M144.11,277l-22.65,13.78s-11.7-6.42-14.91-4.34-9.62,6-11.7,7.17-5.85,1.51-4.53,4.34,4.34,2.45,8.12,2.83,12.45-4,12.45-4l24,18.7L159.09,301Z" style="fill:#fff;stroke:#263238;stroke-linecap:round;stroke-linejoin:round"></path><polygon points="129.28 285.76 143.47 310.19 159.09 300.98 144.1 276.99 129.28 285.76" style="fill:#8E54E9;stroke:#263238;stroke-linecap:round;stroke-linejoin:round"></polygon><polygon points="133.53 279.23 150.9 309.01 168.23 299.42 150.82 269 133.53 279.23" style="fill:#8E54E9;stroke:#263238;stroke-linecap:round;stroke-linejoin:round"></polygon><path d="M146.2,305.67a1.45,1.45,0,1,1-1.45-1.46A1.45,1.45,0,0,1,146.2,305.67Z" style="fill:#fff;stroke:#263238;stroke-linecap:round;stroke-linejoin:round"></path><rect x="57.91" y="277.68" width="14.75" height="35.48" transform="translate(161.13 8.45) rotate(30.93)" style="fill:#fff;stroke:#263238;stroke-linecap:round;stroke-linejoin:round"></rect><rect x="53.38" y="275.02" width="14.75" height="35.48" transform="matrix(0.86, 0.51, -0.51, 0.86, 159.12, 10.4)" style="fill:#263238;stroke:#263238;stroke-linecap:round;stroke-linejoin:round"></rect><circle cx="56.6" cy="306.27" r="1.34" style="fill:#fff;stroke:#263238;stroke-linecap:round;stroke-linejoin:round"></circle><path d="M54.7,304.06a1.34,1.34,0,1,1-1.34-1.34A1.34,1.34,0,0,1,54.7,304.06Z" style="fill:#fff;stroke:#263238;stroke-linecap:round;stroke-linejoin:round"></path><path d="M87.84,366v-10.9h-2v-1.7h6.29v1.7h-2V366Z" style="fill:#263238"></path><path d="M93.27,366v-12.6h3a6.67,6.67,0,0,1,2.15.3,2.48,2.48,0,0,1,1.34,1,3.69,3.69,0,0,1,.46,2,6.34,6.34,0,0,1-.14,1.37,2.57,2.57,0,0,1-.47,1,2.13,2.13,0,0,1-.93.66l1.76,6.21h-2.3l-1.53-5.77H95.57V366Zm2.3-7.22h.72a2.42,2.42,0,0,0,1.06-.19,1.12,1.12,0,0,0,.57-.62,2.89,2.89,0,0,0,.17-1.1,2.32,2.32,0,0,0-.35-1.42,1.54,1.54,0,0,0-1.33-.48h-.84Z" style="fill:#263238"></path><path d="M105.41,366.2a4,4,0,0,1-2.18-.51,2.64,2.64,0,0,1-1.08-1.46,7.93,7.93,0,0,1-.29-2.27v-8.53h2.24v8.79a6.59,6.59,0,0,0,.08,1.11,1.54,1.54,0,0,0,.36.84,1.08,1.08,0,0,0,.87.32,1.06,1.06,0,0,0,.87-.32,1.62,1.62,0,0,0,.36-.84,6.57,6.57,0,0,0,.09-1.11v-8.79H109V362a7.93,7.93,0,0,1-.29,2.27,2.67,2.67,0,0,1-1.07,1.46A3.93,3.93,0,0,1,105.41,366.2Z" style="fill:#263238"></path><path d="M113.93,366.2a3.69,3.69,0,0,1-1.9-.44,2.81,2.81,0,0,1-1.15-1.3,5.54,5.54,0,0,1-.43-2.1l2-.39a5.9,5.9,0,0,0,.18,1.29,1.94,1.94,0,0,0,.45.87,1.09,1.09,0,0,0,.8.3.91.91,0,0,0,.8-.33,1.52,1.52,0,0,0,.23-.85,2.32,2.32,0,0,0-.37-1.36,5.7,5.7,0,0,0-1-1.05l-1.59-1.41a4.73,4.73,0,0,1-1.06-1.28,3.46,3.46,0,0,1-.4-1.75,3,3,0,0,1,.87-2.3,3.37,3.37,0,0,1,2.38-.81,3.56,3.56,0,0,1,1.48.27,2.36,2.36,0,0,1,.94.76,3.14,3.14,0,0,1,.52,1.09,6.09,6.09,0,0,1,.22,1.3l-2,.35a6.27,6.27,0,0,0-.13-1.06,1.48,1.48,0,0,0-.36-.73,1,1,0,0,0-.75-.27.94.94,0,0,0-.79.34,1.27,1.27,0,0,0-.27.83,2,2,0,0,0,.26,1.05,4.16,4.16,0,0,0,.77.85l1.57,1.38a6.72,6.72,0,0,1,1.33,1.53,4,4,0,0,1,.55,2.13,3.14,3.14,0,0,1-.4,1.6,2.84,2.84,0,0,1-1.1,1.1A3.39,3.39,0,0,1,113.93,366.2Z" style="fill:#263238"></path><path d="M119.7,366v-10.9h-2v-1.7H124v1.7h-2V366Z" style="fill:#263238"></path></g><g id="freepik--Fireworks--inject-111"><path d="M279.74,239.47a100.94,100.94,0,0,1,6.95-12.33,127.69,127.69,0,0,1,8.41-11.47,121.72,121.72,0,0,1,20.74-19.93,116.76,116.76,0,0,1,12.28-8,108.35,108.35,0,0,1,13.41-6.25A105,105,0,0,1,362.28,176a7.39,7.39,0,0,1,8.6,7.12h0a7.4,7.4,0,0,1-7.22,7.54,91.56,91.56,0,0,0-18.51,2.43,97.63,97.63,0,0,0-12.63,4,107.57,107.57,0,0,0-12.09,5.75,115.22,115.22,0,0,0-21.91,16.12,125.07,125.07,0,0,0-9.55,10,98.75,98.75,0,0,0-8.34,11.08Z" style="fill:#263238"></path><path d="M227.36,239.47a100.94,100.94,0,0,0-7-12.33A129.67,129.67,0,0,0,212,215.67a121.42,121.42,0,0,0-20.75-19.93,115.6,115.6,0,0,0-12.27-8,108.49,108.49,0,0,0-13.42-6.25A104.82,104.82,0,0,0,144.81,176a7.39,7.39,0,0,0-8.59,7.12h0a7.4,7.4,0,0,0,7.22,7.54A91.56,91.56,0,0,1,162,193.05a97,97,0,0,1,12.62,4,105.93,105.93,0,0,1,12.09,5.75,114.59,114.59,0,0,1,21.91,16.12,123.44,123.44,0,0,1,9.56,10,98.75,98.75,0,0,1,8.34,11.08Z" style="fill:#8E54E9"></path><path d="M220.09,142.64a9,9,0,0,1,13.59,4,145.78,145.78,0,0,1,10.13,51.16l-1,.17a136,136,0,0,0-24.35-42.29,8.94,8.94,0,0,1,1.62-13Z" style="fill:#263238"></path><path d="M356,245.31a9,9,0,0,0-6.14-12.77,145.58,145.58,0,0,0-52.13-1.7v1A136.26,136.26,0,0,1,343.38,249a9,9,0,0,0,12.6-3.7Z" style="fill:#8E54E9"></path><path d="M139.4,249.22a9,9,0,0,1,5.33-13.13,145.57,145.57,0,0,1,51.92-5l.06,1a136.07,136.07,0,0,0-44.51,20,8.94,8.94,0,0,1-12.8-2.9Z" style="fill:#263238"></path><path d="M301.76,124.17A11.39,11.39,0,0,0,284,127.32a185.32,185.32,0,0,0-19.89,63.21l1.23.34a172.89,172.89,0,0,1,36.61-50,11.37,11.37,0,0,0-.23-16.68Z" style="fill:#8E54E9"></path><circle cx="192.11" cy="166.66" r="7.94" transform="translate(-61.58 184.65) rotate(-45)" style="fill:#8E54E9"></circle><path d="M243.82,217.05a6.07,6.07,0,1,1-6.07-6.07A6.07,6.07,0,0,1,243.82,217.05Z" style="fill:#263238"></path><path d="M318.21,179.85a4.75,4.75,0,1,1-4.74-4.75A4.75,4.75,0,0,1,318.21,179.85Z" style="fill:#8E54E9"></path><path d="M175.75,218.37a4.75,4.75,0,1,1-4.75-4.75A4.75,4.75,0,0,1,175.75,218.37Z" style="fill:#263238"></path><path d="M301.33,242.9a2.9,2.9,0,1,1-2.9-2.9A2.9,2.9,0,0,1,301.33,242.9Z" style="fill:#8E54E9"></path><circle cx="340.64" cy="209.13" r="3.43" style="fill:#263238"></circle></g><g id="freepik--Floor--inject-111"><line x1="468" y1="459.83" x2="484.54" y2="459.83" style="fill:none;stroke:#263238;stroke-linecap:round;stroke-linejoin:round"></line><line x1="449.09" y1="459.83" x2="459.6" y2="459.83" style="fill:none;stroke:#263238;stroke-linecap:round;stroke-linejoin:round"></line><line x1="44.09" y1="459.83" x2="442.78" y2="459.83" style="fill:none;stroke:#263238;stroke-linecap:round;stroke-linejoin:round"></line><line x1="14.91" y1="459.83" x2="37.08" y2="459.83" style="fill:none;stroke:#263238;stroke-linecap:round;stroke-linejoin:round"></line></g></svg>
