<svg xmlns="http://www.w3.org/2000/svg" viewBox="194.17 98.24 341.08 375.94"><g id="freepik--ring-binder--inject-429"><polygon points="224.58 98.74 218.31 135.44 218.31 474.18 523.28 474.18 523.28 452.65 224.58 98.74" style="fill:#8E54E9"/><path d="M224.58,98.74H518a12.2,12.2,0,0,1,12.2,12.2v333.8a12.2,12.2,0,0,1-12.2,12.2H224.58a0,0,0,0,1,0,0V98.74A0,0,0,0,1,224.58,98.74Z" style="fill:#8E54E9"/><path d="M518,457.43h-294V98.24H518a12.71,12.71,0,0,1,12.69,12.7v333.8A12.7,12.7,0,0,1,518,457.43Zm-293-1H518a11.7,11.7,0,0,0,11.69-11.69V110.94A11.71,11.71,0,0,0,518,99.24h-293Z" style="fill:#263238"/><polygon points="497.23 108.99 514.16 137.22 514.16 446.31 250.32 443.68 235.88 428.74 497.23 108.99" style="fill:#e0e0e0"/><rect x="235.88" y="107.63" width="261.35" height="321.11" style="fill:#fff"/><path d="M497.23,428.74c0-2-.09-130.13-.23-321.11l.23.23-261.33,0h0l.26-.26c0,118.79,0,229.27,0,321.11l-.21-.22,261.35.22L235.88,429h-.22v-.22c0-91.84,0-202.32,0-321.11v-.26h.28l261.33,0h.23v.23C497.33,298.61,497.23,426.71,497.23,428.74Z" style="fill:#263238"/><path d="M268,215.76c0,3.61-2.66,6.54-5.93,6.54s-5.93-2.93-5.93-6.54,2.65-6.53,5.93-6.53S268,212.16,268,215.76Z" style="fill:#263238"/><g style="opacity:0.30000000000000004"><polygon points="224.58 261.86 235.88 261.86 235.85 252.13 224.58 252.13 224.58 261.86"/></g><path d="M230,183.41c-19.66,0-35.65,15.56-35.65,34.69s16.18,34.7,35.84,34.7h5.68l-.09-8.23-5.59.23c-15.65,0-28.58-12-28.58-26.7s12.73-26.69,28.39-26.69,28.39,12,28.39,26.69a3.65,3.65,0,1,0,7.26,0C265.66,199,249.66,183.41,230,183.41Z" style="fill:#e0e0e0"/><path d="M230,183.41s.28,0,.84,0l2.48.1c1.09.1,2.42.31,4,.55a39.19,39.19,0,0,1,5.3,1.52,36.57,36.57,0,0,1,12.74,7.95l1.54,1.65c.26.28.53.55.78.84l.72.93c.47.64,1,1.25,1.44,1.92l1.32,2.1a35.64,35.64,0,0,1,3.87,9.83,33.69,33.69,0,0,1,.72,5.66,8.35,8.35,0,0,1-.11,3,4.12,4.12,0,0,1-1.91,2.41,3.58,3.58,0,0,1-3.13.15,4,4,0,0,1-2.15-2.36,5,5,0,0,1-.28-1.63l-.09-1.58a21.77,21.77,0,0,0-.4-3.18,26,26,0,0,0-5.85-11.85,29.85,29.85,0,0,0-8.27-6.48c-.53-.27-1.09-.5-1.64-.76a13.58,13.58,0,0,0-1.67-.68l-1.73-.59c-.58-.18-1.19-.3-1.78-.45a31.25,31.25,0,0,0-3.65-.63,30.51,30.51,0,0,0-7.51.2,32.43,32.43,0,0,0-3.75.78c-.61.18-1.21.41-1.83.61l-.91.32-.89.4a27.56,27.56,0,0,0-6.66,4.07,26.31,26.31,0,0,0-5.35,5.88,24.32,24.32,0,0,0-3.37,7.33,22.25,22.25,0,0,0-.87,8.13,23.43,23.43,0,0,0,1.86,8.07,27.58,27.58,0,0,0,13.42,13.95,28.32,28.32,0,0,0,9.17,2.72,32.64,32.64,0,0,0,4.7.23l4.67-.19h.27v.26q0,4.19.08,8.23v.25h-.25c-2.11,0-4.2,0-6.27,0l-3.11-.16-3.05-.46a37.64,37.64,0,0,1-11.23-4.09c-.84-.51-1.71-.95-2.5-1.52l-2.33-1.69-2.15-1.88a8.59,8.59,0,0,1-1-1l-1-1a35,35,0,0,1-6-9c-.41-.79-.65-1.64-1-2.44l-.46-1.22-.34-1.25c-.2-.83-.47-1.64-.62-2.47s-.26-1.67-.39-2.49a33.62,33.62,0,0,1,.19-9.58,31.54,31.54,0,0,1,1-4.44,18.27,18.27,0,0,1,.73-2.08c.27-.67.48-1.37.8-2a33.93,33.93,0,0,1,2-3.69c.36-.57.72-1.14,1.07-1.71s.8-1.05,1.19-1.57a35.44,35.44,0,0,1,10.41-9c.44-.25.86-.52,1.29-.74l1.31-.61a21.83,21.83,0,0,1,2.48-1.07l2.34-.82c.75-.22,1.48-.37,2.16-.55a26.67,26.67,0,0,1,3.68-.67c.53-.07,1-.17,1.48-.19l1.23-.05,1.66-.07H230l-.57.05-1.66.1-1.22.07c-.46,0-.94.14-1.48.21a28.61,28.61,0,0,0-3.65.71c-.68.18-1.4.34-2.15.57L217,186A21.71,21.71,0,0,0,214.5,187l-1.29.62c-.43.22-.84.49-1.28.74a35.34,35.34,0,0,0-10.28,9c-.39.51-.8,1-1.17,1.56l-1.06,1.69a36.16,36.16,0,0,0-1.93,3.66c-.31.63-.51,1.32-.78,2a19.24,19.24,0,0,0-.72,2.06,32.24,32.24,0,0,0-1,4.39,32.88,32.88,0,0,0-.16,9.47q.19,1.22.39,2.46c.15.82.41,1.62.62,2.44l.33,1.23.46,1.2c.33.8.57,1.64,1,2.41a34.4,34.4,0,0,0,6,8.91l1,1a8.42,8.42,0,0,0,1,1l2.12,1.85,2.31,1.67c.78.55,1.64,1,2.47,1.5a37.6,37.6,0,0,0,11.09,4l3,.44,3.07.16c2.06.05,4.15,0,6.26,0l-.25.25c0-2.7-.06-5.43-.09-8.22l.26.25-4.68.19a19,19,0,0,1-2.38,0,17.54,17.54,0,0,1-2.4-.21A28.85,28.85,0,0,1,217,242a28.08,28.08,0,0,1-13.67-14.22,23.9,23.9,0,0,1-1.9-8.24,23.16,23.16,0,0,1,.89-8.3,24.79,24.79,0,0,1,3.44-7.47,26.86,26.86,0,0,1,5.45-6,28.09,28.09,0,0,1,6.79-4.14l.9-.41.94-.32c.62-.2,1.23-.44,1.86-.62a31.67,31.67,0,0,1,3.8-.79,30.6,30.6,0,0,1,7.64-.19,30.25,30.25,0,0,1,3.71.64c.6.15,1.21.28,1.81.45l1.75.61a13.34,13.34,0,0,1,1.71.7c.55.26,1.12.49,1.66.77a29.31,29.31,0,0,1,3.09,1.89,28.81,28.81,0,0,1,5.3,4.71,26.38,26.38,0,0,1,5.93,12.07,24,24,0,0,1,.41,3.23c0,.54.05,1.08.08,1.61a4.55,4.55,0,0,0,.25,1.48,3.61,3.61,0,0,0,1.92,2.13,3.13,3.13,0,0,0,2.77-.12,3.7,3.7,0,0,0,1.73-2.17,8,8,0,0,0,.11-2.85,34,34,0,0,0-.7-5.6,35.06,35.06,0,0,0-3.8-9.74l-1.29-2.09c-.45-.67-1-1.28-1.43-1.9l-.7-.93c-.25-.29-.52-.56-.78-.84l-1.52-1.64a36.4,36.4,0,0,0-12.6-8,40.55,40.55,0,0,0-5.26-1.56c-1.57-.25-2.9-.48-4-.6l-2.47-.14Z" style="fill:#263238"/><path d="M268,310.11c0,3.61-2.66,6.54-5.93,6.54s-5.93-2.93-5.93-6.54,2.65-6.53,5.93-6.53S268,306.5,268,310.11Z" style="fill:#263238"/><rect x="276.9" y="188.62" width="201.33" height="8.43" style="fill:#8E54E9"/><rect x="276.9" y="178.29" width="117.34" height="8.43" style="fill:#8E54E9"/><rect x="276.9" y="369.8" width="117.34" height="8.43" style="fill:#8E54E9"/><rect x="277.77" y="160.15" width="201.58" height="12.29" style="fill:#e0e0e0"/><rect x="275.6" y="272.82" width="201.58" height="12.29" style="fill:#e0e0e0"/><rect x="277.77" y="212.28" width="80.39" height="12.29" style="fill:#e0e0e0"/><rect x="376.67" y="212.28" width="100.51" height="12.29" style="fill:#e0e0e0"/><path d="M394.24,183.31c0,.14-25.86.25-57.77.25s-57.78-.11-57.78-.25,25.87-.26,57.78-.26S394.24,183.16,394.24,183.31Z" style="fill:#263238"/><path d="M478.23,193c0,.14-44.72.26-99.87.26s-99.88-.12-99.88-.26,44.71-.26,99.88-.26S478.23,192.83,478.23,193Z" style="fill:#263238"/><path d="M478.23,202.14c0,.14-44.72.26-99.87.26s-99.88-.12-99.88-.26,44.71-.26,99.88-.26S478.23,202,478.23,202.14Z" style="fill:#263238"/><path d="M357.47,232.07c0,.14-18,.26-40.17.26s-40.16-.12-40.16-.26,18-.26,40.16-.26S357.47,231.93,357.47,232.07Z" style="fill:#263238"/><path d="M357.47,241.51c0,.14-17.69.26-39.5.26s-39.5-.12-39.5-.26,17.68-.26,39.5-.26S357.47,241.37,357.47,241.51Z" style="fill:#263238"/><path d="M357.14,251.11c0,.14-17.84.26-39.84.26s-39.83-.12-39.83-.26,17.83-.26,39.83-.26S357.14,251,357.14,251.11Z" style="fill:#263238"/><path d="M357.14,260.42c0,.14-17.84.26-39.84.26s-39.83-.12-39.83-.26,17.83-.26,39.83-.26S357.14,260.28,357.14,260.42Z" style="fill:#263238"/><path d="M475.63,234.28c0,.15-18.62.26-41.59.26s-41.61-.11-41.61-.26S411.06,234,434,234,475.63,234.14,475.63,234.28Z" style="fill:#263238"/><path d="M386.05,237.29a12.07,12.07,0,0,1-.11-1.72c0-1.07-.09-2.54-.11-4.3l.22.23-5.73,0,.24-.26h0v1.6c0,.53,0,1,0,1.55,0,1,0,2,0,2.84l-.21-.22c1.67,0,3.07.07,4.08.11a16.51,16.51,0,0,1,1.65.11,7.59,7.59,0,0,1-1.51.11c-1,0-2.46.1-4.22.12h-.22v-.23c0-.88,0-1.84,0-2.84,0-.5,0-1,0-1.55v-1.6h0c-.22.24.3-.31.25-.26l5.73,0h.21v.22c0,1.86-.07,3.39-.11,4.44A10.44,10.44,0,0,1,386.05,237.29Z" style="fill:#263238"/><path d="M475.63,245.85c0,.14-18.62.26-41.59.26s-41.61-.12-41.61-.26,18.63-.26,41.61-.26S475.63,245.7,475.63,245.85Z" style="fill:#263238"/><path d="M386.05,248.86a12.49,12.49,0,0,1-.11-1.73c0-1.06-.09-2.54-.11-4.29l.22.22-5.73,0c-.06.05.46-.49.24-.26h0v1.6c0,.53,0,1,0,1.56,0,1,0,1.95,0,2.84l-.21-.23c1.67,0,3.07.07,4.08.12a11.42,11.42,0,0,1,1.65.11,10.32,10.32,0,0,1-1.51.11c-1,0-2.46.09-4.22.11h-.22v-.22c0-.89,0-1.84,0-2.84,0-.51,0-1,0-1.56v-1.6h0l.25-.26,5.73,0h.21v.23c0,1.85-.07,3.39-.11,4.43A10.88,10.88,0,0,1,386.05,248.86Z" style="fill:#263238"/><path d="M475.63,257.41c0,.14-18.62.26-41.59.26s-41.61-.12-41.61-.26,18.63-.26,41.61-.26S475.63,257.27,475.63,257.41Z" style="fill:#263238"/><path d="M386.05,260.42a12.31,12.31,0,0,1-.11-1.73c0-1.06-.09-2.53-.11-4.29l.22.22-5.73,0,.24-.26h0V256c0,.53,0,1.05,0,1.56,0,1,0,1.95,0,2.84l-.21-.22c1.67,0,3.07.07,4.08.11a13.5,13.5,0,0,1,1.65.11,8.75,8.75,0,0,1-1.51.11c-1,0-2.46.09-4.22.12h-.22v-.23c0-.89,0-1.84,0-2.84,0-.51,0-1,0-1.56v-1.61h0l.25-.26,5.73,0h.21v.22c0,1.86-.07,3.39-.11,4.44A10.81,10.81,0,0,1,386.05,260.42Z" style="fill:#263238"/><path d="M475.63,353s0-.34,0-1,0-1.62,0-2.88c0-2.54,0-6.29,0-11.16,0-9.73-.05-23.95-.09-41.92l.15.16-198.47.1h0l.25-.26c0,19.59,0,38.69,0,56.94l-.24-.25,141.75.11,41.64.08,11.19,0h2.91l1,0-1,0h-2.88l-11.14,0-41.58.07-141.92.11h-.24V353c0-18.25,0-37.35,0-56.94v-.26h.26l198.47.1h.16v.16c0,18-.07,32.26-.09,42,0,4.85,0,8.59,0,11.12,0,1.25,0,2.2,0,2.85S475.63,353,475.63,353Z" style="fill:#263238"/><path d="M475.63,310.41c0,.14-44.31.26-99,.26s-99-.12-99-.26,44.31-.26,99-.26S475.63,310.27,475.63,310.41Z" style="fill:#263238"/><path d="M475.63,324.55c0,.14-44.31.26-99,.26s-99-.12-99-.26,44.31-.26,99-.26S475.63,324.41,475.63,324.55Z" style="fill:#263238"/><path d="M475.63,338.84c0,.15-44.31.26-99,.26s-99-.11-99-.26,44.31-.26,99-.26S475.63,338.7,475.63,338.84Z" style="fill:#263238"/><path d="M300.22,353.52c-.14,0-.25-12.88-.25-28.76s.11-28.77.25-28.77.25,12.88.25,28.77S300.36,353.52,300.22,353.52Z" style="fill:#263238"/><path d="M367.34,351.79c-.14,0-.25-12.3-.25-27.47s.11-27.47.25-27.47.25,12.3.25,27.47S367.48,351.79,367.34,351.79Z" style="fill:#263238"/><path d="M438.06,354.38c-.13,0-.24-12.68-.24-28.33s.11-28.33.24-28.33.25,12.68.25,28.33S438.2,354.38,438.06,354.38Z" style="fill:#263238"/><path d="M471.69,365.78c0,.15-43.35.26-96.8.26s-96.8-.11-96.8-.26,43.33-.26,96.8-.26S471.69,365.64,471.69,365.78Z" style="fill:#263238"/><path d="M471.69,374c0,.15-43.35.26-96.8.26s-96.8-.11-96.8-.26,43.33-.26,96.8-.26S471.69,373.87,471.69,374Z" style="fill:#263238"/><path d="M348.54,382.24c0,.15-15.77.26-35.22.26s-35.23-.11-35.23-.26,15.77-.26,35.23-.26S348.54,382.1,348.54,382.24Z" style="fill:#263238"/><g style="opacity:0.30000000000000004"><polygon points="224.58 353.27 235.88 353.27 235.85 343.54 224.58 343.54 224.58 353.27"/></g><path d="M230,277c-19.66,0-35.65,15.56-35.65,34.69s16.18,34.7,35.84,34.7h5.68l-.09-8.23-5.59.23c-15.65,0-28.58-12-28.58-26.7S214.35,285,230,285s28.39,12,28.39,26.69a3.65,3.65,0,1,0,7.26,0C265.66,292.6,249.66,277,230,277Z" style="fill:#e0e0e0"/><path d="M230,277s.28,0,.84,0l2.48.1c1.09.09,2.42.31,4,.55a40.54,40.54,0,0,1,5.3,1.51,36.76,36.76,0,0,1,12.74,8l1.54,1.64c.26.28.53.55.78.85l.72.93c.47.63,1,1.24,1.44,1.92l1.32,2.1a35.64,35.64,0,0,1,3.87,9.83,33.69,33.69,0,0,1,.72,5.66,8.35,8.35,0,0,1-.11,3,4.12,4.12,0,0,1-1.91,2.41,3.58,3.58,0,0,1-3.13.15,4,4,0,0,1-2.15-2.37,5,5,0,0,1-.28-1.62l-.09-1.58a21.77,21.77,0,0,0-.4-3.18A26,26,0,0,0,251.84,295a28.19,28.19,0,0,0-5.22-4.63,30.17,30.17,0,0,0-3.05-1.85c-.53-.28-1.09-.5-1.64-.76a12.17,12.17,0,0,0-1.67-.68l-1.73-.6c-.58-.17-1.19-.29-1.78-.44a29.28,29.28,0,0,0-3.65-.63,31.17,31.17,0,0,0-11.26,1c-.61.17-1.21.41-1.83.61l-.91.32-.89.39a27.92,27.92,0,0,0-6.66,4.08,26.1,26.1,0,0,0-5.35,5.88,24.27,24.27,0,0,0-3.37,7.32,22.25,22.25,0,0,0-.87,8.13,23.33,23.33,0,0,0,1.86,8.07,27.56,27.56,0,0,0,13.42,14,28.3,28.3,0,0,0,9.17,2.71,15.42,15.42,0,0,0,2.35.2,18.4,18.4,0,0,0,2.35,0l4.67-.19h.27v.26q0,4.19.08,8.22v.26h-.25c-2.11,0-4.2,0-6.27,0l-3.11-.15-3.05-.46a37.64,37.64,0,0,1-11.23-4.09c-.84-.51-1.71-1-2.5-1.52l-2.33-1.7-2.15-1.88a8.51,8.51,0,0,1-1-1l-1-1a34.87,34.87,0,0,1-6-9c-.41-.78-.65-1.63-1-2.44l-.46-1.21-.34-1.25c-.2-.83-.47-1.65-.62-2.48l-.39-2.48a33.69,33.69,0,0,1,.19-9.59,31.72,31.72,0,0,1,1-4.43,18.27,18.27,0,0,1,.73-2.08c.27-.68.48-1.37.8-2a33.77,33.77,0,0,1,2-3.68l1.07-1.71c.38-.55.8-1.05,1.19-1.57a35.44,35.44,0,0,1,10.41-9.05c.44-.25.86-.52,1.29-.75l1.31-.6a20.17,20.17,0,0,1,2.48-1.07l2.34-.82c.75-.22,1.48-.38,2.16-.55a26.83,26.83,0,0,1,3.68-.68c.53-.06,1-.16,1.48-.19l1.23,0,1.66-.06c.38,0,.57,0,.57,0l-.57,0-1.66.11-1.22.07c-.46,0-.94.14-1.48.21a27,27,0,0,0-3.65.71c-.68.18-1.4.34-2.15.57l-2.31.83a21.82,21.82,0,0,0-2.47,1.08l-1.29.61c-.43.23-.84.5-1.28.75a35.3,35.3,0,0,0-10.28,9c-.39.52-.8,1-1.17,1.56l-1.06,1.7a36,36,0,0,0-1.93,3.65c-.31.63-.51,1.32-.78,2A20,20,0,0,0,196,302a34.56,34.56,0,0,0-1.14,13.87l.39,2.45c.15.82.41,1.62.62,2.45l.33,1.23.46,1.2c.33.79.57,1.63,1,2.41a34.4,34.4,0,0,0,6,8.91l1,1a8.34,8.34,0,0,0,1,1l2.12,1.85L210,340c.78.56,1.64,1,2.47,1.5a37,37,0,0,0,11.09,4l3,.45,3.07.15c2.06.06,4.15,0,6.26,0l-.25.25q0-4.05-.09-8.23l.26.25-4.68.19a19,19,0,0,1-2.38,0,17.52,17.52,0,0,1-2.4-.2,28.62,28.62,0,0,1-9.33-2.76,28,28,0,0,1-13.67-14.22,23.8,23.8,0,0,1-1.9-8.24,28,28,0,0,1,.07-4.2,28.34,28.34,0,0,1,.82-4.1,24.91,24.91,0,0,1,3.44-7.47,27.08,27.08,0,0,1,5.45-6,28.09,28.09,0,0,1,6.79-4.14l.9-.4.94-.32c.62-.21,1.23-.45,1.86-.62a31.72,31.72,0,0,1,3.8-.8,31.08,31.08,0,0,1,7.64-.19,34.61,34.61,0,0,1,3.71.64c.6.16,1.21.28,1.81.46l1.75.61a14.9,14.9,0,0,1,1.71.69c.55.26,1.12.5,1.66.78a29.31,29.31,0,0,1,3.09,1.89,28.1,28.1,0,0,1,5.3,4.71,26.28,26.28,0,0,1,5.93,12.07,23.77,23.77,0,0,1,.41,3.23c0,.54.05,1.07.08,1.61a4.6,4.6,0,0,0,.25,1.48,3.61,3.61,0,0,0,1.92,2.13,3.14,3.14,0,0,0,2.77-.13,3.67,3.67,0,0,0,1.73-2.17,7.93,7.93,0,0,0,.11-2.84,34,34,0,0,0-.7-5.6,35.13,35.13,0,0,0-3.8-9.75l-1.29-2.08c-.45-.67-1-1.28-1.43-1.91l-.7-.92c-.25-.3-.52-.57-.78-.85l-1.52-1.63a36.6,36.6,0,0,0-12.6-8,42,42,0,0,0-5.26-1.55c-1.57-.25-2.9-.49-4-.6l-2.47-.15Z" style="fill:#263238"/><g style="opacity:0.30000000000000004"><polygon points="224.58 456.93 218.31 474.18 523.28 474.18 523.28 456.93 224.58 456.93"/></g><path d="M243.38,436.5s.45,0,1.33,0h3.92l15.1,0,55.84.28,187,1.13-.26.26V412.58c0-79.76.05-151.95.07-204.21,0-26.13.07-47.27.09-61.89,0-7.3,0-13,0-16.82,0-1.92,0-3.39,0-4.38s0-1.49,0-1.49,0,.5,0,1.49,0,2.46,0,4.38c0,3.85,0,9.52.05,16.82,0,14.62.05,35.76.08,61.89,0,52.26.05,124.45.08,204.21v25.88h-.26l-186.95-1.29-55.85-.45-15.09-.14-3.92-.05Z" style="fill:#263238"/><path d="M239.05,432.25l1.33,0h19l55.72.13,186.67.61-.26.26c0-8.6,0-17.75,0-27,.12-80,.22-152.43.29-204.87.06-26.2.11-47.41.15-62.08,0-7.32.05-13,.06-16.88,0-1.92,0-3.39,0-4.39s0-1.49,0-1.49,0,.5,0,1.49,0,2.47,0,4.39c0,3.87,0,9.56,0,16.88,0,14.67,0,35.88,0,62.08,0,52.44-.08,124.86-.13,204.87,0,9.25,0,18.4,0,27v.26h-.26l-186.67-.78-55.72-.28-15.06-.11-3.91,0Z" style="fill:#263238"/><path d="M247.26,440.57h5.25l15.08.05,55.76.28L509.85,442l-.26.26c0-7.53.06-15.56.09-23.66.33-79.07.63-150.63.85-202.44.14-25.9.25-46.86.32-61.35,0-7.24.09-12.86.11-16.68,0-1.9,0-3.35.05-4.34s0-1.48,0-1.48,0,.51,0,1.48,0,2.44,0,4.34c0,3.82,0,9.44,0,16.68,0,14.49-.09,35.45-.15,61.35-.18,51.81-.43,123.37-.7,202.44,0,8.1-.06,16.13-.09,23.66v.26h-.26l-186.5-1.28-55.76-.44-15.08-.14-3.92-.05Z" style="fill:#263238"/><polygon points="502.03 144.82 526.52 144.82 535.25 154.62 527.66 166.3 502.01 166.3 502.03 144.82" style="fill:#455a64"/></g></svg>