<?xml version="1.0" encoding="UTF-8"?>
<svg version="1.1" xmlns="http://www.w3.org/2000/svg" width="251" height="279">
<path d="M0 0 C3.47407918 2.86192968 6.75031106 5.88754454 10 9 C10.639375 9.57621094 11.27875 10.15242188 11.9375 10.74609375 C24.97258242 22.87919502 32.6202854 41.32920066 33.28125 58.921875 C33.8142566 83.54196817 28.3085736 102.97649444 11.15429688 121.34594727 C0.50412465 132.36875861 -11.265724 138.57254724 -26 143 C-27.18722656 143.36931641 -27.18722656 143.36931641 -28.3984375 143.74609375 C-48.43608298 148.84338953 -69.77136489 144.0748686 -87.33007812 133.99951172 C-91.23475545 131.66241391 -94.64864665 129.07256821 -98 126 C-98.96550781 125.12601563 -99.93101563 124.25203125 -100.92578125 123.3515625 C-115.36321583 109.86366167 -124.4881396 91.89546535 -125.23828125 71.9453125 C-125.6625949 49.92835936 -121.25810812 29.74285156 -106 13 C-105.28457031 12.19304687 -104.56914063 11.38609375 -103.83203125 10.5546875 C-77.42920249 -17.61407272 -31.67734099 -22.7809449 0 0 Z M-95.859375 27.1328125 C-107.07334886 42.15298916 -110.23747801 59.75590965 -107.70703125 78.12695312 C-104.66393052 94.20957689 -94.28568887 107.88666475 -81.31640625 117.47265625 C-67.28636997 126.72348961 -51.25043644 130.09541786 -34.640625 127.46875 C-31.70428401 126.76889671 -28.86561176 125.94700475 -26 125 C-25.15050781 124.73316406 -24.30101562 124.46632813 -23.42578125 124.19140625 C-6.98243441 118.38331671 4.55310434 105.26445128 12 90 C19.13819295 73.94938116 17.96061112 56.81847629 11.8125 40.6875 C4.51218227 24.55226321 -8.03818829 13.4283968 -24.25 6.625 C-25.8239899 6.05675444 -27.40713389 5.51295688 -29 5 C-29.67804688 4.77570313 -30.35609375 4.55140625 -31.0546875 4.3203125 C-55.32352823 -2.36506627 -79.95565819 8.83797743 -95.859375 27.1328125 Z " fill="#121212" transform="translate(206,109)"/>
<path d="M0 0 C17.82120254 -0.63647152 33.59297424 1.57489931 47.41796875 13.9921875 C59.54529493 25.3886029 66.93800872 38.35439931 68.16796875 55.31640625 C68.30543773 71.12533913 64.88835414 86.13720171 54 98 C52.85144531 99.2684375 52.85144531 99.2684375 51.6796875 100.5625 C44.25592762 108.38188345 36.32062829 113.79704639 26 117 C24.68 117 23.36 117 22 117 C22 113.37 22 109.74 22 106 C23.66289062 105.20335937 23.66289062 105.20335937 25.359375 104.390625 C26.82312706 103.67751502 28.28665714 102.96394929 29.75 102.25 C30.47960937 101.90195313 31.20921875 101.55390625 31.9609375 101.1953125 C35.99543124 99.21474285 38.90712454 97.33309879 42 94 C42.66 94 43.32 94 44 94 C44.40605469 93.14728516 44.40605469 93.14728516 44.8203125 92.27734375 C46.03761757 89.92738066 47.43164599 87.77988064 48.875 85.5625 C55.66111268 74.20241432 57.84144183 62.08928431 55.20703125 49.0859375 C51.83120804 36.52154547 45.24639503 25.9490448 34.375 18.8125 C28.59554667 15.48574677 22.4135643 13.70894347 16 12 C16.495 15.96 16.495 15.96 17 20 C17.79664063 20.24234375 18.59328125 20.4846875 19.4140625 20.734375 C25.20367628 22.5656397 30.18945156 24.25846232 35 28 C33.3341708 34.16356805 30.12194714 39.48259656 27 45 C23.63697425 44.44820821 21.11821014 43.65890659 18.1875 41.9375 C13.8610391 39.692329 10.84046608 39.42570741 6 40 C3.990755 41.33358994 3.990755 41.33358994 3 43 C3.65306959 46.06668487 3.65306959 46.06668487 5.80664062 47.03979492 C6.58201172 47.35021729 7.35738281 47.66063965 8.15625 47.98046875 C9.01033447 48.3357666 9.86441895 48.69106445 10.74438477 49.05712891 C12.10841431 49.6166626 12.10841431 49.6166626 13.5 50.1875 C22.15260383 53.9146112 30.53841889 57.65189605 35.0625 66.4375 C37.02776861 73.9055207 36.59269251 81.0676215 33 88 C29.47610162 92.59174638 25.45906653 95.93768598 20 98 C18.68 98 17.36 98 16 98 C16 104.93 16 111.86 16 119 C-2.62215655 119.45419894 -18.19743798 117.31548079 -32.48950195 104.31787109 C-42.84311929 94.34833732 -50.73098904 81.18723953 -51.3359375 66.5234375 C-51.62546489 47.00011508 -48.77702277 31.85484335 -34.75 17.1875 C-27.04105861 9.86928578 -17.16956412 2 -6 2 C-6 5.63 -6 9.26 -6 13 C-7.35931641 13.61875 -7.35931641 13.61875 -8.74609375 14.25 C-22.25184608 20.57571403 -31.96905461 28.46153238 -37.3125 42.8125 C-41.58744326 55.31265056 -40.77127849 66.68112418 -36 79 C-35.72285156 79.73863281 -35.44570312 80.47726563 -35.16015625 81.23828125 C-30.5161415 91.91737507 -20.96540849 100.21235775 -10.3203125 104.47265625 C-6.90700562 105.73122996 -3.46346853 106.88656631 0 108 C0 104.7 0 101.4 0 98 C-1.4540625 97.9071875 -1.4540625 97.9071875 -2.9375 97.8125 C-9.54438798 96.87249561 -15.70449756 93.04254634 -20 88 C-18.59601721 83.89889238 -16.62912962 81.01910841 -13.875 77.6875 C-13.15054688 76.80449219 -12.42609375 75.92148438 -11.6796875 75.01171875 C-11.12539062 74.34785156 -10.57109375 73.68398437 -10 73 C-6.81109725 74.23981858 -3.75363763 75.61154998 -0.6875 77.125 C3.81223545 79.14912849 7.10196278 79.42965239 12 79 C12.66 78.67 13.32 78.34 14 78 C14.65555119 75.47266765 14.65555119 75.47266765 15 73 C14.17242187 72.74605469 13.34484375 72.49210937 12.4921875 72.23046875 C1.47077112 68.34708379 -10.70072183 62.98632702 -17 52.75 C-18.92201619 45.5424393 -19.2250091 38.46300506 -15.40234375 31.8515625 C-11.41811618 26.59105033 -7.10036703 23.44014681 -1 21 C-0.67 14.07 -0.34 7.14 0 0 Z " fill="#121212" transform="translate(152,115)"/>
<path d="M0 0 C0.71043457 0.14421387 1.42086914 0.28842773 2.15283203 0.43701172 C4.46194145 0.91301892 6.76168806 1.42298548 9.0625 1.9375 C17.34200308 3.74203846 25.58066443 5.04354334 34 6 C34 6.66 34 7.32 34 8 C32.37191406 8.79664062 32.37191406 8.79664062 30.7109375 9.609375 C29.26551761 10.3226991 27.82021111 11.03625301 26.375 11.75 C25.66214844 12.09804687 24.94929688 12.44609375 24.21484375 12.8046875 C20.86056594 14.46643981 17.82706133 16.1208287 14.74609375 18.2734375 C11.86962956 20.08196833 10.9444233 20.45155516 7.6875 19.875 C6.90761719 19.75511719 6.12773438 19.63523437 5.32421875 19.51171875 C3 19 3 19 1.01953125 18.33203125 C-5.01534681 16.40600634 -10.06084313 17.61837568 -16.00585938 19.29956055 C-28.80119039 22.82936012 -41.86582265 23.31353994 -55.05078125 23.20581055 C-57.42198054 23.18712988 -59.79279607 23.18530461 -62.1640625 23.18554688 C-63.6796909 23.18064461 -65.19531667 23.17482202 -66.7109375 23.16796875 C-67.41600433 23.16685593 -68.12107117 23.1657431 -68.84750366 23.16459656 C-73.76754782 23.11622609 -73.76754782 23.11622609 -76 22 C-75.25678682 67.07731679 -70.09514392 109.71664406 -41 146 C-40.51144531 146.66773438 -40.02289063 147.33546875 -39.51953125 148.0234375 C-32.93404815 156.65548612 -21.66836563 163.36687723 -12 168 C-10.91976562 168.61230469 -9.83953125 169.22460938 -8.7265625 169.85546875 C-4.70751851 171.11299154 -4.70751851 171.11299154 -1.17578125 169.6484375 C0.12718837 168.91708475 1.41504801 168.15824492 2.6875 167.375 C3.66299805 166.82005859 3.66299805 166.82005859 4.65820312 166.25390625 C7.37474099 164.68656636 9.78952162 163.18632512 12.14453125 161.1015625 C12.75683594 160.73804688 13.36914062 160.37453125 14 160 C16.41796875 160.6484375 16.41796875 160.6484375 19 162 C20.32451172 162.63808594 20.32451172 162.63808594 21.67578125 163.2890625 C22.98095703 163.95035156 22.98095703 163.95035156 24.3125 164.625 C25.63701172 165.29402344 25.63701172 165.29402344 26.98828125 165.9765625 C27.65214844 166.31429687 28.31601563 166.65203125 29 167 C29 167.66 29 168.32 29 169 C20.22081212 176.62444785 5.26734088 189.27588457 -6.51171875 188.8828125 C-22.15753246 184.92317768 -34.60578643 173.83955783 -46 163 C-47.06541016 162.04867187 -47.06541016 162.04867187 -48.15234375 161.078125 C-76.06429426 135.27812167 -86.79974142 92.21906417 -91 56 C-91.09643799 55.24001709 -91.19287598 54.48003418 -91.29223633 53.69702148 C-92.35719446 44.1011784 -92.10878136 34.45212036 -92.0625 24.8125 C-92.05747456 22.98372518 -92.0529135 21.15494903 -92.04882812 19.32617188 C-92.03790619 14.88408105 -92.02069923 10.44205559 -92 6 C-90.74268066 6.02094727 -89.48536133 6.04189453 -88.18994141 6.06347656 C-52.25701032 6.99592408 -52.25701032 6.99592408 -16.94628906 1.15869141 C-10.71184449 -0.55232376 -6.33960381 -1.34319139 0 0 Z " fill="#121212" transform="translate(97,86)"/>
<path d="M0 0 C8.78581132 5.74042273 15.54193712 13.13391037 18.52734375 23.359375 C20.27514929 33.12397455 19.97962608 43.2523681 15 52 C7.65976731 61.87672236 0.20294043 67.87560146 -12 70 C-23.88865738 71.21042118 -33.6249313 67.86932551 -42.875 60.5078125 C-49.11561293 54.88588102 -53.60821586 46.24091577 -54.23828125 37.8125 C-54.47602502 25.59997796 -52.35814128 16.70876094 -44.28125 7.23046875 C-33.51147826 -3.29956492 -13.67036149 -7.77436588 0 0 Z M-23 6 C-23 6.886875 -23 7.77375 -23 8.6875 C-24.30859712 13.02222798 -26.06064951 13.47379505 -29.859375 15.578125 C-34.27817288 18.51323892 -37.33788244 23.01364733 -39 28 C-39.99581373 35.75312119 -38.30504149 41.518653 -34 48 C-30.27291557 51.92854845 -26.035131 53.29317593 -21 55 C-21 53.68 -21 52.36 -21 51 C-23.64 50.01 -26.28 49.02 -29 48 C-29 44.20442119 -28.49821059 42.37097383 -27 39 C-25.948125 39.495 -24.89625 39.99 -23.8125 40.5 C-20.74547391 41.82779788 -18.37865064 42.30715006 -15 42 C-15.69432852 38.82069498 -15.69432852 38.82069498 -18.43359375 37.5703125 C-20.43205098 36.60876611 -22.43204977 35.65041693 -24.43359375 34.6953125 C-27.45385752 32.70019153 -28.12128636 31.46663246 -29 28 C-28.76269347 23.49117601 -28.32534286 20.20218201 -25 17 C-23.68 16.67 -22.36 16.34 -21 16 C-21 12.7 -21 9.4 -21 6 C-21.66 6 -22.32 6 -23 6 Z M-13 12 C-13 12.99 -13 13.98 -13 15 C-9.19572508 17.2013866 -9.19572508 17.2013866 -5 18 C-5.99 20.97 -6.98 23.94 -8 27 C-8.70125 26.67 -9.4025 26.34 -10.125 26 C-13.26003116 24.90955438 -15.70563182 24.84677357 -19 25 C-18.32930378 28.13829639 -18.32930378 28.13829639 -15.8203125 29.2109375 C-14.48613281 29.78714844 -14.48613281 29.78714844 -13.125 30.375 C-10.07759901 31.84420477 -8.15317403 32.83807317 -5.8125 35.3125 C-4.66802534 39.09807002 -4.82401174 42.22736651 -6 46 C-8.25451698 48.93087207 -9.48442865 49.82814288 -13 51 C-13 54.3 -13 57.6 -13 61 C-12.01 60.505 -12.01 60.505 -11 60 C-11.33 58.02 -11.66 56.04 -12 54 C-10.89011719 53.84917969 -10.89011719 53.84917969 -9.7578125 53.6953125 C-3.99544622 52.24247794 -0.02869921 47.67163622 3 42.75 C5.15602671 34.66489984 4.86792177 27.64373041 0.76953125 20.23828125 C-2.34512914 16.29854526 -6.43806111 13.98626012 -11 12 C-11.66 12 -12.32 12 -13 12 Z " fill="#121212" transform="translate(165,10)"/>
<path d="M0 0 C5.52135758 3.40423572 10.82040887 9.19071237 13.05859375 15.328125 C14.71050094 23.45609313 14.69995644 31.54180349 10.0546875 38.6015625 C5.28846844 44.42161894 -0.43062735 49.00795167 -8.0859375 49.93359375 C-17.08902295 49.94287528 -23.08439395 49.73392637 -29.68359375 43.40625 C-36.4332767 36.18733775 -38.04688872 30.96400678 -37.87109375 21.078125 C-36.99897743 12.66908765 -32.90494854 7.19447297 -26.5625 1.875 C-19.37961996 -2.9135867 -7.94328753 -3.52688208 0 0 Z M-16.5 9.5 C-21.11665742 12.22802484 -24.03218035 14.5643607 -26.5 19.5 C-27.44838947 24.82803075 -26.49731458 28.95235029 -23.5 33.5 C-21.14167228 35.97208796 -21.14167228 35.97208796 -18.5 37.5 C-17.51 37.17 -16.52 36.84 -15.5 36.5 C-17.15 35.51 -18.8 34.52 -20.5 33.5 C-19.84 31.85 -19.18 30.2 -18.5 28.5 C-15.86 28.83 -13.22 29.16 -10.5 29.5 C-11.056875 29.0875 -11.61375 28.675 -12.1875 28.25 C-12.950625 27.6725 -13.71375 27.095 -14.5 26.5 C-15.4075 25.943125 -16.315 25.38625 -17.25 24.8125 C-19.69406379 22.30054555 -19.89780723 21.76795386 -20.0625 18.4375 C-19.5 14.5 -19.5 14.5 -17.5 12.5 C-16.84 12.17 -16.18 11.84 -15.5 11.5 C-15.83 10.84 -16.16 10.18 -16.5 9.5 Z M-3.5 12.5 C-4.16 15.14 -4.82 17.78 -5.5 20.5 C-6.49 19.84 -7.48 19.18 -8.5 18.5 C-10.65274948 18.80840599 -10.65274948 18.80840599 -12.5 19.5 C-11.65115234 20.02400391 -11.65115234 20.02400391 -10.78515625 20.55859375 C-10.05167969 21.01363281 -9.31820312 21.46867187 -8.5625 21.9375 C-7.83160156 22.38996094 -7.10070312 22.84242187 -6.34765625 23.30859375 C-4.5 24.5 -4.5 24.5 -3.5 25.5 C-3.125 28.25 -3.125 28.25 -3.5 31.5 C-6 34.375 -6 34.375 -8.5 36.5 C-8.17 37.16 -7.84 37.82 -7.5 38.5 C-2.88334258 35.77197516 0.03218035 33.4356393 2.5 28.5 C3.45131976 23.15550699 2.45427101 19.09553269 -0.5 14.5 C-1.49 13.84 -2.48 13.18 -3.5 12.5 Z " fill="#121212" transform="translate(229.5,47.5)"/>
</svg>
