<svg xmlns="http://www.w3.org/2000/svg" viewBox="234.15 87.1 293.71 368.87"><g id="freepik--character-1--inject-65"><circle cx="320.62" cy="178.01" r="34.46" style="fill:#fff;stroke:#263238;stroke-linecap:round;stroke-linejoin:round"/><circle cx="324.1" cy="178.01" r="34.46" style="fill:#fff;stroke:#263238;stroke-linecap:round;stroke-linejoin:round"/><circle cx="324.1" cy="178.01" r="29.24" transform="translate(-30.94 281.31) rotate(-45)" style="fill:#fff;stroke:#263238;stroke-linecap:round;stroke-linejoin:round"/><path d="M324.43,198.57v-3.85q-4.26-.16-6.37-2.73t-2.28-7.66l5.84-1a17,17,0,0,0,.43,3.45,4.29,4.29,0,0,0,1.06,2.07,2.48,2.48,0,0,0,1.82.69,1.87,1.87,0,0,0,1.76-.83,3.83,3.83,0,0,0,.47-1.91,6.11,6.11,0,0,0-1-3.53,14.9,14.9,0,0,0-2.67-2.88l-3.51-3a22.84,22.84,0,0,1-2.16-2.28,9.51,9.51,0,0,1-1.51-2.64,10.12,10.12,0,0,1-.56-3.52,8.08,8.08,0,0,1,2.22-6.06,9.19,9.19,0,0,1,5.94-2.47v-3.68h2v3.68a7.75,7.75,0,0,1,3.66,1,6.12,6.12,0,0,1,2.18,2.23,10.63,10.63,0,0,1,1.07,2.94,21.62,21.62,0,0,1,.42,3.08l-5.92.87a18.85,18.85,0,0,0-.25-2.71,4.1,4.1,0,0,0-.74-1.84,1.91,1.91,0,0,0-1.66-.62,2.11,2.11,0,0,0-1.76.91,3.36,3.36,0,0,0-.6,2,4.88,4.88,0,0,0,.91,3.06,20.42,20.42,0,0,0,2.07,2.23l3.44,3a22.92,22.92,0,0,1,2.52,2.69,12.64,12.64,0,0,1,1.86,3.21,10.73,10.73,0,0,1,.71,4,8.89,8.89,0,0,1-.89,4,7.33,7.33,0,0,1-2.57,2.92,8.33,8.33,0,0,1-3.95,1.33v3.89Z" style="fill:#fff;stroke:#263238;stroke-linecap:round;stroke-linejoin:round"/><path d="M237.54,173.75l1.09,50.52-.44,35.92,5.88-.87s6.32-33.75,6.32-35.71,3.48-27,3.48-27l6.53,32.44,3.39,31.13,5.88-.87s.75-33.75.75-39.84-.3-45.3-.3-45.3l-18.43-4.78Z" style="fill:#263238;stroke:#263238;stroke-linecap:round;stroke-linejoin:round"/><path d="M244.07,259.32s8.71,5.66,7.41,7-8.5,0-10.46-.22a6.6,6.6,0,0,1-2.61-.65l-.22-5.23Z" style="fill:#fff;stroke:#263238;stroke-linecap:round;stroke-linejoin:round"/><path d="M269.67,259.32s8.71,5.66,7.4,7-8.49,0-10.45-.22a6.6,6.6,0,0,1-2.61-.65l-.22-5.23Z" style="fill:#fff;stroke:#263238;stroke-linecap:round;stroke-linejoin:round"/><path d="M314.56,142.51l7.85-1.81s7.54,4,8.17,4.57-.63.63-2,.63a50.9,50.9,0,0,1-6.37-1.27s3.29,1,2.76,1.49a2.71,2.71,0,0,1-2.12.53c-.53-.11-2.55-.43-2.55-.43s-3.5-.1-4.56-.32l-1.06-.21Z" style="fill:#fff;stroke:#263238;stroke-linecap:round;stroke-linejoin:round"/><path d="M263.78,111.38s-17.86,10-20.16,12.87-3.07,17.28-4.61,27.46a202.61,202.61,0,0,0-1.73,22.85s12.87,1.73,20,1.54a55.54,55.54,0,0,0,12.87-1.92s2.5-12.87,3.07-14.79,5.19-25,5.19-25l14.21,11.33h21.94l0-3.25s-17.36-4-17.55-4.63-14.79-21.51-19.21-24S266.86,109.07,263.78,111.38Z" style="fill:#8E54E9;stroke:#263238;stroke-linecap:round;stroke-linejoin:round"/><path d="M265.51,105.81l-3.26,7.87s-1.54.39-1.15,3.46,4.22,11.71,5.56,11.52S272.23,117,272.23,117Z" style="fill:#fff;stroke:#263238;stroke-linecap:round;stroke-linejoin:round"/><polygon points="267.35 114.5 268.71 124.99 271.27 119.83 267.35 114.5" style="fill:#263238;stroke:#263238;stroke-linecap:round;stroke-linejoin:round"/><path d="M283.76,101.2a4,4,0,0,0,4.6.39c2.89-1.35,4.23-4.23,1.73-6.53s-3.84.19-4.61-2.88S281.64,87,279,87.76s-1.72,1.73-3.64,2.3-4.42-1.15-6.92,1.35-2.88,8.45-3.45,11.14,1.92,3.45,4,3.26,3.84-4.61,5.57-6S283.76,101.2,283.76,101.2Z" style="fill:#263238;stroke:#263238;stroke-linecap:round;stroke-linejoin:round"/><path d="M265.13,106.58s.19,4.22,1,5.57,4,7.68,5.18,7.68a10.49,10.49,0,0,0,3.65-.39c.77-.38,3.84-4.41,5.76-7.87s3.08-10.37,3.08-10.37-9.22-5.76-9.8-4.61-.38,2.88-1.34,3.07-3.07.39-3.07.39.57,2.69-.2,3.26-2.69-.57-2.69-.57S264.36,103.12,265.13,106.58Z" style="fill:#fff;stroke:#263238;stroke-linecap:round;stroke-linejoin:round"/><path d="M275.81,107.26c-.17.73-.64,1.25-1,1.16s-.6-.77-.43-1.5.64-1.26,1.05-1.16S276,106.53,275.81,107.26Z" style="fill:#263238"/><path d="M280.83,108.66c-.18.74-.64,1.25-1.05,1.16s-.6-.77-.43-1.5.64-1.26,1-1.16S281,107.93,280.83,108.66Z" style="fill:#263238"/><path d="M273.71,104.51s.76-.61,3,0" style="fill:none;stroke:#263238;stroke-linecap:round;stroke-linejoin:round"/><path d="M280.08,105.88a2.8,2.8,0,0,1,2,1.21" style="fill:none;stroke:#263238;stroke-linecap:round;stroke-linejoin:round"/><polyline points="278.41 108.61 277.65 112.7 275.23 112.4" style="fill:none;stroke:#263238;stroke-linecap:round;stroke-linejoin:round"/><path d="M274.47,114.82s-2.28,0-3-3.18" style="fill:none;stroke:#263238;stroke-linecap:round;stroke-linejoin:round"/><path d="M267.62,104.47s-.38-4.42-2.11-4.42-3.26,4-2.3,5.76,3.45,2.3,3.45,2.3" style="fill:#fff;stroke:#263238;stroke-linecap:round;stroke-linejoin:round"/><path d="M252.3,127.69l3.33,27.6,28,9.57.44,3.24L246.63,163l-6-31.06c-.73-3.77,1.21-7.86,3.9-10.15s6.91-2.41,6.91-2.41" style="fill:#8E54E9;stroke:#263238;stroke-linecap:round;stroke-linejoin:round"/><path d="M283.59,164.86s4.46-1.25,5-1.36,3.57,2.24,4.17,2.32,1.62.27,1.57,1.06-.31,1.43-1.77.93a17,17,0,0,1-2.42-1,48.39,48.39,0,0,0,4.36,3.95A7.48,7.48,0,0,1,296,172a.63.63,0,0,1-.19,1,10.56,10.56,0,0,1-3.81,1c-2.14,0-8-5.89-8-5.89Z" style="fill:#fff;stroke:#263238;stroke-linecap:round;stroke-linejoin:round"/></g><g id="freepik--piggy-bank--inject-65"><path d="M458.2,246.76s28.62-16.14,32.79-14.58-3.65,33.31-4.69,35.39S458.2,246.76,458.2,246.76Z" style="fill:#8E54E9;stroke:#263238;stroke-linecap:round;stroke-linejoin:round"/><path d="M489.42,236.35s-1.24,1.93-2.82,4.71c-2.76,4.86-6.54,12.32-6.54,16.63,0,6.76,4.16,6.24,5.2,1l3.64-15.1" style="fill:none;stroke:#263238;stroke-linecap:round;stroke-linejoin:round"/><ellipse cx="248.86" cy="312.94" rx="14.21" ry="18.5" style="fill:#8E54E9;stroke:#263238;stroke-linecap:round;stroke-linejoin:round"/><ellipse cx="377.66" cy="331.06" rx="135.4" ry="114.63" style="fill:#8E54E9;stroke:#263238;stroke-linecap:round;stroke-linejoin:round"/><path d="M465.6,410.08c-23,18.32-53.9,29.55-87.94,29.55-60.75,0-111.64-35.77-124.88-83.79" style="fill:#8E54E9;stroke:#263238;stroke-linecap:round;stroke-linejoin:round;stroke-width:2px"/><path d="M249.5,334.66c-.05-1.19-.07-2.39-.07-3.6a93.72,93.72,0,0,1,8.06-38" style="fill:#8E54E9;stroke:#263238;stroke-linecap:round;stroke-linejoin:round;stroke-width:2px"/><path d="M337,229.05a149.78,149.78,0,0,1,81.5,0" style="fill:none;stroke:#263238;stroke-linecap:round;stroke-linejoin:round;stroke-width:5px"/><path d="M505.56,295.68s17.18-5.73,19.78-2.6,2.6,39.55.52,46.32-16.14,5.2-26-2.08a20.81,20.81,0,0,1-8.84-17.7" style="fill:#8E54E9;stroke:#263238;stroke-linecap:round;stroke-linejoin:round"/><line x1="495.15" y1="318.06" x2="484.74" y2="319.62" style="fill:none;stroke:#263238;stroke-linecap:round;stroke-linejoin:round"/><path d="M492.55,329.51s-2.6,18.22.52,18.74,8.33-8.85,8.33-8.85S494.11,331.07,492.55,329.51Z" style="fill:#263238;stroke:#263238;stroke-linecap:round;stroke-linejoin:round"/><path d="M483.08,286.84c1,3.75.39,7.15-1.28,7.58s-3.8-2.27-4.77-6-.39-7.15,1.28-7.58S482.12,283.08,483.08,286.84Z" style="fill:#263238"/><path d="M428.39,236.4s32.75-32.75,39.14-26.36,4,34.35,4,38.35v11.18" style="fill:#8E54E9;stroke:#263238;stroke-linecap:round;stroke-linejoin:round"/><path d="M468.61,217.09s.52-8.33-3.13-3.12-14.05,41.11-10.93,45.28,12,2.08,14.06-5.73.52-30.19.52-30.19" style="fill:none;stroke:#263238;stroke-linecap:round;stroke-linejoin:round"/><polyline points="289.34 407.04 307.26 455.47 327.04 455.47 335.88 430.48" style="fill:#8E54E9;stroke:#263238;stroke-linecap:round;stroke-linejoin:round"/><polyline points="454.55 413.31 437.38 455.47 417.6 455.47 408.75 430.48" style="fill:#8E54E9;stroke:#263238;stroke-linecap:round;stroke-linejoin:round"/><path d="M371.05,387.84V377.73q-11.19-.44-16.73-7.17t-6-20.1l15.33-2.61a44.24,44.24,0,0,0,1.14,9.07,11.2,11.2,0,0,0,2.77,5.43,6.55,6.55,0,0,0,4.78,1.8c2.24,0,3.78-.72,4.62-2.18a9.83,9.83,0,0,0,1.25-5,16.13,16.13,0,0,0-2.56-9.29,39.12,39.12,0,0,0-7-7.55l-9.24-7.94a61.29,61.29,0,0,1-5.65-6,24.3,24.3,0,0,1-4-7,26.27,26.27,0,0,1-1.47-9.24q0-10.2,5.82-15.91t15.59-6.47V278H375v9.67a20.16,20.16,0,0,1,9.61,2.66,16.18,16.18,0,0,1,5.71,5.87,27.37,27.37,0,0,1,2.82,7.72A55.11,55.11,0,0,1,394.2,312l-15.54,2.28a49.38,49.38,0,0,0-.65-7.12,10.43,10.43,0,0,0-2-4.83,5,5,0,0,0-4.34-1.63,5.51,5.51,0,0,0-4.62,2.39,8.78,8.78,0,0,0-1.58,5.11,12.62,12.62,0,0,0,2.4,8,51,51,0,0,0,5.43,5.87l9,7.82A60.59,60.59,0,0,1,389,337a33.06,33.06,0,0,1,4.89,8.43A28.15,28.15,0,0,1,395.72,356a23.28,23.28,0,0,1-2.34,10.48,19.32,19.32,0,0,1-6.73,7.67,22,22,0,0,1-10.38,3.47v10.22Z" style="fill:#263238"/><ellipse cx="409.49" cy="298.22" rx="32.56" ry="31.53" style="fill:#fff;opacity:0.35000000000000003"/></g></svg>