<svg width="72" height="73" viewBox="0 0 72 73" fill="none" xmlns="http://www.w3.org/2000/svg">
<path d="M63.7277 13.5358C59.3231 8.27503 53.8543 4.56154 47.3214 2.31461C46.3098 1.96667 43.7384 1.33243 42.7686 1.14406C37.3806 0.134961 32.0465 0.29642 26.7394 1.73607C19.1019 3.79463 12.7172 7.85796 7.86805 14.0337C1.67189 21.9181 -0.887389 30.9193 0.271022 40.9699C1.91435 55.2991 12.8654 67.9061 26.9818 71.3505C36.7475 73.732 46.0148 72.4404 54.6894 67.22C73.426 55.9584 77.7499 30.2869 63.7277 13.5358Z" fill="#141414"/>
<path d="M68.7251 36.4492C68.9272 54.4919 54.0429 69.1171 36.2223 69.2651C18.671 69.3997 3.27488 55.1646 3.23447 36.5433C3.19406 19.6174 16.408 3.75431 36.1414 3.74085C54.6626 3.7274 68.8329 18.7966 68.7386 36.4626L68.7251 36.4492Z" fill="#8DDA68"/>
<path d="M26.6768 45.1792L25.3028 43.8046L25.2902 43.7921L25.2893 43.7911L20.1313 38.6389C19.5169 38.0253 18.9963 37.5639 18.435 37.2546L18.4307 37.2522C18.2164 37.1333 18.0886 37.0912 18.0273 37.0764C17.9936 37.1039 17.9379 37.1561 17.8622 37.2486L17.858 37.2537C15.8026 39.7467 13.8752 42.2496 12.2856 44.9341C12.1236 45.2113 12.0991 45.3484 12.0969 45.391C12.1098 45.4232 12.1881 45.5817 12.5465 45.8689L12.5473 45.8695C12.8761 46.1333 13.2191 46.3855 13.5967 46.6632C13.6514 46.7034 13.7069 46.7441 13.7631 46.7856C14.1933 47.1024 14.6625 47.452 15.1151 47.8363M26.6768 45.1792L42.0639 28.4999C43.1651 27.6475 44.2346 26.7672 45.2824 25.9021C45.3463 25.8493 45.4102 25.7965 45.474 25.7438C46.461 24.9287 47.4291 24.1292 48.416 23.3541C49.273 22.6843 50.1967 22.0728 51.149 21.5342C51.4773 21.3528 51.6235 21.3359 51.657 21.3354C51.6881 21.3459 51.8295 21.409 52.1018 21.704L52.1073 21.71C52.7609 22.4111 53.3564 23.1885 53.9349 24.0232L53.9349 24.0232L53.9409 24.0318C55.6963 26.5311 57.2377 29.1737 58.8014 31.8935C58.95 32.1534 59.0319 32.3419 59.0754 32.4698C58.9497 32.5335 58.7507 32.6136 58.4492 32.6982L58.4492 32.6982L58.4393 32.701C54.9626 33.6993 51.6713 35.1592 48.6618 37.2921L48.66 37.2934C45.8614 39.2825 43.086 41.228 40.2378 43.0626L40.234 43.0651C38.5933 44.1281 37.1539 45.426 35.884 46.8081C35.1905 47.5557 34.4796 48.306 33.7618 49.0636C31.3861 51.5711 28.9352 54.1579 26.7943 56.9845L26.7901 56.9901C26.6103 57.2295 26.4757 57.3756 26.3826 57.462C26.2487 57.3816 26.0512 57.236 25.7723 56.9827L25.766 56.9771C25.7519 56.9644 25.7271 56.9404 25.6934 56.9079C25.5202 56.741 25.1137 56.349 24.7349 56.1082L24.7349 56.1082L24.7261 56.1026C23.0168 55.0309 21.4792 53.7109 19.9227 52.2671C19.4654 51.8431 18.9999 51.4017 18.5267 50.9529C17.4287 49.9117 16.2891 48.8311 15.1151 47.8363M26.6768 45.1792L27.8452 43.6261M26.6768 45.1792L27.8452 43.6261M15.1151 47.8363C15.1154 47.8365 15.1156 47.8366 15.1158 47.8368L14.0234 49.1234L15.1145 47.8358C15.1147 47.8359 15.1149 47.8361 15.1151 47.8363ZM27.8452 43.6261C29.5448 41.367 31.153 39.3099 32.8481 37.3125L32.8504 37.3098M27.8452 43.6261L32.8504 37.3098M32.8504 37.3098C35.6137 34.0393 38.6793 31.1207 42.0637 28.5001L32.8504 37.3098ZM49.6378 38.6692C46.836 40.6605 44.0343 42.6248 41.1517 44.4816C39.6566 45.4503 38.3231 46.6478 37.1242 47.9529C36.4029 48.7305 35.6734 49.5006 34.9439 50.2707L49.6378 38.6692ZM51.6647 21.3359C51.6647 21.336 51.6626 21.336 51.6586 21.3354C51.6628 21.3354 51.6648 21.3357 51.6647 21.3359ZM51.6553 21.3349C51.652 21.3343 51.6504 21.3338 51.6504 21.3336C51.6504 21.3335 51.652 21.3338 51.6553 21.3349ZM12.0976 45.406C12.0972 45.4062 12.0965 45.4023 12.0968 45.3941C12.0981 45.4017 12.098 45.4058 12.0976 45.406Z" fill="#FFFEFB" stroke="#141414" stroke-width="3.37564"/>
</svg>
